<svg xmlns="http://www.w3.org/2000/svg" viewBox="0 0 5190.13 2199.27"><defs><style>.cls-1{fill:#cbe4ff;opacity:0.6;}</style></defs><title>blue-shape</title><g id="Слой_1" data-name="Слой 1"><path class="cls-1" d="M4674.69,2151.53c0,.25-.09.48-.13.73-.29,1.62-.59,3.26-.91,4.9l-716.28-2.32-468.9-1.54-316.81-1-223.12-.73-8.27-.05-82.25-.26h-3l-403.57-1.31-17.88-.07-437.28-1.42-154.39-.51-370.07-1.2-362.33-1.19-283-.92S760.27,2028,717.38,1855q-4-16.26-7.78-33.21-2.05-9.4-4-19c-27.27-133.53-37.49-293.73,4-457.31q6.67-26.29,15.18-52.63c1.06-3.26,2.11-6.54,3.24-9.82A839.61,839.61,0,0,1,777.51,1166c1.79-3.48,3.62-7,5.49-10.5a864.72,864.72,0,0,1,51-83.8c2-2.84,3.93-5.66,5.93-8.49q16.69-23.62,35.53-46.94,27.42-34,59.71-67.12,44.7-45.85,88.65-83.37,18.08-15.54,36-29.73,15.38-12.21,30.66-23.42l1.74-1.27q35.36-26,70.06-47.17c4.73-2.88,9.42-5.72,14.15-8.5,183.79-108.24,353.42-123.15,500.46-109.63,167.16,15.37,305.12,67.57,401.53,61.29C2176,701,2243.77,607.4,2347,494q9.85-10.85,20.2-21.91c13.63-14.58,27.89-29.43,42.9-44.37,2.31-2.32,4.64-4.61,7-6.93q7.61-7.45,15.49-15,3.46-3.32,7-6.61,25.57-24,54.17-47.92c117.36-97.54,276.67-190.07,514.31-239.92,96.17-20.18,201.19-34,308.31-39.74q33.48-1.78,67.17-2.5,20.2-.42,40.44-.44c33.34-.06,66.7.74,99.86,2.44q17.65.89,35.2,2.11c143.46,10.06,281.67,37.21,398.3,85.75,107.62,44.76,196.85,107.74,254.87,192.3A405.49,405.49,0,0,1,4274.1,494q2.91,13,5.06,26.51c7.59,47.91,7.95,100.21.05,157.19a729.15,729.15,0,0,1-15.34,78c-.71,2.82-1.42,5.66-2.2,8.5q-5.34,20.31-12,41.36c-.74,2.35-1.5,4.72-2.27,7.08q-8.44,26-18.87,53.15c-.09.25-.19.49-.29.73-25.84,66.83-61,138.59-106.56,215.58-190.69,322.31,58.85,378.48,284.34,506.3C4577.23,1685.46,4734.56,1823.86,4674.69,2151.53Z"/></g></svg>