<svg xmlns="http://www.w3.org/2000/svg" viewBox="0 0 994.83 1171.95"><defs><style>.cls-1{fill:#1a2e35;}.cls-2{fill:#0c3563;}.cls-3,.cls-7{fill:#fff;}.cls-3{opacity:0.1;}.cls-4{fill:#ff8b7b;}.cls-5{fill:#0d458d;}.cls-6{fill:#ffb27b;}.cls-8{opacity:0.2;}.cls-9{fill:#ff5551;}.cls-10{fill:#007cff;}.cls-11{fill:#95c38b;}.cls-12{fill:#94d29d;}.cls-13{fill:#fab886;}.cls-14,.cls-15{fill:#699ff0;}.cls-15{opacity:0.3;}</style></defs><title>buyer</title><g id="Слой_1" data-name="Слой 1"><path class="cls-1" d="M519,768.62c23.08-136.19,32.68-300.39,32.68-300.39l-127.06-2.05s14.61,221.31,19.69,314c5.27,96.38,10.78,316.1,10.78,316.1h58.38S531.81,887.77,519,768.62Z"/><path class="cls-2" d="M504.34,1141l1.7,27.17a5.29,5.29,0,0,1-5.24,5.35c-8.62,0-12.52-1.37-27.57-1.6-17.6-.28-32.59,1.93-53.23,1.6-12.48-.19-10.8-15.4-1-18,20.8-5.49,30.81-15.79,40.87-21.82,3.16-9.8,2.37-43,2.37-43l47.81,3.19S504.51,1126.8,504.34,1141Z"/><path class="cls-2" d="M674.27,1164.17,668.19,1141c-2.14-14.23-2.32-47.12-2.32-47.12L621.08,1095s4.62,30,4.74,40.59c-8.39,6-16.69,14.46-35.14,20-8.65,2.57-7.26,17.78,4.36,18,19.24.33,32.82-1.88,49.22-1.6,14,.23,15.71,1.6,23.72,1.6C672.73,1173.55,675.84,1169.21,674.27,1164.17Z"/><path class="cls-1" d="M457.53,1104l53.7.84a4.33,4.33,0,0,0,4.37-3.78l2.33-17.73a4.35,4.35,0,0,0-4.18-4.91l-58.46-1.82a4.35,4.35,0,0,0-4.44,4.91l2.44,18.71A4.34,4.34,0,0,0,457.53,1104Z"/><path class="cls-3" d="M457.53,1104l53.7.84a4.33,4.33,0,0,0,4.37-3.78l2.33-17.73a4.35,4.35,0,0,0-4.18-4.91l-58.46-1.82a4.35,4.35,0,0,0-4.44,4.91l2.44,18.71A4.34,4.34,0,0,0,457.53,1104Z"/><path class="cls-1" d="M625.22,764.78c-17.3-136.95-18.53-228.47-37.71-296l-115.63-1.74s52.21,217.28,76.27,307.75c24.15,90.82,67.83,319,67.83,319l56.74.7S657.48,870.72,625.22,764.78Z"/><path class="cls-1" d="M616.15,1104l53.66.84a4.36,4.36,0,0,0,4.41-4.06l1.17-17.72a4.34,4.34,0,0,0-4.2-4.63l-58.43-1.82a4.36,4.36,0,0,0-4.41,5.17l3.6,18.69A4.36,4.36,0,0,0,616.15,1104Z"/><path class="cls-3" d="M616.15,1104l53.66.84a4.36,4.36,0,0,0,4.41-4.06l1.17-17.72a4.34,4.34,0,0,0-4.2-4.63l-58.43-1.82a4.36,4.36,0,0,0-4.41,5.17l3.6,18.69A4.36,4.36,0,0,0,616.15,1104Z"/><path class="cls-4" d="M457.31,257.78c-7.85,15.13-16,30.18-24.24,45.13s-16.56,29.86-25,44.7l-12.61,22.24-3.14,5.55-1.58,2.77-.82,1.44-1.18,1.86A57.42,57.42,0,0,1,376,396.08c-5.61,4.59-13.7,8.49-22.05,8.88a38.82,38.82,0,0,1-21.09-4.76,53.36,53.36,0,0,1-13.51-10.53,62,62,0,0,1-5-6,72.86,72.86,0,0,1-4.38-6.7,11.36,11.36,0,0,1,14.86-16l2.77,1.42c1.19.6,3,1.75,4.49,2.57s3.15,1.71,4.71,2.4a29.61,29.61,0,0,0,8.44,2.63c2.36.3,3.8-.32,4-.89a2.37,2.37,0,0,0,.14-.87,4.66,4.66,0,0,1,.55-1.22,49,49,0,0,0,2.7-5.71l.39-.93.66-1.41,1.38-2.92,2.77-5.85c3.67-7.79,7.44-15.52,11.25-23.22q11.33-23.14,23.24-45.95c7.9-15.23,16-30.31,24.45-45.28a23.1,23.1,0,0,1,40.64,21.95Z"/><path class="cls-5" d="M454.8,193.22c-28.39,7.82-57.75,56.2-57.75,56.2l40.71,65.52s19.41-25.5,40.06-57.52C500.31,222.54,489.19,183.74,454.8,193.22Z"/><path class="cls-5" d="M573.62,195.1c-30.72-5.9-65.91-8.68-96.29-7-34.72,1.92-63,33.11-65.42,73.1-3.63,60.06,3,145.76,12.61,247.59,0,0,163,3,163,3C591.79,460.89,585.27,362,604.34,246,608.26,222.09,594.41,199.09,573.62,195.1Z"/><path class="cls-6" d="M541.29,115c-4.65,22-9.5,62.56,5.94,78.18-12.28,11.42-28.31,24.51-54.83,24.13S470.73,199,477.84,189.77c25-4.69,24.55-23.12,20.42-40.62Z"/><path class="cls-7" d="M494.91,217.34s11.19,3.6,17.63,20c20.63-5.55,42-26.89,43.3-47.58a34.86,34.86,0,0,0-12.93-2.44S531.53,207.91,494.91,217.34Z"/><path class="cls-7" d="M480.62,215.45s-9.61-.54-18.77,19.76c-20.87-4.53,4-41.9,13.06-47.19,6.17-2.43,13.38-1.66,13.38-1.66S469.68,193.15,480.62,215.45Z"/><path class="cls-8" d="M523.74,129l-25.46,20.18a72.18,72.18,0,0,1,2,12.37c9.53-.9,22.72-10.65,23.84-20.52C524.68,136.07,524.53,131.3,523.74,129Z"/><path class="cls-1" d="M488.69,38.4c-9.61.24-26.78,13.67-26.64,43.19C492.71,62.32,488.69,38.4,488.69,38.4Z"/><path class="cls-6" d="M547.85,81.6c-3.08,30.05-3.36,47.81-19.22,62.52-23.87,22.13-60.54,6.48-66.51-24-5.38-27.4.56-71.93,30.58-82.46C522.27,27.32,550.93,51.56,547.85,81.6Z"/><path class="cls-1" d="M484.08,112c6.65-1.37,18.41,2.76,22,9.61,0,0-14.91-5.82-23.78-3.55C478.91,116.24,482,112.42,484.08,112Z"/><path class="cls-1" d="M472.41,112.77c-5.15-.94-11.93,3.17-12,9.37,0,0,8.39-5.74,15.42-4.09C477.56,116.31,474,113.06,472.41,112.77Z"/><path class="cls-1" d="M548.78,105.23c-14,9.8-22.15,4.24-22.37-10.88-.19-13.74,15.25-39.16,5.58-46.83s-48.5,16.91-53.87-.5c-2.67-8.62,24.06-20,47.23-18.58,22.53,1.41,31.24,14.72,30.69,24.62C566.91,53,574.45,89.58,548.78,105.23Z"/><path class="cls-6" d="M557.94,109.72a28.34,28.34,0,0,1-14.62,14.85c-8.38,3.43-12.81-4.79-10.68-14.07,1.92-8.35,8.59-20.2,17.1-19.63S561.61,101.26,557.94,109.72Z"/><path class="cls-1" d="M499.26,86.74c-.1,2.46-1.48,4.38-3.08,4.3s-2.83-2.13-2.73-4.59,1.48-4.38,3.09-4.3S499.36,84.29,499.26,86.74Z"/><path class="cls-1" d="M470.8,84.6c-.1,2.45-1.48,4.37-3.08,4.29s-2.83-2.13-2.73-4.58,1.48-4.38,3.09-4.3S470.9,82.14,470.8,84.6Z"/><path class="cls-9" d="M481.75,87.2s-6.16,13.88-12.59,20.4c4.18,4.27,11.64,2.79,11.64,2.79Z"/><path class="cls-1" d="M474.84,123.18a20,20,0,0,0,15.82-2.37.72.72,0,0,0-.84-1.18,19.31,19.31,0,0,1-17.5,1.22.72.72,0,0,0-.94.41.74.74,0,0,0,.41.94A24.37,24.37,0,0,0,474.84,123.18Z"/><path class="cls-1" d="M513.42,79.27A1.43,1.43,0,0,0,514.47,77,14.48,14.48,0,0,0,503,70.49,1.44,1.44,0,0,0,501.56,72,1.47,1.47,0,0,0,503,73.38h0a11.5,11.5,0,0,1,9.05,5.27A1.46,1.46,0,0,0,513.42,79.27Z"/><path class="cls-1" d="M461.74,73.57a1.44,1.44,0,0,0,1.32-.35,11.31,11.31,0,0,1,9.88-3.2A1.44,1.44,0,0,0,474.67,69a1.46,1.46,0,0,0-1.07-1.74,14.23,14.23,0,0,0-12.54,3.9,1.45,1.45,0,0,0,.68,2.46Z"/><path d="M512.58,634.27c5.59,22.63,11.24,45.36,16.61,66.74-2.59,19.28-5.4,38.63-8.5,57.52a506.52,506.52,0,0,1-77.27,5.8c-1.95-34.15-4.76-79.83-7.65-125.15Z"/><path d="M621.51,734.06c-21.13,7.72-48.6,15.19-78.62,20.78-4.13-16-8.82-34.33-13.7-53.83,3.1-23.16,5.87-46.21,8.29-68.34L610.66,628C613.68,659.78,617,694.93,621.51,734.06Z"/><path class="cls-4" d="M325.29,361.38,307.63,341,288,369.58s11.22,18.29,29.36,7.86Z"/><path class="cls-4" d="M282.21,338.91,277.06,354c-.86,2.51-.44,5,1.07,6.41l9.84,9.17L307.63,341l-16.8-7.4C287.76,332.26,283.6,334.81,282.21,338.91Z"/><path class="cls-1" d="M457.29,298.68s4.73-3.74,2.62-12.23c1.45-.55,3.44,1.66,3.44,1.66S462.71,298,457.29,298.68Z"/><path class="cls-10" d="M476,310.53a22,22,0,0,0-16.76-13.22,22,22,0,0,0-17.87-11.69c-13-1-28.09,40.74-8.27,48C446.32,350.12,481.12,322.51,476,310.53Z"/><path class="cls-11" d="M476,310.53a22,22,0,0,0-16.76-13.22,22,22,0,0,0-17.87-11.69c-13-1-28.09,40.74-8.27,48C446.32,350.12,481.12,322.51,476,310.53Z"/><path class="cls-1" d="M432.15,332.78l-1.49.09,1.1.46-.22.57.9.12.09.72.65-.14.24.78.51-.48.56,1v-1.39A5.41,5.41,0,0,0,432.15,332.78Z"/><path class="cls-1" d="M407.86,282.36s-1.36-5.88-9.93-7.62c.13-1.54,3-2.4,3-2.4S409.57,277.16,407.86,282.36Z"/><path class="cls-10" d="M426.57,270.53A22,22,0,0,0,407.45,280a22,22,0,0,0-18.22,11.13C382.72,302.43,414,334,429.08,319.21,449.63,314.32,439.59,271,426.57,270.53Z"/><path class="cls-12" d="M426.57,270.53A22,22,0,0,0,407.45,280a22,22,0,0,0-18.22,11.13C382.72,302.43,414,334,429.08,319.21,449.63,314.32,439.59,271,426.57,270.53Z"/><path class="cls-1" d="M427.89,319.68l-.56,1.38.89-.79.42.45.49-.77.69.23.16-.65.8.12-.21-.67,1.09-.1-1.26-.59A5.4,5.4,0,0,0,427.89,319.68Z"/><path class="cls-1" d="M482.73,285.16s-3.51-4.91.87-12.48c-1.24-.93-3.77.64-3.77.64S477.7,283,482.73,285.16Z"/><path class="cls-10" d="M461.48,291.35a22,22,0,0,1,19.77-8.05,22,22,0,0,1,20.4-6.27c12.77,2.6,15.69,46.93-5.37,48.44C479,337.63,453.23,301.44,461.48,291.35Z"/><path class="cls-13" d="M461.48,291.35a22,22,0,0,1,19.77-8.05,22,22,0,0,1,20.4-6.27c12.77,2.6,15.69,46.93-5.37,48.44C479,337.63,453.23,301.44,461.48,291.35Z"/><path class="cls-1" d="M497.42,324.89l1.41.5-1.18.14.06.61-.9-.14-.29.67-.59-.31-.45.68-.35-.6-.8.75.39-1.33A5.32,5.32,0,0,1,497.42,324.89Z"/><path class="cls-1" d="M534.75,283.18s2.93-5.27,11.65-4.56c.31-1.52-2.19-3.13-2.19-3.13S534.54,277.72,534.75,283.18Z"/><path class="cls-10" d="M520.05,266.63a22,22,0,0,1,15.74,14.42,22,22,0,0,1,14.42,15.74c3.12,12.65-35.68,34.3-46.07,15.91C485.76,302.31,507.4,263.51,520.05,266.63Z"/><path class="cls-12" d="M520.05,266.63a22,22,0,0,1,15.74,14.42,22,22,0,0,1,14.42,15.74c3.12,12.65-35.68,34.3-46.07,15.91C485.76,302.31,507.4,263.51,520.05,266.63Z"/><path class="cls-1" d="M505.15,313.49l.16,1.48-.63-1-.53.32-.26-.87-.73,0,0-.68-.81-.11.39-.57-1-.41,1.37-.21A5.35,5.35,0,0,1,505.15,313.49Z"/><path class="cls-1" d="M379,279.14s2.93-5.27,11.64-4.56c.31-1.52-2.18-3.13-2.18-3.13S378.8,273.68,379,279.14Z"/><path class="cls-10" d="M364.31,262.59A22,22,0,0,1,380.05,277a22,22,0,0,1,14.42,15.75c3.12,12.64-35.68,34.29-46.07,15.9C330,298.27,351.66,259.47,364.31,262.59Z"/><path class="cls-12" d="M364.31,262.59A22,22,0,0,1,380.05,277a22,22,0,0,1,14.42,15.75c3.12,12.64-35.68,34.29-46.07,15.9C330,298.27,351.66,259.47,364.31,262.59Z"/><path class="cls-1" d="M349.41,309.45l.16,1.48-.64-1-.52.31-.26-.87-.73,0,0-.67-.81-.11L347,308l-1-.4,1.37-.22A5.35,5.35,0,0,1,349.41,309.45Z"/><path class="cls-1" d="M418.5,323.35s-6.46-5.11-3.58-16.69c-2-.75-4.7,2.26-4.7,2.26S411.1,322.42,418.5,323.35Z"/><path class="cls-10" d="M393,339.5a30,30,0,0,1,22.87-18,30,30,0,0,1,24.37-15.94c17.72-1.43,38.33,55.57,11.29,65.52C433.47,393.52,386,355.84,393,339.5Z"/><path class="cls-11" d="M393,339.5a30,30,0,0,1,22.87-18,30,30,0,0,1,24.37-15.94c17.72-1.43,38.33,55.57,11.29,65.52C433.47,393.52,386,355.84,393,339.5Z"/><path class="cls-1" d="M452.79,369.86l2,.12-1.5.63.31.78-1.23.16-.12,1-.9-.18-.32,1.06-.7-.66L449.6,374v-1.89A7.37,7.37,0,0,1,452.79,369.86Z"/><path class="cls-1" d="M485.93,301.07s1.85-8,13.54-10.38c-.17-2.12-4.05-3.28-4.05-3.28S483.6,294,485.93,301.07Z"/><path class="cls-10" d="M460.4,284.94a30,30,0,0,1,26.09,12.94,30,30,0,0,1,24.85,15.18c8.88,15.4-33.78,58.45-54.36,38.28C429,344.67,442.64,285.63,460.4,284.94Z"/><path class="cls-12" d="M460.4,284.94a30,30,0,0,1,26.09,12.94,30,30,0,0,1,24.85,15.18c8.88,15.4-33.78,58.45-54.36,38.28C429,344.67,442.64,285.63,460.4,284.94Z"/><path class="cls-1" d="M458.6,352l.77,1.89-1.21-1.09-.57.61-.67-1-.94.31-.23-.89-1.09.16.29-.9-1.49-.14,1.72-.8A7.28,7.28,0,0,1,458.6,352Z"/><path class="cls-1" d="M383.79,304.9s4.78-6.7-1.19-17c1.7-1.28,5.14.86,5.14.86S390.65,302,383.79,304.9Z"/><path class="cls-10" d="M412.79,313.34a30.06,30.06,0,0,0-27-11A30.05,30.05,0,0,0,358,293.8c-17.41,3.55-21.4,64,7.34,66.09C388.87,376.47,424,327.11,412.79,313.34Z"/><path class="cls-13" d="M412.79,313.34a30.06,30.06,0,0,0-27-11A30.05,30.05,0,0,0,358,293.8c-17.41,3.55-21.4,64,7.34,66.09C388.87,376.47,424,327.11,412.79,313.34Z"/><path class="cls-1" d="M363.75,359.1l-1.93.68,1.62.19-.08.83,1.22-.19.39.91.81-.42.61.93.49-.82,1.09,1-.54-1.82A7.31,7.31,0,0,0,363.75,359.1Z"/><path class="cls-1" d="M312.82,302.2s-4-7.2-15.89-6.23c-.42-2.07,3-4.27,3-4.27S313.1,294.74,312.82,302.2Z"/><path class="cls-10" d="M332.88,279.62a30,30,0,0,0-21.48,19.66,30,30,0,0,0-19.67,21.49c-4.26,17.25,48.67,46.78,62.85,21.7C379.66,328.29,350.14,275.36,332.88,279.62Z"/><path class="cls-12" d="M332.88,279.62a30,30,0,0,0-21.48,19.66,30,30,0,0,0-19.67,21.49c-4.26,17.25,48.67,46.78,62.85,21.7C379.66,328.29,350.14,275.36,332.88,279.62Z"/><path class="cls-1" d="M353.2,343.54l-.21,2,.86-1.38.72.43.35-1.19,1,0,0-.92,1.1-.15-.53-.79,1.39-.54-1.87-.3A7.34,7.34,0,0,0,353.2,343.54Z"/><path class="cls-14" d="M286.64,309.8V466.33H556.07V309.8Zm149.29,34.4a12.29,12.29,0,0,1-9,3.95H370.23c-7,0-12.69-6-12.69-13.45a13.63,13.63,0,0,1,3.73-9.5,12.17,12.17,0,0,1,9-3.95H427c7,0,12.7,6,12.7,13.45A13.65,13.65,0,0,1,435.93,344.2Z"/><rect class="cls-15" x="510.55" y="309.79" width="45.53" height="156.53"/><path class="cls-6" d="M612.48,234.51c1.86,2.83,3.21,5,4.73,7.51s2.83,4.87,4.21,7.32q4.08,7.33,7.85,14.81A314.33,314.33,0,0,1,642.68,295q2.94,7.94,5.5,16.12t4.44,16.67A184.82,184.82,0,0,1,657.45,363l.06,1.23v1.91c0,1.27-.08,2.54-.18,3.8a44,44,0,0,1-1.34,7.35,45.8,45.8,0,0,1-5.5,12.46,66.43,66.43,0,0,1-15,16.34,103.61,103.61,0,0,1-15.76,10.37A168.68,168.68,0,0,1,604,424a249.94,249.94,0,0,1-31.84,10.57A270.49,270.49,0,0,1,539.7,441a11.51,11.51,0,0,1-5.91-22l.41-.16c18.6-7.69,37.7-16.15,54.29-26,8.27-4.86,16-10.4,21.53-15.91a25.74,25.74,0,0,0,5.55-7.49,5.37,5.37,0,0,0,.53-2.08,1,1,0,0,0-.1-.43c0-.05,0-.1-.08-.14s0,0,0-.06l-.1-.75c-2.2-17.76-8.22-36.18-15.69-54.16-3.82-9-8-17.93-12.44-26.74q-3.31-6.63-6.9-13.11l-3.62-6.4c-1.15-2-2.5-4.37-3.46-6l-.29-.47a23.09,23.09,0,0,1,39.09-24.57Z"/><path class="cls-5" d="M577.51,195c50.5,10.24,67.36,73.42,67.36,73.42L585,315.77s-16.12-15.36-22.52-52.92C559.4,244.92,567.39,195,577.51,195Z"/><path class="cls-6" d="M542.92,417.29l-30.28-5.82,3.48,36.82s28,1.94,31.5-12.8Z"/><path class="cls-6" d="M486,429.23l3.4,12.7a10.69,10.69,0,0,0,11.37,7.87l15.36-1.51-3.48-36.82-18.87,4.62A10.7,10.7,0,0,0,486,429.23Z"/></g></svg>