<svg xmlns="http://www.w3.org/2000/svg" viewBox="0 0 222.13 222.13"><defs><style>.cls-1{fill:#699ff0;}.cls-2{fill:#0c3563;}</style></defs><title>Artboard 12</title><g id="Layer_4" data-name="Layer 4"><path class="cls-1" d="M158.5,105.22a3.84,3.84,0,0,0-2.46,0l-6.09,2h14.64Z"/><path class="cls-1" d="M157.27,204.73c7.27-3.51,38.5-20.32,38.5-49.38V125.94l-38.5-13-38.51,13v29.41C118.76,184.49,150,201.23,157.27,204.73Z"/><path class="cls-1" d="M111.06,123.17v32.18c0,37.87,42.88,56.4,44.71,57.18a3.9,3.9,0,0,0,1.5.3,3.85,3.85,0,0,0,1.49-.3c1.83-.78,44.71-19.31,44.71-57.18V123.17a3.83,3.83,0,0,0-2.62-3.65l-36.26-12.25H150l-36.27,12.25A3.85,3.85,0,0,0,111.06,123.17Zm7.7,2.77,38.51-13,38.5,13v29.41c0,29.06-31.23,45.87-38.5,49.38-7.28-3.5-38.51-20.24-38.51-49.38Z"/><path class="cls-2" d="M157.27,212.83a3.9,3.9,0,0,1-1.5-.3c-1.83-.78-44.71-19.31-44.71-57.18V123.17a3.85,3.85,0,0,1,2.62-3.65L156,105.22a3.84,3.84,0,0,1,2.46,0l42.35,14.3a3.83,3.83,0,0,1,2.62,3.65v32.18c0,37.87-42.88,56.4-44.71,57.18a3.85,3.85,0,0,1-1.49.3Zm-38.51-86.89v29.41c0,29.14,31.23,45.88,38.51,49.38,7.27-3.51,38.5-20.32,38.5-49.38V125.94l-38.5-13Z"/><path class="cls-2" d="M153.42,174.32h-.21a3.81,3.81,0,0,1-2.8-1.44L135,153.62a3.85,3.85,0,0,1,6-4.81l12.7,15.89,23.91-23.91a3.85,3.85,0,1,1,5.45,5.45l-27,26.95a3.87,3.87,0,0,1-2.72,1.13Z"/><path class="cls-2" d="M161.12,89.61H45.61a27,27,0,0,1,0-53.9H161.12a27,27,0,0,1,0,53.9ZM45.61,43.41a19.25,19.25,0,0,0,0,38.5H161.12a19.25,19.25,0,0,0,0-38.5Z"/><circle class="cls-1" cx="53.31" cy="61.49" r="8.86"/><circle class="cls-1" cx="92.88" cy="62.66" r="8.86"/><circle class="cls-1" cx="53.31" cy="108.87" r="8.86"/><circle class="cls-1" cx="91.81" cy="108.87" r="8.86"/><circle class="cls-1" cx="53.31" cy="155.07" r="8.86"/><circle class="cls-1" cx="92.88" cy="155.07" r="8.86"/><path class="cls-2" d="M53.31,74.21A11.55,11.55,0,1,1,64.86,62.66,11.56,11.56,0,0,1,53.31,74.21Zm0-15.4a3.85,3.85,0,1,0,3.85,3.85A3.86,3.86,0,0,0,53.31,58.81Z"/><path class="cls-2" d="M91.81,74.21a11.55,11.55,0,1,1,11.55-11.55A11.56,11.56,0,0,1,91.81,74.21Zm0-15.4a3.85,3.85,0,1,0,3.85,3.85A3.86,3.86,0,0,0,91.81,58.81Z"/><path class="cls-2" d="M91.81,135.82H45.61a27,27,0,0,1,0-53.91H161.12a26.46,26.46,0,0,1,16.39,5.59,3.85,3.85,0,0,1-4.74,6.08,18.78,18.78,0,0,0-11.65-4H45.61a19.26,19.26,0,0,0,0,38.51h46.2a3.85,3.85,0,1,1,0,7.7Z"/><path class="cls-2" d="M53.31,120.42a11.55,11.55,0,1,1,11.55-11.55A11.57,11.57,0,0,1,53.31,120.42Zm0-15.4a3.85,3.85,0,1,0,3.85,3.85A3.86,3.86,0,0,0,53.31,105Z"/><path class="cls-2" d="M91.81,120.42a11.55,11.55,0,1,1,11.55-11.55A11.57,11.57,0,0,1,91.81,120.42Zm0-15.4a3.85,3.85,0,1,0,3.85,3.85A3.86,3.86,0,0,0,91.81,105Z"/><path class="cls-2" d="M91.81,182H45.61a27,27,0,0,1,0-53.9h46.2a3.85,3.85,0,1,1,0,7.7H45.61a19.25,19.25,0,0,0,0,38.5h46.2a3.85,3.85,0,1,1,0,7.7Z"/><path class="cls-2" d="M53.31,166.62a11.55,11.55,0,1,1,11.55-11.55A11.56,11.56,0,0,1,53.31,166.62Zm0-15.4a3.85,3.85,0,1,0,3.85,3.85A3.86,3.86,0,0,0,53.31,151.22Z"/><path class="cls-2" d="M91.81,166.62a11.55,11.55,0,1,1,11.55-11.55A11.56,11.56,0,0,1,91.81,166.62Zm0-15.4a3.85,3.85,0,1,0,3.85,3.85A3.86,3.86,0,0,0,91.81,151.22Z"/></g></svg>