<svg xmlns="http://www.w3.org/2000/svg" viewBox="0 0 1311.32 297.8"><defs><style>.cls-1{fill:#fff;}</style></defs><title>logo-white</title><g id="Layer_3" data-name="Layer 3"><path class="cls-1" d="M554.64,207.4h-32l-28.87-49.78H477.47V207.4H450.08V70.64h52.37q22.77,0,34.79,12.58t12,30.73a43.6,43.6,0,0,1-7.12,24.52Q535,149.29,521.51,154.1ZM502.27,96h-24.8v37h22.39q10.36,0,15.82-5.18a17.79,17.79,0,0,0,5.46-13.51,17.94,17.94,0,0,0-5.09-13.14Q511,96,502.27,96Z"/><path class="cls-1" d="M563,156.88q0-22.4,15.17-37.57Q593.5,103.77,617,103.77t38.86,15.54q15.18,15.18,15.18,37.57,0,22.59-15.18,37.75Q640.51,210,617,210t-38.87-15.37Q563,179.47,563,156.88Zm34,20.54a27.92,27.92,0,0,0,39.79,0A29,29,0,0,0,645,156.88a28.44,28.44,0,0,0-8.14-20.36,27.95,27.95,0,0,0-39.79,0q-7.95,8.14-8,20.36A29,29,0,0,0,597,177.42Z"/><path class="cls-1" d="M776.91,130.42v-22h7.21v91.24q0,23.13-13.5,36.46Q757.29,249.41,734,249.42a68.1,68.1,0,0,1-42-14.07l4.07-5.92q18,13.14,38.13,13.14,20,0,31.27-11.38t11.29-31.56V183a45.57,45.57,0,0,1-16.93,18.23,46.32,46.32,0,0,1-24.52,6.56q-21.1,0-35.17-14.62-13.87-14.61-13.88-36.27,0-21.28,13.88-36.09a46.66,46.66,0,0,1,35-14.8,47.3,47.3,0,0,1,24.71,6.57A45.79,45.79,0,0,1,776.91,130.42Zm-42,70.51q18.5,0,30.35-13,12.21-13.14,12.21-31.64t-12.21-30.91q-12-12.58-30.35-12.58-18,0-29.61,12.58-11.67,12.4-11.66,31.46,0,18.69,11.66,31.46Q716.95,200.93,734.9,200.93Z"/><path class="cls-1" d="M823,207.4h-7.4v-99h6.84v16.66q8.15-19.24,28.87-19.25a41,41,0,0,1,12.59,1.85l-1.11,6.67A33.76,33.76,0,0,0,852,112.65q-14.81,0-22,10.55-7,10.74-7,25.72Z"/><path class="cls-1" d="M866.48,157.81q0-22,14.62-36.83,14.8-15,36.64-15t36.65,15Q969,135.79,969,157.81q0,22.2-14.62,37-14.8,15-36.65,15t-36.64-15Q866.48,180,866.48,157.81Zm19.8,32.2q12.4,13,31.46,13t31.47-13q12.39-13,12.4-32.2,0-19.44-12.4-32-12.4-12.95-31.47-13t-31.46,13q-12.39,12.58-12.4,32Q873.88,177.05,886.28,190Z"/><path class="cls-1" d="M1018.79,207.22h-3.7l-35.72-98.83h7.78l29.79,85.5,30.91-85.5,4.63.19,30.9,85.31,29.8-85.5H1121l-35.72,98.83h-3.7l-31.46-88.09Z"/><path class="cls-1" d="M251.22,95.91l25.59,61.15a20.54,20.54,0,0,0,18.94,12.6h76.14a14.41,14.41,0,0,0,13.35-9L410.9,97.87A14.42,14.42,0,0,0,397.77,78l-133-2.08A14.43,14.43,0,0,0,251.22,95.91Z"/><circle class="cls-1" cx="292.52" cy="227.52" r="15.24"/><circle class="cls-1" cx="362" cy="227.52" r="15.24"/><path class="cls-1" d="M382.73,180l-108.51-.78a3.17,3.17,0,0,1-2.87-1.88l-35.5-79.69a11,11,0,0,0-10.09-6.56H171.58a11.06,11.06,0,0,0-11.05,11.43,11.24,11.24,0,0,0,11.34,10.68h42.26a6.85,6.85,0,0,1,6.26,4.06l.23.52A9.48,9.48,0,0,1,212,131.12H193.81a8.44,8.44,0,0,0-8.46,7.35,8.29,8.29,0,0,0,8.24,9.23h37a5.22,5.22,0,0,1,4.77,3.1l.71,1.59a4.71,4.71,0,0,1-4.31,6.63H220.05a8.44,8.44,0,0,0-8.46,7.35,8.29,8.29,0,0,0,8.24,9.23H240.9a8.42,8.42,0,0,1,7.7,5l6.28,14.1a11.09,11.09,0,0,0,10,6.56l117.67.84h.08a11.05,11.05,0,0,0,.08-22.1Z"/></g></svg>