<svg xmlns="http://www.w3.org/2000/svg" viewBox="0 0 210.99 222.54"><defs><style>.cls-1{fill:#f7c87c;}.cls-2{fill:#699ff0;}</style></defs><title>rogrow-icon</title><g id="Layer_3" data-name="Layer 3"><path class="cls-1" d="M77.6,76.16l18.53,44.26a14.85,14.85,0,0,0,13.7,9.12h55.1a10.43,10.43,0,0,0,9.66-6.5l18.57-45.45a10.44,10.44,0,0,0-9.5-14.39L87.4,61.7A10.44,10.44,0,0,0,77.6,76.16Z"/><circle class="cls-1" cx="107.49" cy="171.41" r="11.03"/><circle class="cls-1" cx="157.77" cy="171.41" r="11.03"/><path class="cls-2" d="M172.77,137l-78.52-.57a2.31,2.31,0,0,1-2.08-1.36L66.49,77.42a8,8,0,0,0-7.31-4.74H20A8,8,0,0,0,12,81a8.14,8.14,0,0,0,8.21,7.73H50.77a5,5,0,0,1,4.53,2.94l.16.37a6.86,6.86,0,0,1-6.27,9.66H36.06A6.1,6.1,0,0,0,29.94,107a6,6,0,0,0,6,6.68H62.66a3.79,3.79,0,0,1,3.45,2.24l.51,1.16a3.41,3.41,0,0,1-3.12,4.8H55.05a6.1,6.1,0,0,0-6.12,5.31,6,6,0,0,0,6,6.68H70.14a6.1,6.1,0,0,1,5.57,3.62l4.55,10.21a8,8,0,0,0,7.25,4.74l85.15.61h.05a8,8,0,0,0,.06-16Z"/></g></svg>