<svg xmlns="http://www.w3.org/2000/svg" viewBox="0 0 994.83 1171.95"><defs><style>.cls-1{fill:#2c3a64;}.cls-2{fill:#ffb27d;}.cls-3{fill:#f7b284;}.cls-4{fill:#e8a070;}.cls-5{fill:#efa97a;}.cls-6{fill:#a8d29f;}.cls-7{fill:#82b378;}.cls-8{fill:#ed7d2b;}.cls-9{fill:#ffb93e;}.cls-10{fill:#ffa412;}.cls-11{fill:#d1f2c9;}.cls-12{fill:#95c38b;}.cls-13{fill:#db6f26;}.cls-14{fill:#fcecdb;}.cls-15{fill:#f9ddbf;}.cls-16{fill:#2b478b;}.cls-17{fill:#233862;}.cls-18{fill:#ed985f;}.cls-19{fill:#ff9843;}.cls-20{fill:#fff;}.cls-21{fill:#f99746;}.cls-22{fill:#efcbab;}.cls-23{fill:#cca07f;}</style></defs><title>user</title><g id="Слой_1" data-name="Слой 1"><path class="cls-1" d="M184.34,150.17c-.28-1.55-3.92-18.14-29.58-15.31,0,0,12.77-.32,15.75,4.88,0,0-9.54-5.58-16.19-2.37s-9,16-8.42,20,6.29,16.39,10.87,16.85a13.74,13.74,0,0,0,5.35-.77,59.58,59.58,0,0,0-2.54,6.62c-7.16,22.39,6.32,41.3,14.61,37.79,5.33-2.25,8.26,7,8.26,7l47.43-51.3S204.21,135.55,184.34,150.17Z"/><path class="cls-2" d="M376.47,393.32s-11.87-7.49-19.23-6.18c-1.53-.55-4.79-1.84-4-2.59,1.07-1,3.91-3.79,3.62-4.65s-3.13,1.43-7.26,2.14-5.26,1.56-6.26,3.13-4.59,2.24-4.59,2.24h0c-2.1-.24-3.87-.5-5-.66-3.49-1.46-8.21-3.47-13.4-5.76-14.91-6.67-33.65-15.62-37.75-20.16-9.49-10.59-20.84-46.06-31.53-69.48-.54-1.26-1.1-2.49-1.65-3.69-.4-.88-.81-1.75-1.21-2.6a2.67,2.67,0,0,0-.34-.61c-.53-1-1-1.84-1.4-2.62,0-.09-.09-.17-.17-.27a76.35,76.35,0,0,0-6-9c-2.36-2.54-4.62-3.59-6.72-2.72a27.75,27.75,0,0,0-6.15,4.72c-.71.69-1.43,1.47-2.16,2.33a6.64,6.64,0,0,0-1.23,1.48,36.52,36.52,0,0,0-6.48,12.91,44.89,44.89,0,0,0-1.52,14.31c.33,9,4.75,20.26,11.1,31.62a12.86,12.86,0,0,0,.87,1.57c12.17,21.42,30.89,42.85,42.3,49.86,7.5,4.64,26.35,7.48,42.24,9.09,6.72.74,12.93,1.23,17.56,1.55l1.27.18a166.56,166.56,0,0,1,20,4.87c10.95,3.61,17.23-3.77,21.86-6.05S376.47,393.32,376.47,393.32Z"/><path class="cls-3" d="M621.7,221.44,600.86,443l-24,255.49c-5,53.07-52.49,92.4-105.56,87.4s-92.4-52.49-87.41-105.55l13.85-147.28,31-329.8c5-53.06,54.78-116.74,107.84-111.74C536.58,91.54,624.43,110,621.7,221.44Z"/><path class="cls-4" d="M450.78,271.14s33.69-46.79,143.28-58C594.06,213.12,551.85,277.2,450.78,271.14Z"/><path class="cls-4" d="M430.43,358.22S470.06,303.18,599,290C599,290,549.34,365.35,430.43,358.22Z"/><path class="cls-4" d="M422.59,441.6s39.63-55.05,168.56-68.26C591.15,373.34,541.5,448.73,422.59,441.6Z"/><path class="cls-4" d="M473.78,190.55s23.63-32.81,100.47-40.68C574.25,149.87,544.66,194.8,473.78,190.55Z"/><path class="cls-5" d="M600.86,443l-24,255.49c-5,53.07-52.49,92.4-105.56,87.4s-92.4-52.49-87.41-105.55l13.85-147.28c13.91-12.38,30-20,48.3-19.29C511.44,516.34,574.79,466.15,600.86,443Z"/><path class="cls-6" d="M683.81,386.67c0,1-.09,1.52-.09,1.52s-.16-.51-.48-1.47c-2.59-8-15.29-47.55-26.84-91.57-16-60.91-29.77-130.39-11.62-136.82,34.37-12.17,40.71,85.14,40.8,156.95C685.65,350.65,684.18,379.83,683.81,386.67Z"/><path class="cls-6" d="M717.45,307.59c-12.42,27.56-23.2,50.74-29.39,64.62-2.69,6.06-4.51,10.34-5.21,12.45.6-3.43,2.22-12.64,4.54-25.73v0c3.47-19.62,8.51-48,14-78.74,13.43-74.81,29.78-163.94,33.6-176.69,6.73-22.48,37.76-70.33,58.64-28.69C807.24,101.84,754.88,224.54,717.45,307.59Z"/><path class="cls-6" d="M720,346.9c-12.84,13.56-23.63,24.54-29.66,30.61-3.29,3.33-5.16,5.18-5.16,5.18s3.29-7,8.88-18.2c5.3-10.57,12.65-24.87,21.24-40.53,28.15-51.3,69.6-117,95.31-113.25C839.89,215,766.48,297.79,720,346.9Z"/><path class="cls-7" d="M683.81,386.67l-.57.05c-2.59-8-15.29-47.55-26.84-91.57,5.39,8.07,15.13,18.89,29.18,20.13C685.65,350.65,684.18,379.83,683.81,386.67Z"/><path class="cls-7" d="M717.45,307.59c-12.42,27.56-23.2,50.74-29.39,64.62a112.67,112.67,0,0,1-.67-13.28v0c3.47-19.62,8.51-48,14-78.74C703.59,290.91,708.1,302.82,717.45,307.59Z"/><path class="cls-7" d="M720,346.9c-12.84,13.56-23.63,24.54-29.66,30.61a83.12,83.12,0,0,1,3.72-13c5.3-10.57,12.65-24.87,21.24-40.53C715.45,330.52,716.38,340.3,720,346.9Z"/><path class="cls-6" d="M682.84,384.67l-.26,1.47C682.45,386.07,682.54,385.57,682.84,384.67Z"/><path class="cls-8" d="M700.08,483.59c-21.54,61-48.35,127.54-48.35,127.54L591.15,593s7.09-45.19,17.5-95.47c12.14-58.63,28.79-124.2,44-133.17a49,49,0,0,1,21.5-6.73,51.57,51.57,0,0,1,10.84.32c.85.11,1.68.24,2.52.38a57.32,57.32,0,0,1,6.18,1.47q1.19.33,2.34.75a57.8,57.8,0,0,1,7.75,3.25c10.48,5.34,18.71,13.45,22.24,22S716.36,437.49,700.08,483.59Z"/><path class="cls-9" d="M696.89,542.23c-8.81,49.49-6,102,8.3,156.43a31.25,31.25,0,0,0,28.65,23.18c9.15-1.36,24.82-20.58,32.11-43.29a80.13,80.13,0,0,0,3.8-19.23c3.33-50.59,14-112.47,33.49-146.1,19.89-34.39,47.37-76,88.77-107.88h0c4-3.12,95.53-92.16,95.53-92.16,8.63-12.2-5.13-22.52-5.13-22.52s-8.49,9.9-35.66,31.18-82,8.75-82,8.75A50.09,50.09,0,0,0,819,340a370.18,370.18,0,0,0-70.09,76.36C722.37,455.06,704.89,497.42,696.89,542.23Z"/><path class="cls-10" d="M769.75,659.32c3.33-50.59,14-112.47,33.49-146.1,19.89-34.39,47.37-76,88.77-107.88h0c.7-.69,28-27.52-8.73-43C847.4,347.12,733.72,514.76,766,678.55A80.13,80.13,0,0,0,769.75,659.32Z"/><path class="cls-6" d="M448.49,502.28a110.48,110.48,0,0,1-15.67,19.26c-23.4,23.05-60.12,40.14-107.39,39.69,0,0-19.85-18.91-29.47-43h0c-6.67-16.69-11.54-41.28,0-59.53a45.9,45.9,0,0,1,26.69-20.26c16.47-5,33.3-2.43,40.66-9.76a73,73,0,0,1,28.92-17.06q2.77-.9,5.63-1.55h0c.79-.19,1.57-.36,2.37-.51h.05c17.48-3.41,36.15-.07,49.13,15.51a55.6,55.6,0,0,1,8.07,13.23C465.81,457,462.23,480.7,448.49,502.28Z"/><path class="cls-11" d="M311,456s-15.6,12.25-10.82,25.8,17.11,7.29,21-2.1S321.25,451.44,311,456Z"/><path class="cls-12" d="M449.42,425.06a55.6,55.6,0,0,1,8.07,13.23c8.32,18.69,19.74,68.28,6,89.87L445.05,545c-23.4,23.05-72.35,16.65-119.62,16.2,0,0-19.84-18.92-29.47-43h0s58.48,23.14,113.55-25.16C434.53,471.13,445.21,446,449.42,425.06Z"/><path class="cls-6" d="M360.23,400.4c-9.65-5.75-19.42,2.32-30.75,6.76s-33.16,4.35-33.16,4.35A158.27,158.27,0,0,1,320,385.75C334.71,372.92,360.23,400.4,360.23,400.4Z"/><path class="cls-7" d="M360.23,400.4c-9.07-7.45-25.85-11.72-34-8.37s-29.88,19.48-29.88,19.48A158.27,158.27,0,0,1,320,385.75C334.71,372.92,360.23,400.4,360.23,400.4Z"/><path class="cls-12" d="M363.31,428.68a73,73,0,0,1,28.92-17.06C373,418.85,362.31,443.28,355,440.45c-7.85-3.05-31.45-2.05-32.35-2C339.12,433.43,356,436,363.31,428.68Z"/><path class="cls-12" d="M400.24,409.56c-.61.17-1.39.34-2.37.51C398.66,409.88,399.44,409.71,400.24,409.56Z"/><path class="cls-7" d="M356.36,440h0c-6.18-13.66-2.84-30.61,1.05-42.42,3.1-9.4,9-22.09,12-28.12a1.57,1.57,0,0,1,2.91.2l1.18,3.56a12.88,12.88,0,0,1-1.2,10.68c-6,9.88-18,33-12.57,52C360.3,438,357.46,442.4,356.36,440Z"/><path class="cls-13" d="M700.08,483.59c-21.54,61-48.35,127.54-48.35,127.54L591.15,593s7.09-45.19,17.5-95.47l0-.05S621,525.07,650.12,524.5C666.73,524.17,686.31,502.33,700.08,483.59Z"/><path class="cls-14" d="M825.29,521.18l67.93,483.92a99.75,99.75,0,0,1-98.78,113.62H692.08a86.8,86.8,0,0,1-86.29-96.25l57.48-450.15Z"/><path class="cls-14" d="M468.52,521.18s164.66,56.15,356.77,0l-56.6,599.07H410.21Z"/><path class="cls-15" d="M468.52,521.18l67.94,483.92a99.76,99.76,0,0,1-98.79,113.62H335.32a86.82,86.82,0,0,1-86.3-96.25l48.66-501.29s22.76,16.47,81.08,16.47C436.52,537.65,468.52,521.18,468.52,521.18Z"/><path class="cls-15" d="M668.18,723.17A162.06,162.06,0,0,1,642.43,721C570,709.32,547.66,581.53,546.75,576.1l14.37-2.42h0a332.94,332.94,0,0,0,18.93,64c12,28.62,32.89,63.82,64.71,69,36.17,5.84,65.53-1.41,84.88-21,22.93-23.15,31.07-62.06,22.93-109.55l14.37-2.46c8.95,52.26-.61,95.68-26.94,122.27C722.17,713.94,697.64,723.17,668.18,723.17Z"/><path class="cls-15" d="M542.3,575.13a12.75,12.75,0,1,1,12.75,12.76A12.75,12.75,0,0,1,542.3,575.13Z"/><path class="cls-15" d="M747.69,575.13a12.76,12.76,0,1,1,12.76,12.76A12.75,12.75,0,0,1,747.69,575.13Z"/><path class="cls-16" d="M246.13,768.12l-11.54,4.29s-50.1-69.48-56.27-130.62c-1.1-10.91-.73-21.49,1.65-31.26,0,0-.49-2.79-1.35-7.74-.39-2.31-.88-5.08-1.44-8.27-1.63-9.33-3.87-22.1-6.43-36.64-5.9-33.46-13.53-76.23-19.47-107.68l3.11-1L188,438.36,195,416.28l25-6.59s5.59,10.94,10.6,62.64c.92,6.78,1.76,14.25,2.39,22.36a442.81,442.81,0,0,1-2.38,90.55q-1.73,13.47-4.4,27.79c-1.32,7-1.52,16.51-1,27.44C227.78,690.45,246.13,768.12,246.13,768.12Z"/><path class="cls-17" d="M233,494.69l-54.38,108.1c-.39-2.31-.88-5.08-1.44-8.27-1.63-9.33-3.87-22.1-6.43-36.64-5.9-33.46-13.53-76.23-19.47-107.68l3.11-1L188,438.36,195,416.28l25-6.59s5.59,10.94,10.6,62.64C231.53,479.11,232.37,486.58,233,494.69Z"/><path class="cls-16" d="M209.08,423.56l-1.26-10.79c-21.09,5.6-77.44-15.65-77.44-15.65s-20.43,18-17.74,61c1.3,21,3.7,110.3,6.19,136.72.91,9.57,1.7,16.39,2,19.11a0,0,0,0,1,0,0,3.73,3.73,0,0,1-.62,2.34A124.78,124.78,0,0,0,111,635.7C86.51,701,114.8,781.49,114.8,781.49l7.34-3s16.1-89.54,29.18-129.09c2.22-6.71,4.35-12,6.3-15.13,5.69-9.18,11-24.18,15.76-42,9.06-33.73,16.34-77.61,21.2-111.47C195.24,480.85,209.08,423.56,209.08,423.56Z"/><path class="cls-2" d="M227.39,292.56a65.94,65.94,0,0,1-23.22,9.11c-35.6,7.18-48.31-23.09-52.82-43.76a30.45,30.45,0,0,1,12.08-3.34c2.57-.23,5.26-.35,7.49-.4,4.06-2.93,10.33-15.21,12.18-34.5l1.65.49,27.66,8.41s-1.53,8.83-2.39,17.18c-.67,6.54-.92,12.8.28,14.37,2.16.53,3.46.88,3.46.88v0A179.11,179.11,0,0,1,227.39,292.56Z"/><path class="cls-18" d="M212.41,228.58s-1.53,8.82-2.39,17.18c-15.74-2-22.65-17.27-25.27-25.59Z"/><path class="cls-2" d="M216.89,237s-37.42-3.13-35.12-26.4-1-39.35,23-38.34,27.75,10.35,28.87,18.31S226.68,237.24,216.89,237Z"/><path class="cls-1" d="M233.84,177.54c-5.07-7.57-9.59-6.47-12.25-4.61-19.29-13.28-34.11,2-34.11,2a44.67,44.67,0,0,1-17.17,24.81s6.38,4.89,22.49,2.43c4.92-.76,9.54-3.74,13.59-7.51a87.44,87.44,0,0,1-16.83,16.82c19.62-6.79,29.76-32.11,30.78-34.8,2.08,2.28,6.13,7.18,7.06,11.68,1.27,6.11.89,18.39,4.49,18.34C231.89,206.7,241.45,188.91,233.84,177.54Z"/><path class="cls-19" d="M249.47,287.66c-.4-.88-.81-1.75-1.21-2.6a2.67,2.67,0,0,0-.34-.61c-.53-1-1-1.84-1.4-2.62,0-.09-.09-.17-.17-.27a76.35,76.35,0,0,0-6-9,16.28,16.28,0,0,0-4.13-3.52h0s-6.19-4.28-22.41-8c.36.82,10.3,23.6,8.66,29s-49.93-4.46-53-7.83c-2.46-2.73-4.83-18.86-5.65-25.06-.27-1.55-.36-2.55-.36-2.55s-17.41.18-26.52,5.47a76.35,76.35,0,0,1,7.75,16.58c.27.91.45,1.73.73,2.55.36,1.82.72,3.65.91,5.47.18,2.37-.73,4.65-2.37,7a55.84,55.84,0,0,1-6.11,6.75c-1.55,1.55-3.28,3.19-5,4.92.46,3.82,1.19,8.38,1.92,13.66a299.91,299.91,0,0,1,3.46,33.71,32.41,32.41,0,0,1-2.64,14,26.3,26.3,0,0,1-2.74,5c-8.47,12.84-23,38.08-17.13,51.56.55,3.28,8.2,5.84,19.23,7.57,32.89,5.28,96.39,3.28,93-7.38,0,0,5-83.55,11.3-104.42.18-.72.36-1.54.55-2.27,1.61-7.4.41-14.56-1.33-21C241.65,290.74,246.44,288.72,249.47,287.66Z"/><path class="cls-8" d="M155,374.27c-4.46,10.66-9.2,37.18-20.13,54.58-11-1.73-18.68-4.29-19.23-7.56-5.92-13.49,8.66-38.73,17.13-51.57a26.3,26.3,0,0,0,2.74-5,32.41,32.41,0,0,0,2.64-14A299.91,299.91,0,0,0,134.73,317c1.91-4,3-6.28,3-6.28S162.15,357.14,155,374.27Z"/><path class="cls-17" d="M157.48,787.48H99.39S98,778.63,101,771.91c2.91-6.44,7.46-9.37,6.37-17.17,3.69,3.8,9.71,8,18.11,6.93,1,1.66,6.64,10.59,10.08,13.06C139.39,777.46,156.31,776.49,157.48,787.48Z"/><path class="cls-17" d="M282.22,787.48H224.13s-2.17-9.26,1.64-15.57c3.38-5.58,2.08-8.76-.42-13.37a22.47,22.47,0,0,0,9.79,1.84,20.41,20.41,0,0,0,8.64-3c2.5,2.85,13.2,15,16.55,17.39C264.13,777.46,281.05,776.49,282.22,787.48Z"/><path class="cls-20" d="M208,223.57s.53,3.08,8.11,3.09c0,0,6.37,0,6.38-3.34C222.45,223.32,216.45,220.55,208,223.57Z"/><path class="cls-2" d="M126.2,442.41C119.42,433.47,88.84,392,87,381.47c-3.21-12.21-.3-25.49,7.22-49.56,1-3.33,2.14-6.61,3.18-9.81a236.85,236.85,0,0,1,13.32-32,93.14,93.14,0,0,1,8.18-13.72,40.26,40.26,0,0,1,2.75-3.5c.52-.62,1-1.22,1.54-1.79,5.8.31,18,2.23,27.34,12.36-.14.55-.28,1.1-.43,1.67C146.86,297,115,368.36,114.32,372.64c-.47,2.78,15.22,49.66,20.14,62.26C136.47,440.16,126.2,442.41,126.2,442.41Z"/><path class="cls-19" d="M142.65,310.67C134.49,289.6,112.28,284,112.28,284c22.4-33.33,37.5-25.29,37.5-25.29C155,260.32,161.25,301.75,142.65,310.67Z"/><rect class="cls-21" x="37.84" y="787.48" width="274.97" height="32.77" rx="8.29"/><path class="cls-22" d="M104.47,820.25l-3.26,19.18L53.92,1117a2.33,2.33,0,0,1-2.47,1.7c-2.43,0-4.32-1.61-4.06-3.46L84.89,831l1.42-10.74Z"/><path class="cls-23" d="M104.47,820.25l-3.26,19.18C99,831.79,84.89,831,84.89,831l1.42-10.74Z"/><path class="cls-22" d="M299.19,1118.72a2.33,2.33,0,0,1-2.47-1.7L249.44,839.43l-2-12-1.23-7.22h18.16L265.75,831l1.11,8.43,36.39,275.84C303.51,1117.11,301.62,1118.72,299.19,1118.72Z"/><path class="cls-23" d="M266.86,839.42c-4.62-9.14-19.46-11.95-19.46-11.95h0l-1.23-7.22h18.16L265.75,831Z"/><path class="cls-2" d="M134.46,434.9a74.17,74.17,0,0,0,6.91,2.94c2.28.72,4.7,4.56,7.4,6.41s2.14,3,.72,2.85-5.73-2.56-6.92-2.42,5.49,8,10.05,10.25,4.27,3.13.57,4.41-14.24.43-17.94-3.56-9-13.37-9-13.37Z"/></g></svg>