<svg xmlns="http://www.w3.org/2000/svg" viewBox="0 0 222.13 222.13"><defs><style>.cls-1{fill:#0c3563;}.cls-2{fill:#699ff0;}</style></defs><title>backend</title><g id="Layer_4" data-name="Layer 4"><path class="cls-1" d="M117.47,213.14H104.66a18.81,18.81,0,0,1-18.8-18.79V190a82,82,0,0,1-12.8-5.31L70,187.77a18.79,18.79,0,0,1-26.58,0l-9.06-9.05a18.81,18.81,0,0,1,0-26.59l3.07-3.07a82.26,82.26,0,0,1-5.32-12.8H27.78A18.82,18.82,0,0,1,9,117.47V104.66a18.82,18.82,0,0,1,18.8-18.8h4.33a83.07,83.07,0,0,1,5.32-12.8L34.35,70a18.79,18.79,0,0,1,0-26.58l9-9.06a18.79,18.79,0,0,1,26.58,0l3.07,3.07a83.07,83.07,0,0,1,12.8-5.32V27.78A18.82,18.82,0,0,1,104.66,9h12.81a18.82,18.82,0,0,1,18.79,18.8v4.33a82.26,82.26,0,0,1,12.8,5.32l3.08-3.08a18.79,18.79,0,0,1,26.58,0l9.05,9a18.79,18.79,0,0,1,0,26.58l-3.07,3.07A82,82,0,0,1,190,85.86h4.34a18.81,18.81,0,0,1,18.79,18.8v12.81a18.81,18.81,0,0,1-18.79,18.79H190a81.25,81.25,0,0,1-5.31,12.8l3.07,3.08a18.79,18.79,0,0,1,0,26.58l-9.06,9.05a18.78,18.78,0,0,1-26.58,0l-3.07-3.07a82.26,82.26,0,0,1-12.8,5.32v4.33A18.81,18.81,0,0,1,117.47,213.14Zm-42.41-41a70.82,70.82,0,0,0,18.28,7.59,6,6,0,0,1,4.49,5.79v8.83a6.83,6.83,0,0,0,6.83,6.83h12.81a6.83,6.83,0,0,0,6.83-6.83v-8.83a6,6,0,0,1,4.49-5.79,70.61,70.61,0,0,0,18.27-7.59,6,6,0,0,1,7.28.92l6.25,6.26a6.84,6.84,0,0,0,9.66,0l9.07-9.06a6.84,6.84,0,0,0,0-9.66l-6.26-6.26a6,6,0,0,1-.92-7.28,70.61,70.61,0,0,0,7.59-18.27,6,6,0,0,1,5.79-4.49h8.83a6.83,6.83,0,0,0,6.83-6.83V104.66a6.83,6.83,0,0,0-6.83-6.83h-8.83a6,6,0,0,1-5.79-4.49,70.82,70.82,0,0,0-7.59-18.28,6,6,0,0,1,.92-7.27l6.26-6.26a6.84,6.84,0,0,0,0-9.66l-9.06-9.06a6.84,6.84,0,0,0-9.66,0l-6.26,6.26a6,6,0,0,1-7.28.92,70.61,70.61,0,0,0-18.27-7.59,6,6,0,0,1-4.49-5.79V27.78A6.83,6.83,0,0,0,117.47,21H104.66a6.83,6.83,0,0,0-6.83,6.83v8.83a6,6,0,0,1-4.49,5.79A70.82,70.82,0,0,0,75.06,50a6,6,0,0,1-7.27-.92l-6.26-6.26a6.83,6.83,0,0,0-9.66,0l-9.06,9.06a6.84,6.84,0,0,0,0,9.66l6.26,6.26A6,6,0,0,1,50,75.06,70.67,70.67,0,0,0,42.4,93.34a6,6,0,0,1-5.79,4.48H27.78A6.85,6.85,0,0,0,21,104.66v12.81a6.83,6.83,0,0,0,6.83,6.83h8.83a6,6,0,0,1,5.79,4.49A70.61,70.61,0,0,0,50,147.06a6,6,0,0,1-.92,7.28l-6.26,6.25a6.84,6.84,0,0,0,0,9.66l9.06,9.07a6.84,6.84,0,0,0,9.66,0l6.26-6.26a6,6,0,0,1,7.27-.92Z"/><path class="cls-1" d="M194.35,85.86H190a82,82,0,0,0-5.31-12.8L187.77,70a18.79,18.79,0,0,0,0-26.58l-9.05-9a18.79,18.79,0,0,0-26.58,0l-3.08,3.08a82.26,82.26,0,0,0-12.8-5.32V27.78A18.82,18.82,0,0,0,117.47,9H104.66a18.82,18.82,0,0,0-18.8,18.8v4.33a84,84,0,0,0-12.8,5.31L70,34.36a18.79,18.79,0,0,0-26.58,0l-9,9.06a18.79,18.79,0,0,0,0,26.58l3.08,3.07a83.07,83.07,0,0,0-5.32,12.8H27.78A18.82,18.82,0,0,0,9,104.66v12.81a18.82,18.82,0,0,0,18.8,18.79h4.33a82.26,82.26,0,0,0,5.32,12.8l-3.07,3.07a18.81,18.81,0,0,0,0,26.59l9.06,9.05a18.79,18.79,0,0,0,26.58,0l3.07-3.07A82,82,0,0,0,85.86,190v4.34a18.81,18.81,0,0,0,18.8,18.79h12.81a18.81,18.81,0,0,0,18.79-18.79V190a82.26,82.26,0,0,0,12.8-5.32l3.07,3.07a18.78,18.78,0,0,0,26.58,0l9.06-9.05a18.79,18.79,0,0,0,0-26.58l-3.07-3.08a81.25,81.25,0,0,0,5.31-12.8h4.34a18.81,18.81,0,0,0,18.79-18.79V104.66A18.81,18.81,0,0,0,194.35,85.86Zm6.83,31.61a6.83,6.83,0,0,1-6.83,6.83h-8.83a6,6,0,0,0-5.79,4.49,70.61,70.61,0,0,1-7.59,18.27,6,6,0,0,0,.92,7.28l6.26,6.26a6.84,6.84,0,0,1,0,9.66l-9.07,9.06a6.84,6.84,0,0,1-9.66,0l-6.25-6.26a6,6,0,0,0-7.28-.92,70.61,70.61,0,0,1-18.27,7.59,6,6,0,0,0-4.49,5.79v8.83a6.83,6.83,0,0,1-6.83,6.83H104.66a6.83,6.83,0,0,1-6.83-6.83v-8.83a6,6,0,0,0-4.49-5.79,70.82,70.82,0,0,1-18.28-7.59h0a6,6,0,0,0-7.27.92l-6.26,6.26a6.84,6.84,0,0,1-9.66,0l-9.06-9.07a6.84,6.84,0,0,1,0-9.66l6.26-6.25a6,6,0,0,0,.92-7.28,70.61,70.61,0,0,1-7.59-18.27,6,6,0,0,0-5.79-4.49H27.78A6.83,6.83,0,0,1,21,117.47V104.66a6.85,6.85,0,0,1,6.83-6.84h8.83a6,6,0,0,0,5.79-4.48A70.67,70.67,0,0,1,50,75.06a6,6,0,0,0-.92-7.27l-6.26-6.26a6.84,6.84,0,0,1,0-9.66l9.06-9.06a6.83,6.83,0,0,1,9.66,0l6.26,6.26a6,6,0,0,0,7.27.92A70.82,70.82,0,0,1,93.34,42.4a6,6,0,0,0,4.49-5.79V27.78A6.83,6.83,0,0,1,104.66,21h12.81a6.83,6.83,0,0,1,6.83,6.83v8.83a6,6,0,0,0,4.49,5.79A70.61,70.61,0,0,1,147.06,50a6,6,0,0,0,7.28-.92l6.26-6.26a6.84,6.84,0,0,1,9.66,0l9.06,9.06a6.84,6.84,0,0,1,0,9.66l-6.26,6.26a6,6,0,0,0-.92,7.27,70.82,70.82,0,0,1,7.59,18.28,6,6,0,0,0,5.79,4.49h8.83a6.83,6.83,0,0,1,6.83,6.83Z"/><path class="cls-2" d="M194.35,97.83h-8.83a6,6,0,0,1-5.79-4.49,70.82,70.82,0,0,0-7.59-18.28,6,6,0,0,1,.92-7.27l6.26-6.26a6.84,6.84,0,0,0,0-9.66l-9.06-9.06a6.84,6.84,0,0,0-9.66,0l-6.26,6.26a6,6,0,0,1-7.28.92,70.61,70.61,0,0,0-18.27-7.59,6,6,0,0,1-4.49-5.79V27.78A6.83,6.83,0,0,0,117.47,21H104.66a6.83,6.83,0,0,0-6.83,6.83v8.83a6,6,0,0,1-4.49,5.79A70.82,70.82,0,0,0,75.06,50a6,6,0,0,1-7.27-.92l-6.26-6.26a6.83,6.83,0,0,0-9.66,0l-9.06,9.06a6.84,6.84,0,0,0,0,9.66l6.26,6.26A6,6,0,0,1,50,75.06,70.67,70.67,0,0,0,42.4,93.34a6,6,0,0,1-5.79,4.48H27.78A6.85,6.85,0,0,0,21,104.66v12.81a6.83,6.83,0,0,0,6.83,6.83h8.83a6,6,0,0,1,5.79,4.49A70.61,70.61,0,0,0,50,147.06a6,6,0,0,1-.92,7.28l-6.26,6.25a6.84,6.84,0,0,0,0,9.66l9.06,9.07a6.84,6.84,0,0,0,9.66,0l6.26-6.26a6,6,0,0,1,7.27-.92h0a70.82,70.82,0,0,0,18.28,7.59,6,6,0,0,1,4.49,5.79v8.83a6.83,6.83,0,0,0,6.83,6.83h12.81a6.83,6.83,0,0,0,6.83-6.83v-8.83a6,6,0,0,1,4.49-5.79,70.61,70.61,0,0,0,18.27-7.59,6,6,0,0,1,7.28.92l6.25,6.26a6.84,6.84,0,0,0,9.66,0l9.07-9.06a6.84,6.84,0,0,0,0-9.66l-6.26-6.26a6,6,0,0,1-.92-7.28,70.61,70.61,0,0,0,7.59-18.27,6,6,0,0,1,5.79-4.49h8.83a6.83,6.83,0,0,0,6.83-6.83V104.66A6.83,6.83,0,0,0,194.35,97.83Zm-83.29,49.54a36.31,36.31,0,1,1,36.31-36.31A36.35,36.35,0,0,1,111.06,147.37Z"/><path class="cls-1" d="M111.06,74.76a36.31,36.31,0,1,0,36.31,36.3A36.35,36.35,0,0,0,111.06,74.76Zm0,62.83a26.53,26.53,0,1,1,26.53-26.53A26.56,26.56,0,0,1,111.06,137.59Z"/></g></svg>