<svg xmlns="http://www.w3.org/2000/svg" viewBox="0 0 222.13 222.13"><defs><style>.cls-1{fill:#0c3563;}.cls-2{fill:#699ff0;}</style></defs><title>frontend</title><g id="Layer_4" data-name="Layer 4"><path class="cls-1" d="M83.62,109.35H47.48A22.12,22.12,0,0,1,25.39,87.26V51.12A22.11,22.11,0,0,1,47.48,29H83.62a22.11,22.11,0,0,1,22.09,22.08V87.26A22.12,22.12,0,0,1,83.62,109.35ZM47.48,39.74A11.4,11.4,0,0,0,36.1,51.12V87.26A11.39,11.39,0,0,0,47.48,98.64H83.62A11.39,11.39,0,0,0,95,87.26V51.12A11.39,11.39,0,0,0,83.62,39.74Z"/><circle class="cls-2" cx="156.72" cy="157.87" r="34.53"/><path class="cls-1" d="M174.65,109.35H138.5a22.11,22.11,0,0,1-22.08-22.09V51.12A22.1,22.1,0,0,1,138.5,29h36.15a22.1,22.1,0,0,1,22.08,22.08V87.26A22.11,22.11,0,0,1,174.65,109.35ZM138.5,39.74a11.39,11.39,0,0,0-11.37,11.38V87.26A11.38,11.38,0,0,0,138.5,98.64h36.15A11.38,11.38,0,0,0,186,87.26V51.12a11.39,11.39,0,0,0-11.37-11.38Z"/><path class="cls-1" d="M156.58,200.37a40.16,40.16,0,1,1,40.15-40.15A40.2,40.2,0,0,1,156.58,200.37Zm0-69.6A29.45,29.45,0,1,0,186,160.22,29.48,29.48,0,0,0,156.58,130.77Z"/><path class="cls-1" d="M83.62,200.37H47.48a22.11,22.11,0,0,1-22.09-22.08V142.15a22.12,22.12,0,0,1,22.09-22.09H83.62a22.12,22.12,0,0,1,22.09,22.09v36.14A22.11,22.11,0,0,1,83.62,200.37Zm-36.14-69.6A11.39,11.39,0,0,0,36.1,142.15v36.14a11.39,11.39,0,0,0,11.38,11.37H83.62A11.38,11.38,0,0,0,95,178.29V142.15a11.39,11.39,0,0,0-11.38-11.38Z"/></g></svg>