<svg xmlns="http://www.w3.org/2000/svg" viewBox="0 0 994.83 1171.95"><defs><style>.cls-1{fill:#1a2e35;}.cls-2{fill:#0c3563;}.cls-3,.cls-6{fill:#fff;}.cls-3{opacity:0.1;}.cls-4{fill:#903c38;}.cls-5{fill:#f7c87c;}.cls-7{opacity:0.2;}.cls-8{fill:#740606;}.cls-9{fill:#ff9841;}</style></defs><title>seller</title><g id="Слой_1" data-name="Слой 1"><path class="cls-1" d="M498.22,85.83c-12.74-33.59-17-81.12,40.88-76.37v-.1c48.69-28.51,101.66,13.29,86.22,55.87-6.82,18.8-14.08,29.59,4,49.84s-14.94,24.36-4,41.77c17.43,27.84-9,59.95-60,44.1-32.72-10.16-78.17,8.26-82.16-24.78S507.52,110.35,498.22,85.83Z"/><path class="cls-2" d="M614.36,1171.92c27.91,0,25.9-.43,41.58-1,13.43-.48,16.64,1.2,27.43,1,9-.19,8.69-8.82,5.9-18.75-1.39-5-3.55-11.08-5.46-19.13h-42.4c-5.76,11-17.22,19.23-32.95,21.34C593.45,1157.39,603.23,1171.92,614.36,1171.92Z"/><path class="cls-2" d="M384.24,1171.92c27.43-.05,36.66-1.8,52.11-2.33,13.23-.48,15.27,2.33,28.67,2.33,8.88,0,10.57-10,7.67-17.49-2.26-5.83-6.18-12.82-7.67-20.39H427.19c-7.38,12-26.4,20.86-47.27,22.35C365,1157.49,373.26,1171.92,384.24,1171.92Z"/><path class="cls-1" d="M451.31,424.15s-14.71,197.39-8.88,322.73C436.19,864.55,427.19,1134,427.19,1134c.63,6,32.31,3.61,37.83,0,0,0,68.29-196.29,51-387.16,75-199.07,66.62-322.73,66.62-322.73Z"/><path class="cls-1" d="M490.69,424.15s64.12,222.79,90.14,332.19c27.31,114.89,65.07,301.37,60.58,377.7,6.54,3.79,29.52,4,42.4,0,0,0,43.16-262-22.87-372.62,14.9-272.16-59-337.27-59-337.27Z"/><path class="cls-1" d="M638.2,1118.14a108.82,108.82,0,0,1-1.47,15.68,3.27,3.27,0,0,0,2.74,3.85c15.52,2.49,38-1.11,45.11-2.39a3.23,3.23,0,0,0,2.61-2.7l2.32-14.67a3.27,3.27,0,0,0-3.29-3.77l-44.82.87A3.24,3.24,0,0,0,638.2,1118.14Z"/><path class="cls-3" d="M638.2,1118.14a108.82,108.82,0,0,1-1.47,15.68,3.27,3.27,0,0,0,2.74,3.85c15.52,2.49,38-1.11,45.11-2.39a3.23,3.23,0,0,0,2.61-2.7l2.32-14.67a3.27,3.27,0,0,0-3.29-3.77l-44.82.87A3.24,3.24,0,0,0,638.2,1118.14Z"/><path class="cls-1" d="M423.64,1117.45c-.31,4.09-.89,11.37-1.52,16.75a3.26,3.26,0,0,0,2.82,3.6c13.3,1.84,34.73.17,41.76-.46a3.26,3.26,0,0,0,2.87-2.49l3.5-14.66a3.27,3.27,0,0,0-3.05-4l-43-1.71A3.24,3.24,0,0,0,423.64,1117.45Z"/><path class="cls-3" d="M423.64,1117.45c-.31,4.09-.89,11.37-1.52,16.75a3.26,3.26,0,0,0,2.82,3.6c13.3,1.84,34.73.17,41.76-.46a3.26,3.26,0,0,0,2.87-2.49l3.5-14.66a3.27,3.27,0,0,0-3.05-4l-43-1.71A3.24,3.24,0,0,0,423.64,1117.45Z"/><path class="cls-4" d="M456.35,223l-24.11,38.12-24.14,38.4L396,318.67l-6.09,9.55a71.62,71.62,0,0,0-7.2,13.63c-2.15,5.79-4,12.59-3.59,20.06a44.32,44.32,0,0,0,1.88,11,40.66,40.66,0,0,0,4.62,9.71,42,42,0,0,0,13.2,12.77A47.76,47.76,0,0,0,406,399c1.23.47,2.45.92,3.72,1.3l4.24,1.14a13.2,13.2,0,1,0,10.83-24.07c.17-.28-.53-1-.82-1.55s-.79-1.16-1.15-1.75a27.67,27.67,0,0,1-1.84-3.43,8.26,8.26,0,0,1-.89-5.2,2.26,2.26,0,0,1,1.79-1.5c.72-.19,1.28-.84,2.44-1.93a35.33,35.33,0,0,0,5.08-5.75l7.15-9.22c4.77-6.15,9.33-12.44,13.95-18.69s9.1-12.58,13.53-18.95,8.85-12.75,13.12-19.23c8.64-13,16.89-25.89,24.85-39.65a26.65,26.65,0,0,0-45.57-27.64Z"/><path class="cls-5" d="M486.86,194.17c-27.81,5.24-42.56,28.82-69.95,78.11,6.36,18.39,49.55,36,49.55,36S532.7,230.08,486.86,194.17Z"/><path class="cls-5" d="M442.78,246.78a676.64,676.64,0,0,0,1,68.92c1.16,29.93,3.22,59.39,7.54,108.45H602c-3-42.44,1.92-90.81,29-186.31,6.27-22.14-7.71-43.4-30.05-45.67-6-.61-12.3-1.11-18.8-1.42-25.26-1.23-46-2-68.42,0-7.43.67-15.14,1.61-22.51,2.63C464.58,197.07,443.6,220.23,442.78,246.78Z"/><path d="M661.26,754.85c-28.1-1.05-56-3.07-82.11-5.51-5.7-23.55-12.9-51.66-20.81-81.34l104.08-7.77C663.28,688.48,663,719.94,661.26,754.85Z"/><path d="M542.42,669.15c-7,23.07-15.16,47.57-24.8,73.38-37.94-4.85-66.09-9.55-75.83-11.23-.52-17.31-.76-35.73-.72-54.58Z"/><path class="cls-1" d="M442.33,427.42c-1.82-40,0-113.91,0-113.91s4.11-94.32,34.5-117.4a2.86,2.86,0,0,1,.92-.47c5-1.54,9.17-3.1,10.82-1.83S463.5,215.89,461.1,273c49.16,4.39,116.08-1.8,116.08-1.8s-.46-54.1,10.77-80a2.38,2.38,0,0,1,2.55-1.37l6.46,1a2.38,2.38,0,0,1,1.61,3.64c-12.13,20.7-4.65,97.78,14.6,129.12-1.59,18.38-4.39,95.52-4.39,95.52S678.72,501,673.13,704c-86.33,45.56-239,12-239,12S444.14,467.39,442.33,427.42Z"/><path class="cls-4" d="M577.3,113.71c-6,22-13.27,62.35,1,77,0,0-20.85-3.13-65.12,24.24-12.82-18.38-3.3-24.24-3.3-24.24,25-5.86,25.71-24.08,22.71-41.18Z"/><path class="cls-6" d="M522.53,209.48c14.58,2.08,19.14,24.1,19.14,24.1s35-24.77,46.12-42.24A145.41,145.41,0,0,1,575,183.22S531,201.06,522.53,209.48Z"/><path class="cls-6" d="M508.67,207.14s-12.6,3.39-17.16,21.11c-3.34-32.11,11.66-37.57,11.66-37.57s4.57-3.26,13.18-1.91C504.79,194.88,508.67,207.14,508.67,207.14Z"/><path class="cls-7" d="M559.09,128.34l-26.44,21.21a68,68,0,0,1,1.2,12.14c9.48-1.35,23.13-11.65,24.86-21.46C559.57,135.33,559.72,130.62,559.09,128.34Z"/><path class="cls-4" d="M596.1,69.53c-6.68,35.54-8.76,50.69-29,67.74-30.51,25.64-72.42,12.07-76.43-24.16-3.61-32.62,7.92-85.27,44.55-97C571.26,4.54,602.78,34,596.1,69.53Z"/><path class="cls-1" d="M520.13,18c38.93-19,115.68,4.7,100.24,47.28L589.19,86.9C569.74,86.1,517.2,63.25,520.13,18Z"/><path class="cls-1" d="M539.79,75.45c-.43,3-2.34,5.33-4.27,5.19s-3.13-2.7-2.7-5.7,2.34-5.34,4.27-5.19S540.22,72.44,539.79,75.45Z"/><path class="cls-1" d="M503.49,73.31c-.44,3-2.35,5.33-4.27,5.19s-3.14-2.7-2.71-5.71,2.34-5.33,4.27-5.18S503.92,70.3,503.49,73.31Z"/><path class="cls-1" d="M501.61,67.84l-6.78-2.61S497.65,71.14,501.61,67.84Z"/><path class="cls-8" d="M512.88,79S506,91.57,499.62,97.41c3.36,4,10.22,2.78,10.22,2.78Z"/><path class="cls-1" d="M525.18,112.56a28.5,28.5,0,0,1-5,.07.81.81,0,0,1-.74-.95,1,1,0,0,1,1-.82A25.24,25.24,0,0,0,540.8,103a.85.85,0,1,1,1.31,1.07A26.58,26.58,0,0,1,525.18,112.56Z"/><path class="cls-4" d="M601.33,92.12c-2.12,7.86-7.09,13.45-12.19,16-7.67,3.79-13.07-4.79-12.24-14.62.74-8.85,5.62-21.48,14-21.07S603.76,83.12,601.33,92.12Z"/><path class="cls-1" d="M550.22,52.24a1.62,1.62,0,0,1-1.24-.53,13,13,0,0,0-11.5-4.42,1.62,1.62,0,0,1-2-1.39,1.92,1.92,0,0,1,1.52-2.08,16.18,16.18,0,0,1,14.6,5.41,1.8,1.8,0,0,1-.2,2.5A1.89,1.89,0,0,1,550.22,52.24Z"/><path class="cls-1" d="M493.28,55.56a1.64,1.64,0,0,1-1.24-.31,1.76,1.76,0,0,1-.23-2.47c6.17-8,14.2-7.74,14.55-7.72a1.6,1.6,0,0,1,1.53,1.84A1.91,1.91,0,0,1,506,48.6c-.31,0-6.55-.11-11.45,6.24A1.93,1.93,0,0,1,493.28,55.56Z"/><path class="cls-1" d="M537.91,70l-6.77-2.61S534,73.28,537.91,70Z"/><path class="cls-9" d="M497,346.68a2.38,2.38,0,0,0,1.63-.64l63.25-59.22a2.4,2.4,0,0,0-3.28-3.51l-63.24,59.22a2.4,2.4,0,0,0,1.64,4.15Z"/><path class="cls-4" d="M533.21,306.34l11.19-1.09a13.08,13.08,0,0,1,11.13,4.44l13,14.9a24.39,24.39,0,0,1,5.3,21.74l-1.15,4.75c-18.43,3.07-40.61-7.2-40.61-7.2l-6.65-2.23A10.88,10.88,0,0,1,518.16,328l4.24-13.23A12.54,12.54,0,0,1,533.21,306.34Z"/><path class="cls-4" d="M596.9,253l2,5.27,2.16,5.84c1.39,4,2.81,7.92,4.12,11.94,2.67,8,5,16.15,7.13,24.27s3.88,16.3,5.34,24.44,2.33,16.25,3,24.34l.54-5.07a13.77,13.77,0,0,1,2.15-3.75,10.57,10.57,0,0,1,4.36-3.24c2.53-.79,2,.17.37.34a34,34,0,0,1-7,.09c-2.81-.22-5.87-.72-9-1.29-6.36-1.14-13-2.86-19.82-4.71s-13.76-4-20.39-5.93l-.75-.21a13.42,13.42,0,0,0-12.34,23.15,182.42,182.42,0,0,0,19.3,14.1,168.65,168.65,0,0,0,21.5,11.7,115.27,115.27,0,0,0,12.38,4.68,66.87,66.87,0,0,0,15,3c5.74.34,12.83.56,22-3.57a34.44,34.44,0,0,0,12.75-10.36,37.83,37.83,0,0,0,6.53-13.89,17.71,17.71,0,0,0,.49-3.57l0-1.51a226.8,226.8,0,0,0-.67-30.67c-.38-5.08-1.07-10.05-1.7-15.06-.8-5-1.61-9.91-2.63-14.8a284.69,284.69,0,0,0-7.41-28.94c-1.54-4.73-3.07-9.46-4.88-14.14-.9-2.34-1.78-4.69-2.77-7.05s-1.94-4.52-3.29-7.45a26.63,26.63,0,0,0-49.1,20.55Z"/><path class="cls-5" d="M602.3,192.35c24.53,3.79,34.36,11.25,54.4,60.55-9.09,18.38-51.68,36-51.68,36S582,225.19,602.3,192.35Z"/><path class="cls-6" d="M561.58,429.55a649.2,649.2,0,0,1-29.47-58.35c-13.46-30.77-24.65-67.41-24.65-67.41s-93.66-.27-110.71,10.92C408.34,354,455.9,448.2,455.9,448.2S526.58,444.47,561.58,429.55Z"/><path class="cls-5" d="M466.16,454.07l85-5.53c8.55-.55,12.71-7,9.24-14.23l-58-121.75c-3.46-7.27-13.29-12.76-21.83-12.21l-85,5.53c-8.55.56-12.71,7-9.25,14.23l58,121.76C447.79,449.14,457.61,454.63,466.16,454.07Z"/><path class="cls-4" d="M428.18,367.36l4.18,14.05c1.82,6.11-1.07,12.38-6.64,14.42l-6.25,2.28-18.54-41.8,16.92,2A12.6,12.6,0,0,1,428.18,367.36Z"/></g></svg>