<svg xmlns="http://www.w3.org/2000/svg" viewBox="0 0 5190.13 1264.96"><defs><style>.cls-1{fill:#f7f7f7;}.cls-2{fill:#f0f0f0;}.cls-12,.cls-3{fill:#fff;}.cls-4{fill:#efefef;}.cls-5{fill:#f5f5f5;}.cls-6{fill:#ececec;}.cls-7{fill:#fafafa;}.cls-8,.cls-9{fill:none;stroke:#fff;stroke-linecap:round;stroke-linejoin:round;stroke-width:17px;}.cls-9{stroke-dasharray:50.59 50.59;}.cls-10{fill:#1a2e35;}.cls-11{fill:#0c3563;}.cls-12{opacity:0.1;}.cls-13{fill:#903c38;}.cls-14{fill:#f7c87c;}.cls-15{opacity:0.2;}.cls-16{fill:#740606;}.cls-17{fill:#ff9841;}.cls-18{fill:#ff8b7b;}.cls-19{fill:#0d458d;}.cls-20{fill:#ffb27b;}.cls-21{fill:#ff5551;}.cls-22{fill:#007cff;}.cls-23{fill:#95c38b;}.cls-24{fill:#94d29d;}.cls-25{fill:#fab886;}.cls-26,.cls-27{fill:#699ff0;}.cls-27{opacity:0.3;}</style></defs><title>transit</title><g id="Слой_1" data-name="Слой 1"><rect class="cls-1" x="4148.82" y="762.12" width="287.66" height="362.71"/><polygon class="cls-2" points="4436.48 762.12 4148.82 762.12 4304.52 415.61 4592.17 415.61 4436.48 762.12"/><polygon class="cls-3" points="4171.46 747.47 4313.99 430.25 4569.54 430.25 4427.01 747.47 4171.46 747.47"/><polygon class="cls-4" points="4592.17 415.61 4436.48 762.12 4436.48 1124.83 4631.86 1124.83 4631.86 415.61 4592.17 415.61"/><path class="cls-5" d="M4385.44,422.38c-39.75,15-67.22.31-68.53,25.93s44.22,19.58,83.85,8.45S4430.9,405.22,4385.44,422.38Z"/><path class="cls-6" d="M4415.61,419.9a28.26,28.26,0,0,0-11.41-1.66c-2.79,1.65-6,3.51-9.7,5.34-11.72,5.68-52.35,10.3-73.09,12.93a12.33,12.33,0,0,0-3.23,5.06c8,.76,22.3.51,40.91-2C4388.77,435.55,4408.63,426.09,4415.61,419.9Z"/><path class="cls-6" d="M4425,429a13.59,13.59,0,0,0-5.53-7.12c-4.51,2.42-10.1,6.41-17.39,10.2-13.5,7-59.63,13.6-85.18,17.48a14.35,14.35,0,0,0,1.56,6.78,268.11,268.11,0,0,0,41.45-3.87C4392.52,447.16,4415.12,436.64,4425,429Z"/><path class="cls-6" d="M4326.24,463.23a36,36,0,0,0,9.9,2.58c7.28-1.12,15.65-2.57,24.94-4.39,27.19-5.3,47.88-11.77,60-16.76a19.89,19.89,0,0,0,3.78-6.7c-5,1.65-11.58,4.84-20.44,8.13C4391.7,450.82,4352.22,458.31,4326.24,463.23Z"/><path class="cls-7" d="M4299.86,563.9c38.28,18.47,66.93,6.26,66,31.9s-45.78,15.59-84.27,1S4256.1,542.79,4299.86,563.9Z"/><path class="cls-6" d="M4270,558.76a28.58,28.58,0,0,1,11.51-.64c2.64,1.89,5.64,4,9.2,6.19,11.16,6.69,51.22,14.88,71.66,19.33a12.38,12.38,0,0,1,2.76,5.33c-8.05,0-22.26-1.46-40.57-5.61C4295.38,576.73,4276.43,565.56,4270,558.76Z"/><path class="cls-6" d="M4259.89,567a13.51,13.51,0,0,1,6.13-6.61c4.28,2.81,9.5,7.28,16.42,11.7,12.83,8.17,58.19,18.82,83.3,24.94a14.33,14.33,0,0,1-2.15,6.62,267.56,267.56,0,0,1-40.94-7.53C4290.62,588,4269,575.49,4259.89,567Z"/><path class="cls-6" d="M4355.22,609.84a36.25,36.25,0,0,1-10.09,1.69c-7.15-1.76-15.36-3.95-24.46-6.58-26.61-7.69-46.65-16-58.32-22a19.81,19.81,0,0,1-3.17-7c4.84,2.08,11.11,5.84,19.65,9.9C4291.11,591.68,4329.78,602.64,4355.22,609.84Z"/><path class="cls-5" d="M4317,519.45c42.35,3.44,64.69-18.27,73,6s-37.1,31-78.26,31.28S4268.55,515.51,4317,519.45Z"/><path class="cls-6" d="M4287.3,525.4a28.3,28.3,0,0,1,10.51-4.75c3.14.82,6.71,1.73,10.8,2.46,12.83,2.22,53.15-4.56,73.82-7.77a12.49,12.49,0,0,1,4.5,4c-7.5,3-21.29,6.66-39.88,9.38C4317.42,533,4295.72,529.43,4287.3,525.4Z"/><path class="cls-6" d="M4280.8,536.73a13.63,13.63,0,0,1,3.34-8.37c5,1.07,11.48,3.37,19.54,5,14.91,3,61.06-3.4,86.69-6.73a14.34,14.34,0,0,1,.38,6.94,267.89,267.89,0,0,1-40.91,7.73C4317,545.22,4292.4,541.35,4280.8,536.73Z"/><path class="cls-6" d="M4385.17,542.36a36,36,0,0,1-8.8,5.21c-7.31.94-15.76,1.85-25.19,2.68-27.6,2.41-49.27,1.91-62.34.47a19.68,19.68,0,0,1-5.47-5.4c5.26.21,12.46,1.45,21.89,2.17C4318.82,548.51,4358.84,544.81,4385.17,542.36Z"/><path class="cls-5" d="M4250.14,661.12c40.67,12.36,67.1-4.11,70.1,21.37s-42.84,22.45-83.12,14S4203.66,647,4250.14,661.12Z"/><path class="cls-6" d="M4219.88,660.64a28.37,28.37,0,0,1,11.28-2.41c2.89,1.46,6.19,3.11,10,4.7,12.06,4.89,52.91,6.83,73.78,8.08a12.32,12.32,0,0,1,3.56,4.83c-7.95,1.29-22.22,2-41,.71C4247.69,674.49,4227.25,666.36,4219.88,660.64Z"/><path class="cls-6" d="M4211.13,670.33a13.54,13.54,0,0,1,5-7.47c4.66,2.11,10.5,5.73,18,9,13.92,6.1,60.39,9.65,86.13,11.83a14.32,14.32,0,0,1-1.1,6.88,268.26,268.26,0,0,1-41.61-1.14C4244.71,686.32,4221.48,677.31,4211.13,670.33Z"/><path class="cls-6" d="M4311.91,698a36.08,36.08,0,0,1-9.7,3.23c-7.34-.64-15.8-1.54-25.18-2.74-27.49-3.5-48.56-8.59-61-12.77a20.06,20.06,0,0,1-4.21-6.44c5.11,1.32,11.88,4.07,20.94,6.77C4245.77,689.91,4285.66,694.8,4311.91,698Z"/><path class="cls-6" d="M4373.84,473.72c-42.28,4.28-65.05-17-72.9,7.44s37.7,30.29,78.86,29.72S4422.18,468.82,4373.84,473.72Z"/><path class="cls-5" d="M4403.63,479.08a28.51,28.51,0,0,0-10.6-4.54c-3.13.88-6.68,1.86-10.76,2.67-12.77,2.48-53.23-3.5-74-6.3a12.31,12.31,0,0,0-4.42,4.06c7.55,2.8,21.42,6.23,40.05,8.59C4373.67,487.31,4395.29,483.27,4403.63,479.08Z"/><path class="cls-5" d="M4410.35,490.28a13.58,13.58,0,0,0-3.51-8.31c-5,1.18-11.41,3.6-19.43,5.39-14.85,3.3-61.12-2.18-86.81-5a14.42,14.42,0,0,0-.24,7,269.31,269.31,0,0,0,41.05,6.91C4374.31,499.49,4398.84,495.13,4410.35,490.28Z"/><path class="cls-5" d="M4306.12,498a35.93,35.93,0,0,0,8.9,5c7.32.79,15.79,1.55,25.23,2.18,27.65,1.87,49.3.93,62.34-.77a19.81,19.81,0,0,0,5.37-5.5c-5.27.31-12.44,1.7-21.85,2.6C4372.57,502.81,4332.49,499.9,4306.12,498Z"/><path class="cls-6" d="M4304.19,612.15c-41,11.3-67-5.85-70.63,19.55s42.25,23.55,82.73,16.09S4351,599.23,4304.19,612.15Z"/><path class="cls-5" d="M4334.46,612.45a28.52,28.52,0,0,0-11.22-2.7c-2.93,1.39-6.27,3-10.15,4.43-12.18,4.58-53.07,5.46-74,6.18a12.48,12.48,0,0,0-3.68,4.74c7.92,1.49,22.16,2.55,40.93,1.76C4306.29,625.58,4326.93,618,4334.46,612.45Z"/><path class="cls-5" d="M4343,622.36a13.65,13.65,0,0,0-4.84-7.6c-4.72,2-10.65,5.46-18.26,8.57-14.08,5.74-60.62,8.08-86.42,9.6a14.37,14.37,0,0,0,.93,6.9,268.36,268.36,0,0,0,41.63-.07C4309,637.48,4332.43,629.08,4343,622.36Z"/><path class="cls-5" d="M4241.48,647.41a36,36,0,0,0,9.62,3.47c7.35-.44,15.83-1.12,25.25-2.08,27.56-2.79,48.75-7.33,61.32-11.19a19.84,19.84,0,0,0,4.37-6.32c-5.13,1.18-12,3.75-21.1,6.22C4307.81,641.05,4267.81,644.89,4241.48,647.41Z"/><path class="cls-6" d="M4229.65,705.76c41.52,9.09,66.56-9.42,71.57,15.74s-40.93,25.77-81.75,20.49S4182.19,695.36,4229.65,705.76Z"/><path class="cls-5" d="M4199.44,707.67a28.42,28.42,0,0,1,11.06-3.29c3,1.22,6.41,2.61,10.37,3.88,12.41,3.93,53.28,2.62,74.19,2.21A12.44,12.44,0,0,1,4299,715c-7.82,1.92-22,3.74-40.77,4C4228.27,719.28,4207.25,712.79,4199.44,707.67Z"/><path class="cls-5" d="M4191.49,718a13.51,13.51,0,0,1,4.43-7.85c4.82,1.74,10.93,4.88,18.69,7.57,14.37,5,61,4.84,86.8,5a14.36,14.36,0,0,1-.55,6.94,267.07,267.07,0,0,1-41.57,2.16C4226.24,731.3,4202.36,724.17,4191.49,718Z"/><path class="cls-5" d="M4294.15,737.62a36.43,36.43,0,0,1-9.42,4c-7.37-.06-15.87-.28-25.32-.73-27.67-1.31-49.08-4.72-61.83-7.9a20,20,0,0,1-4.71-6.08c5.2.91,12.16,3.11,21.4,5.08C4227.58,734.8,4267.73,736.51,4294.15,737.62Z"/><path class="cls-5" d="M4344,740.17c40.34-13.38,67.18,2.41,69.53-23.14s-43.39-21.35-83.44-11.84S4297.89,755.47,4344,740.17Z"/><path class="cls-6" d="M4313.76,741.42a28.34,28.34,0,0,0,11.33,2.12c2.86-1.53,6.11-3.27,9.92-4.95,11.93-5.19,52.71-8.16,73.55-10a12.37,12.37,0,0,0,3.43-4.92c-8-1.09-22.26-1.42-41,.34C4341.21,726.87,4321,735.51,4313.76,741.42Z"/><path class="cls-6" d="M4304.76,732a13.64,13.64,0,0,0,5.23,7.35c4.61-2.24,10.36-6,17.8-9.49,13.77-6.45,60.12-11.17,85.81-14a14.32,14.32,0,0,0-1.28-6.84,267.69,267.69,0,0,0-41.57,2.19C4337.93,715.12,4314.93,724.71,4304.76,732Z"/><path class="cls-6" d="M4404.82,701.75a36.18,36.18,0,0,0-9.79-3c-7.32.82-15.75,1.93-25.1,3.37-27.39,4.2-48.32,9.82-60.67,14.32a19.43,19.43,0,0,0-4,6.54c5.06-1.45,11.76-4.37,20.75-7.3C4338.9,711.5,4378.66,705.61,4404.82,701.75Z"/><path class="cls-7" d="M4435.26,602.23c-37.5-20-66.62-9-64.62-34.54s46.37-13.73,84.24,2.42S4478.13,625.1,4435.26,602.23Z"/><path class="cls-6" d="M4464.86,608.57a28.4,28.4,0,0,1-11.53.18c-2.56-2-5.47-4.25-8.94-6.55-10.88-7.14-50.58-17-70.82-22.23a12.38,12.38,0,0,1-2.54-5.43c8,.27,22.18,2.36,40.31,7.25C4440.26,589.59,4458.73,601.53,4464.86,608.57Z"/><path class="cls-6" d="M4475.32,600.76a13.59,13.59,0,0,1-6.39,6.36c-4.17-3-9.2-7.66-15.94-12.36-12.48-8.69-57.37-21.17-82.21-28.3a14.31,14.31,0,0,1,2.41-6.53,268.57,268.57,0,0,1,40.61,9.18C4445.47,578.57,4466.52,591.9,4475.32,600.76Z"/><path class="cls-6" d="M4381.81,554.09a35.79,35.79,0,0,1,10.14-1.28c7.08,2.05,15.2,4.56,24.18,7.56,26.28,8.76,46,17.84,57.38,24.36a19.73,19.73,0,0,1,2.88,7.13c-4.75-2.29-10.86-6.29-19.23-10.7C4445.13,574.83,4406.94,562.31,4381.81,554.09Z"/><path class="cls-5" d="M4416.35,646c-42.18-5.15-65.38,15.63-72.73-9s38.33-29.5,79.46-28.08S4464.58,651.85,4416.35,646Z"/><path class="cls-6" d="M4446.25,641.21a28.39,28.39,0,0,1-10.7,4.32c-3.1-.94-6.63-2-10.69-2.9-12.73-2.74-53.29,2.41-74.07,4.77a12.29,12.29,0,0,1-4.33-4.15c7.6-2.64,21.54-5.78,40.22-7.75C4416.46,632.36,4438,636.85,4446.25,641.21Z"/><path class="cls-6" d="M4453.2,630.15a13.58,13.58,0,0,1-3.68,8.24c-5-1.29-11.33-3.84-19.32-5.79-14.77-3.61-61.15.91-86.89,3.2a14.39,14.39,0,0,1-.1-6.95,266.71,266.71,0,0,1,41.19-6.06C4417.35,620.2,4441.8,625.06,4453.2,630.15Z"/><path class="cls-6" d="M4349.15,620.29a35.72,35.72,0,0,1,9-4.84c7.34-.64,15.82-1.22,25.28-1.66,27.67-1.29,49.3.09,62.3,2.06a19.79,19.79,0,0,1,5.26,5.61c-5.26-.41-12.4-2-21.79-3.05C4415.69,616.84,4375.56,618.92,4349.15,620.29Z"/><path class="cls-5" d="M4488.88,507.11c-40.13-14-67.21,1.38-69.17-24.2s43.71-20.69,83.61-10.56S4534.75,523.11,4488.88,507.11Z"/><path class="cls-6" d="M4519.1,508.82a28.55,28.55,0,0,1-11.37,1.95c-2.83-1.58-6.06-3.36-9.83-5.1-11.86-5.38-52.59-9-73.4-11.07a12.42,12.42,0,0,1-3.35-5c8-1,22.28-1.08,41,1C4491.87,493.85,4512,502.8,4519.1,508.82Z"/><path class="cls-6" d="M4528.24,499.49a13.56,13.56,0,0,1-5.34,7.26c-4.58-2.3-10.27-6.15-17.65-9.76-13.67-6.66-59.95-12.09-85.59-15.31a14.33,14.33,0,0,1,1.38-6.82,267.82,267.82,0,0,1,41.54,2.82C4495.33,482.15,4518.18,492.09,4528.24,499.49Z"/><path class="cls-6" d="M4428.66,467.76a35.8,35.8,0,0,1,9.82-2.83c7.31.94,15.72,2.18,25.05,3.76,27.32,4.61,48.17,10.55,60.45,15.24a19.67,19.67,0,0,1,3.94,6.6c-5-1.53-11.7-4.54-20.64-7.61C4494.42,478.52,4454.75,472,4428.66,467.76Z"/><path class="cls-6" d="M4357.68,689.34c42.42-2.56,64.3,19.6,73.14-4.48s-36.44-31.8-77.59-32.9S4309.18,692.27,4357.68,689.34Z"/><path class="cls-5" d="M4328.13,682.77a28.53,28.53,0,0,0,10.41,5c3.16-.75,6.75-1.59,10.85-2.24,12.87-2,53,5.67,73.64,9.3a12.38,12.38,0,0,0,4.58-3.87c-7.43-3.11-21.14-7.1-39.67-10.21C4358.4,675.77,4336.64,678.92,4328.13,682.77Z"/><path class="cls-5" d="M4321.87,671.31a13.62,13.62,0,0,0,3.17,8.44c5-1,11.55-3.13,19.64-4.59,15-2.7,61,4.66,86.53,8.52a14.46,14.46,0,0,0,.52-6.94,268.87,268.87,0,0,0-40.74-8.57C4358.26,663.57,4333.57,666.93,4321.87,671.31Z"/><path class="cls-5" d="M4426.33,667.84a36.3,36.3,0,0,0-8.69-5.39c-7.28-1.08-15.71-2.18-25.12-3.19-27.55-3-49.22-2.94-62.32-1.77a19.69,19.69,0,0,0-5.58,5.28c5.27-.09,12.49-1.19,21.93-1.71C4360.13,660.32,4400.06,664.85,4426.33,667.84Z"/><path class="cls-6" d="M4432.89,553.85c41.4-9.63,66.68,8.56,71.36-16.67s-41.25-25.24-82-19.44S4385.57,564.85,4432.89,553.85Z"/><path class="cls-5" d="M4402.66,552.32a28.61,28.61,0,0,0,11.1,3.15c3-1.26,6.38-2.69,10.32-4,12.36-4.08,53.24-3.3,74.16-3.16a12.36,12.36,0,0,0,3.86-4.59c-7.84-1.81-22-3.46-40.82-3.42C4431.33,540.35,4410.4,547.1,4402.66,552.32Z"/><path class="cls-5" d="M4394.57,542.07a13.58,13.58,0,0,0,4.54,7.79c4.79-1.8,10.86-5,18.59-7.82,14.3-5.16,60.89-5.61,86.73-6.08a14.39,14.39,0,0,0-.64-6.93,267.84,267.84,0,0,0-41.6-1.63C4429.15,528.35,4405.36,535.79,4394.57,542.07Z"/><path class="cls-5" d="M4497,521.16a35.63,35.63,0,0,0-9.47-3.86c-7.36.15-15.86.48-25.3,1.05-27.66,1.67-49,5.36-61.73,8.7a19.69,19.69,0,0,0-4.63,6.14c5.18-1,12.12-3.27,21.34-5.36C4430.44,524.83,4470.57,522.61,4497,521.16Z"/><path class="cls-6" d="M4511.16,463.34c-41.11-10.77-66.89,6.71-70.86-18.63s41.93-24.09,82.51-17.16S4558.16,475.66,4511.16,463.34Z"/><path class="cls-5" d="M4541.43,462.66a28.45,28.45,0,0,1-11.18,2.83c-2.95-1.34-6.31-2.86-10.21-4.3-12.24-4.42-53.13-4.77-74-5.22a12.35,12.35,0,0,1-3.74-4.69c7.89-1.6,22.13-2.84,40.9-2.29C4513.1,449.89,4533.83,457.22,4541.43,462.66Z"/><path class="cls-5" d="M4549.8,452.63a13.61,13.61,0,0,1-4.75,7.66c-4.75-1.93-10.72-5.32-18.37-8.33-14.15-5.55-60.72-7.3-86.53-8.48a14.45,14.45,0,0,1,.83-6.91,268.66,268.66,0,0,1,41.63-.48C4515.61,438,4539.18,446.05,4549.8,452.63Z"/><path class="cls-5" d="M4448,428.89a35.73,35.73,0,0,1,9.58-3.59c7.35.35,15.84.92,25.26,1.75,27.6,2.44,48.85,6.71,61.47,10.41a19.76,19.76,0,0,1,4.45,6.26c-5.15-1.12-12-3.6-21.18-6C4514.42,434.4,4474.37,431.07,4448,428.89Z"/><rect class="cls-1" x="4426.41" y="762.12" width="287.66" height="362.71"/><polygon class="cls-2" points="4714.07 762.12 4426.41 762.12 4582.1 415.61 4869.76 415.61 4714.07 762.12"/><polygon class="cls-3" points="4449.04 747.47 4591.58 430.25 4847.13 430.25 4704.59 747.47 4449.04 747.47"/><polygon class="cls-4" points="4869.76 415.61 4714.07 762.12 4714.07 1124.83 4909.45 1124.83 4909.45 415.61 4869.76 415.61"/><path class="cls-5" d="M4663,422.38c-39.76,15-67.22.31-68.53,25.93s44.22,19.58,83.85,8.45S4708.49,405.22,4663,422.38Z"/><path class="cls-6" d="M4693.2,419.9a28.32,28.32,0,0,0-11.41-1.66c-2.8,1.65-6,3.51-9.71,5.34-11.71,5.68-52.34,10.3-73.09,12.93a12.32,12.32,0,0,0-3.22,5.06c8,.76,22.3.51,40.91-2C4666.36,435.55,4686.22,426.09,4693.2,419.9Z"/><path class="cls-6" d="M4702.57,429a13.57,13.57,0,0,0-5.52-7.12c-4.52,2.42-10.11,6.41-17.4,10.2-13.49,7-59.62,13.6-85.17,17.48a14.35,14.35,0,0,0,1.55,6.78,268,268,0,0,0,41.45-3.87C4670.11,447.16,4692.7,436.64,4702.57,429Z"/><path class="cls-6" d="M4603.82,463.23a36.19,36.19,0,0,0,9.9,2.58c7.28-1.12,15.66-2.57,24.95-4.39,27.19-5.3,47.88-11.77,60-16.76a19.68,19.68,0,0,0,3.77-6.7c-5,1.65-11.58,4.84-20.44,8.13C4669.29,450.82,4629.81,458.31,4603.82,463.23Z"/><path class="cls-7" d="M4577.44,563.9c38.28,18.47,66.94,6.26,66,31.9s-45.78,15.59-84.27,1S4533.68,542.79,4577.44,563.9Z"/><path class="cls-6" d="M4547.61,558.76a28.63,28.63,0,0,1,11.52-.64c2.63,1.89,5.64,4,9.19,6.19,11.17,6.69,51.23,14.88,71.66,19.33a12.39,12.39,0,0,1,2.77,5.33c-8.05,0-22.26-1.46-40.58-5.61C4573,576.73,4554,565.56,4547.61,558.76Z"/><path class="cls-6" d="M4537.47,567a13.61,13.61,0,0,1,6.13-6.61c4.29,2.81,9.5,7.28,16.43,11.7,12.82,8.17,58.19,18.82,83.29,24.94a14.44,14.44,0,0,1-2.14,6.62,267.65,267.65,0,0,1-41-7.53C4568.2,588,4546.63,575.49,4537.47,567Z"/><path class="cls-6" d="M4632.81,609.84a36.38,36.38,0,0,1-10.09,1.69c-7.15-1.76-15.37-3.95-24.46-6.58-26.62-7.69-46.65-16-58.32-22a19.81,19.81,0,0,1-3.17-7c4.84,2.08,11.11,5.84,19.64,9.9C4568.69,591.68,4607.36,602.64,4632.81,609.84Z"/><path class="cls-5" d="M4594.56,519.45c42.36,3.44,64.7-18.27,73,6s-37.09,31-78.25,31.28S4546.13,515.51,4594.56,519.45Z"/><path class="cls-6" d="M4564.88,525.4a28.45,28.45,0,0,1,10.51-4.75c3.14.82,6.71,1.73,10.81,2.46,12.82,2.22,53.15-4.56,73.81-7.77a12.41,12.41,0,0,1,4.5,4c-7.49,3-21.29,6.66-39.87,9.38C4595,533,4573.3,529.43,4564.88,525.4Z"/><path class="cls-6" d="M4558.39,536.73a13.51,13.51,0,0,1,3.34-8.37c5,1.07,11.48,3.37,19.53,5,14.91,3,61.07-3.4,86.69-6.73a14.34,14.34,0,0,1,.38,6.94,267.47,267.47,0,0,1-40.9,7.73C4594.61,545.22,4570,541.35,4558.39,536.73Z"/><path class="cls-6" d="M4662.75,542.36a35.83,35.83,0,0,1-8.8,5.21c-7.3.94-15.76,1.85-25.19,2.68-27.6,2.41-49.26,1.91-62.33.47a19.87,19.87,0,0,1-5.48-5.4c5.27.21,12.47,1.45,21.89,2.17C4596.4,548.51,4636.42,544.81,4662.75,542.36Z"/><path class="cls-5" d="M4527.73,661.12c40.66,12.36,67.1-4.11,70.09,21.37s-42.84,22.45-83.11,14S4481.24,647,4527.73,661.12Z"/><path class="cls-6" d="M4497.46,660.64a28.45,28.45,0,0,1,11.28-2.41c2.9,1.46,6.19,3.11,10,4.7,12.06,4.89,52.9,6.83,73.78,8.08a12.4,12.4,0,0,1,3.55,4.83c-7.95,1.29-22.22,2-40.95.71C4525.27,674.49,4504.84,666.36,4497.46,660.64Z"/><path class="cls-6" d="M4488.71,670.33a13.54,13.54,0,0,1,5-7.47c4.67,2.11,10.51,5.73,18,9,13.93,6.1,60.39,9.65,86.14,11.83a14.44,14.44,0,0,1-1.1,6.88,268.41,268.41,0,0,1-41.62-1.14C4522.3,686.32,4499.06,677.31,4488.71,670.33Z"/><path class="cls-6" d="M4589.5,698a36.15,36.15,0,0,1-9.71,3.23c-7.34-.64-15.79-1.54-25.18-2.74-27.48-3.5-48.55-8.59-61-12.77a19.73,19.73,0,0,1-4.21-6.44c5.1,1.32,11.87,4.07,20.93,6.77C4523.36,689.91,4563.25,694.8,4589.5,698Z"/><path class="cls-6" d="M4651.42,473.72c-42.28,4.28-65-17-72.89,7.44s37.7,30.29,78.86,29.72S4699.76,468.82,4651.42,473.72Z"/><path class="cls-5" d="M4681.22,479.08a28.49,28.49,0,0,0-10.61-4.54c-3.12.88-6.67,1.86-10.75,2.67-12.78,2.48-53.23-3.5-74-6.3a12.4,12.4,0,0,0-4.42,4.06c7.56,2.8,21.42,6.23,40.06,8.59C4651.25,487.31,4672.87,483.27,4681.22,479.08Z"/><path class="cls-5" d="M4687.93,490.28a13.62,13.62,0,0,0-3.5-8.31c-5,1.18-11.42,3.6-19.44,5.39-14.84,3.3-61.11-2.18-86.8-5a14.56,14.56,0,0,0-.25,7,269.48,269.48,0,0,0,41.06,6.91C4651.89,499.49,4676.43,495.13,4687.93,490.28Z"/><path class="cls-5" d="M4583.7,498a35.93,35.93,0,0,0,8.9,5c7.33.79,15.8,1.55,25.24,2.18,27.64,1.87,49.3.93,62.33-.77a19.67,19.67,0,0,0,5.37-5.5c-5.26.31-12.43,1.7-21.84,2.6C4650.16,502.81,4610.07,499.9,4583.7,498Z"/><path class="cls-6" d="M4581.77,612.15c-41,11.3-67-5.85-70.62,19.55s42.24,23.55,82.72,16.09S4628.61,599.23,4581.77,612.15Z"/><path class="cls-5" d="M4612,612.45a28.43,28.43,0,0,0-11.21-2.7c-2.93,1.39-6.27,3-10.16,4.43-12.18,4.58-53.06,5.46-74,6.18a12.29,12.29,0,0,0-3.68,4.74c7.91,1.49,22.16,2.55,40.92,1.76C4583.88,625.58,4604.52,618,4612,612.45Z"/><path class="cls-5" d="M4620.54,622.36a13.62,13.62,0,0,0-4.85-7.6c-4.72,2-10.65,5.46-18.26,8.57-14.08,5.74-60.61,8.08-86.41,9.6a14.37,14.37,0,0,0,.92,6.9,268.37,268.37,0,0,0,41.63-.07C4586.55,637.48,4610,629.08,4620.54,622.36Z"/><path class="cls-5" d="M4519.07,647.41a35.84,35.84,0,0,0,9.62,3.47c7.35-.44,15.83-1.12,25.24-2.08,27.57-2.79,48.76-7.33,61.33-11.19a20,20,0,0,0,4.37-6.32c-5.14,1.18-12,3.75-21.1,6.22C4585.4,641.05,4545.39,644.89,4519.07,647.41Z"/><path class="cls-6" d="M4507.24,705.76c41.51,9.09,66.56-9.42,71.56,15.74s-40.92,25.77-81.74,20.49S4459.78,695.36,4507.24,705.76Z"/><path class="cls-5" d="M4477,707.67a28.37,28.37,0,0,1,11.05-3.29c3,1.22,6.42,2.61,10.38,3.88,12.41,3.93,53.28,2.62,74.19,2.21a12.51,12.51,0,0,1,3.92,4.54c-7.82,1.92-22,3.74-40.77,4C4505.85,719.28,4484.83,712.79,4477,707.67Z"/><path class="cls-5" d="M4469.07,718a13.58,13.58,0,0,1,4.44-7.85c4.81,1.74,10.92,4.88,18.68,7.57,14.37,5,61,4.84,86.81,5a14.36,14.36,0,0,1-.55,6.94,267.22,267.22,0,0,1-41.58,2.16C4503.82,731.3,4479.94,724.17,4469.07,718Z"/><path class="cls-5" d="M4571.73,737.62a36.21,36.21,0,0,1-9.41,4c-7.37-.06-15.87-.28-25.32-.73-27.68-1.31-49.08-4.72-61.84-7.9a19.77,19.77,0,0,1-4.7-6.08c5.19.91,12.16,3.11,21.4,5.08C4505.16,734.8,4545.32,736.51,4571.73,737.62Z"/><path class="cls-5" d="M4621.59,740.17c40.33-13.38,67.18,2.41,69.53-23.14s-43.4-21.35-83.44-11.84S4575.47,755.47,4621.59,740.17Z"/><path class="cls-6" d="M4591.34,741.42a28.36,28.36,0,0,0,11.34,2.12c2.85-1.53,6.11-3.27,9.91-4.95,11.94-5.19,52.72-8.16,73.56-10a12.37,12.37,0,0,0,3.43-4.92c-8-1.09-22.27-1.42-41,.34C4618.79,726.87,4598.57,735.51,4591.34,741.42Z"/><path class="cls-6" d="M4582.35,732a13.59,13.59,0,0,0,5.23,7.35c4.61-2.24,10.35-6,17.79-9.49,13.77-6.45,60.13-11.17,85.81-14a14.32,14.32,0,0,0-1.27-6.84,267.76,267.76,0,0,0-41.58,2.19C4615.52,715.12,4592.52,724.71,4582.35,732Z"/><path class="cls-6" d="M4682.4,701.75a36,36,0,0,0-9.78-3c-7.32.82-15.75,1.93-25.11,3.37-27.38,4.2-48.31,9.82-60.67,14.32a19.76,19.76,0,0,0-4,6.54c5.07-1.45,11.77-4.37,20.75-7.3C4616.49,711.5,4656.24,705.61,4682.4,701.75Z"/><path class="cls-7" d="M4712.84,602.23c-37.49-20-66.62-9-64.62-34.54s46.38-13.73,84.24,2.42S4755.71,625.1,4712.84,602.23Z"/><path class="cls-6" d="M4742.44,608.57a28.39,28.39,0,0,1-11.53.18c-2.55-2-5.47-4.25-8.93-6.55-10.89-7.14-50.58-17-70.82-22.23a12.39,12.39,0,0,1-2.55-5.43c8.05.27,22.18,2.36,40.32,7.25C4717.84,589.59,4736.32,601.53,4742.44,608.57Z"/><path class="cls-6" d="M4752.91,600.76a13.61,13.61,0,0,1-6.4,6.36c-4.16-3-9.19-7.66-15.93-12.36-12.48-8.69-57.38-21.17-82.22-28.3a14.43,14.43,0,0,1,2.42-6.53,268.23,268.23,0,0,1,40.6,9.18C4723.06,578.57,4744.11,591.9,4752.91,600.76Z"/><path class="cls-6" d="M4659.39,554.09a35.82,35.82,0,0,1,10.15-1.28c7.07,2.05,15.2,4.56,24.17,7.56,26.29,8.76,46,17.84,57.38,24.36a19.55,19.55,0,0,1,2.88,7.13c-4.75-2.29-10.86-6.29-19.22-10.7C4722.71,574.83,4684.52,562.31,4659.39,554.09Z"/><path class="cls-5" d="M4693.94,646c-42.19-5.15-65.38,15.63-72.73-9s38.32-29.5,79.46-28.08S4742.17,651.85,4693.94,646Z"/><path class="cls-6" d="M4723.84,641.21a28.39,28.39,0,0,1-10.7,4.32c-3.1-.94-6.63-2-10.69-2.9-12.73-2.74-53.3,2.41-74.08,4.77a12.29,12.29,0,0,1-4.33-4.15c7.61-2.64,21.54-5.78,40.22-7.75C4694.05,632.36,4715.58,636.85,4723.84,641.21Z"/><path class="cls-6" d="M4730.78,630.15a13.62,13.62,0,0,1-3.67,8.24c-5-1.29-11.34-3.84-19.32-5.79-14.77-3.61-61.15.91-86.89,3.2a14.39,14.39,0,0,1-.1-6.95,266.71,266.71,0,0,1,41.19-6.06C4694.94,620.2,4719.38,625.06,4730.78,630.15Z"/><path class="cls-6" d="M4626.73,620.29a36,36,0,0,1,9-4.84c7.34-.64,15.82-1.22,25.27-1.66,27.68-1.29,49.31.09,62.31,2.06a19.75,19.75,0,0,1,5.25,5.61c-5.25-.41-12.4-2-21.78-3.05C4693.28,616.84,4653.14,618.92,4626.73,620.29Z"/><path class="cls-5" d="M4766.46,507.11c-40.12-14-67.21,1.38-69.16-24.2s43.71-20.69,83.61-10.56S4812.34,523.11,4766.46,507.11Z"/><path class="cls-6" d="M4796.69,508.82a28.59,28.59,0,0,1-11.37,1.95c-2.83-1.58-6.06-3.36-9.84-5.1-11.85-5.38-52.58-9-73.39-11.07a12.44,12.44,0,0,1-3.36-5c8-1,22.28-1.08,41,1C4769.46,493.85,4789.55,502.8,4796.69,508.82Z"/><path class="cls-6" d="M4805.82,499.49a13.51,13.51,0,0,1-5.34,7.26c-4.57-2.3-10.26-6.15-17.65-9.76-13.66-6.66-59.94-12.09-85.58-15.31a14.33,14.33,0,0,1,1.38-6.82,267.64,267.64,0,0,1,41.53,2.82C4772.91,482.15,4795.77,492.09,4805.82,499.49Z"/><path class="cls-6" d="M4706.24,467.76a35.87,35.87,0,0,1,9.83-2.83c7.31.94,15.72,2.18,25.05,3.76,27.32,4.61,48.16,10.55,60.45,15.24a19.67,19.67,0,0,1,3.94,6.6c-5.05-1.53-11.7-4.54-20.64-7.61C4772,478.52,4732.34,472,4706.24,467.76Z"/><path class="cls-6" d="M4635.27,689.34c42.42-2.56,64.3,19.6,73.14-4.48s-36.44-31.8-77.59-32.9S4586.77,692.27,4635.27,689.34Z"/><path class="cls-5" d="M4605.72,682.77a28.45,28.45,0,0,0,10.41,5c3.15-.75,6.74-1.59,10.85-2.24,12.87-2,53.05,5.67,73.64,9.3a12.38,12.38,0,0,0,4.58-3.87c-7.43-3.11-21.15-7.1-39.67-10.21C4636,675.77,4614.22,678.92,4605.72,682.77Z"/><path class="cls-5" d="M4599.46,671.31a13.56,13.56,0,0,0,3.17,8.44c5-1,11.54-3.13,19.63-4.59,15-2.7,61,4.66,86.53,8.52a14.47,14.47,0,0,0,.53-6.94,269.42,269.42,0,0,0-40.74-8.57C4635.85,663.57,4611.15,666.93,4599.46,671.31Z"/><path class="cls-5" d="M4703.92,667.84a36.5,36.5,0,0,0-8.69-5.39c-7.29-1.08-15.72-2.18-25.13-3.19-27.54-3-49.22-2.94-62.31-1.77a19.74,19.74,0,0,0-5.59,5.28c5.27-.09,12.49-1.19,21.93-1.71C4637.71,660.32,4677.65,664.85,4703.92,667.84Z"/><path class="cls-6" d="M4710.48,553.85c41.39-9.63,66.68,8.56,71.36-16.67s-41.26-25.24-82-19.44S4663.16,564.85,4710.48,553.85Z"/><path class="cls-5" d="M4680.25,552.32a28.5,28.5,0,0,0,11.09,3.15c3-1.26,6.38-2.69,10.33-4,12.36-4.08,53.24-3.3,74.15-3.16a12.48,12.48,0,0,0,3.87-4.59c-7.85-1.81-22-3.46-40.82-3.42C4708.92,540.35,4688,547.1,4680.25,552.32Z"/><path class="cls-5" d="M4672.16,542.07a13.56,13.56,0,0,0,4.53,7.79c4.8-1.8,10.86-5,18.59-7.82,14.3-5.16,60.9-5.61,86.74-6.08a14.39,14.39,0,0,0-.65-6.93,267.78,267.78,0,0,0-41.6-1.63C4706.73,528.35,4683,535.79,4672.16,542.07Z"/><path class="cls-5" d="M4774.56,521.16a35.77,35.77,0,0,0-9.47-3.86c-7.36.15-15.86.48-25.31,1.05-27.65,1.67-49,5.36-61.73,8.7a19.81,19.81,0,0,0-4.62,6.14c5.18-1,12.12-3.27,21.33-5.36C4708,524.83,4748.16,522.61,4774.56,521.16Z"/><path class="cls-6" d="M4788.75,463.34c-41.11-10.77-66.89,6.71-70.87-18.63s41.94-24.09,82.51-17.16S4835.75,475.66,4788.75,463.34Z"/><path class="cls-5" d="M4819,462.66a28.45,28.45,0,0,1-11.18,2.83c-2.94-1.34-6.3-2.86-10.21-4.3-12.24-4.42-53.13-4.77-74-5.22a12.33,12.33,0,0,1-3.73-4.69c7.89-1.6,22.12-2.84,40.89-2.29C4790.68,449.89,4811.42,457.22,4819,462.66Z"/><path class="cls-5" d="M4827.38,452.63a13.56,13.56,0,0,1-4.75,7.66c-4.74-1.93-10.72-5.32-18.36-8.33-14.16-5.55-60.72-7.3-86.54-8.48a14.45,14.45,0,0,1,.84-6.91,268.63,268.63,0,0,1,41.63-.48C4793.2,438,4816.77,446.05,4827.38,452.63Z"/><path class="cls-5" d="M4725.6,428.89a35.78,35.78,0,0,1,9.57-3.59c7.36.35,15.84.92,25.27,1.75,27.6,2.44,48.85,6.71,61.46,10.41a19.64,19.64,0,0,1,4.46,6.26c-5.16-1.12-12-3.6-21.18-6C4792,434.4,4752,431.07,4725.6,428.89Z"/><path class="cls-8" d="M4273.45,675.3c-2.55-5.64-6.08-13.3-10.69-22.59"/><path class="cls-9" d="M4238.73,608.21c-52.38-89.61-160.86-233.35-351.13-304.38-35.61-13.29-217.94-77.74-427-12.1-333.1,104.59-330.21,412.63-568.42,454C2624,792.28,2515,420.08,2209.6,440.48c-301.7,20.17-355,394.17-643,384.69-186.46-6.14-234.85-165.34-556.59-253.33a1222.44,1222.44,0,0,0-300.28-42.69"/><path class="cls-8" d="M684.48,529q-13.18,0-25,.3"/><path class="cls-10" d="M4844.28,307.7c-10-26.3-13.3-63.51,32-59.79,0,0,0-.06,0-.08,38.12-22.32,79.58,10.41,67.5,43.74-5.34,14.72-11,23.17,3.16,39s-11.7,19.07-3.16,32.7c13.64,21.8-7,46.94-47,34.53-25.61-7.95-61.19,6.46-64.32-19.4S4851.56,326.9,4844.28,307.7Z"/><path class="cls-11" d="M4935.21,1158c21.85,0,20.27-.33,32.55-.75,10.51-.37,13,.94,21.48.75,7.06-.15,6.79-6.9,4.62-14.68-1.09-3.9-2.78-8.67-4.28-15h-33.2c-4.5,8.6-13.48,15.06-25.79,16.71C4918.83,1146.64,4926.49,1158,4935.21,1158Z"/><path class="cls-11" d="M4755,1158c21.48,0,28.71-1.41,40.8-1.82,10.36-.38,12,1.82,22.45,1.82,6.95,0,8.27-7.82,6-13.69-1.77-4.57-4.84-10-6-16h-29.62c-5.78,9.39-20.67,16.33-37,17.5C4740,1146.71,4746.44,1158,4755,1158Z"/><path class="cls-10" d="M4807.55,572.58S4796,727.11,4800.6,825.24c-4.89,92.13-11.93,303.11-11.93,303.11.5,4.71,25.29,2.83,29.62,0,0,0,53.46-153.67,39.92-303.11,58.72-155.85,52.16-252.66,52.16-252.66Z"/><path class="cls-10" d="M4838.38,572.58S4888.59,747,4909,832.65c21.39,90,50.95,235.95,47.43,295.7,5.12,3,23.11,3.15,33.2,0,0,0,33.79-205.13-17.91-291.73,11.67-213.07-46.16-264-46.16-264Z"/><path class="cls-10" d="M4953.87,1115.91a85,85,0,0,1-1.15,12.27,2.56,2.56,0,0,0,2.15,3c12.15,1.94,29.73-.87,35.31-1.88a2.53,2.53,0,0,0,2-2.11l1.81-11.48a2.55,2.55,0,0,0-2.57-3l-35.09.67A2.56,2.56,0,0,0,4953.87,1115.91Z"/><path class="cls-12" d="M4953.87,1115.91a85,85,0,0,1-1.15,12.27,2.56,2.56,0,0,0,2.15,3c12.15,1.94,29.73-.87,35.31-1.88a2.53,2.53,0,0,0,2-2.11l1.81-11.48a2.55,2.55,0,0,0-2.57-3l-35.09.67A2.56,2.56,0,0,0,4953.87,1115.91Z"/><path class="cls-10" d="M4785.89,1115.37c-.24,3.2-.69,8.9-1.19,13.11a2.54,2.54,0,0,0,2.21,2.82c10.41,1.44,27.19.13,32.7-.37a2.53,2.53,0,0,0,2.24-1.94l2.74-11.48a2.56,2.56,0,0,0-2.39-3.14l-33.67-1.35A2.54,2.54,0,0,0,4785.89,1115.37Z"/><path class="cls-12" d="M4785.89,1115.37c-.24,3.2-.69,8.9-1.19,13.11a2.54,2.54,0,0,0,2.21,2.82c10.41,1.44,27.19.13,32.7-.37a2.53,2.53,0,0,0,2.24-1.94l2.74-11.48a2.56,2.56,0,0,0-2.39-3.14l-33.67-1.35A2.54,2.54,0,0,0,4785.89,1115.37Z"/><path class="cls-13" d="M4811.5,415.12,4792.62,445,4773.73,475l-9.52,15-4.77,7.48a55.74,55.74,0,0,0-5.63,10.67,39.25,39.25,0,0,0-2.82,15.71,35.06,35.06,0,0,0,1.47,8.62,32.2,32.2,0,0,0,3.62,7.61,33.05,33.05,0,0,0,10.34,10,37.27,37.27,0,0,0,5.65,2.83c1,.38,1.92.73,2.91,1l3.33.9a10.33,10.33,0,1,0,8.47-18.85c.13-.22-.41-.78-.64-1.21s-.62-.91-.9-1.37a21,21,0,0,1-1.44-2.69,6.43,6.43,0,0,1-.7-4.07,1.78,1.78,0,0,1,1.4-1.17c.57-.15,1-.66,1.92-1.51a28,28,0,0,0,4-4.5l5.6-7.22c3.73-4.82,7.3-9.74,10.92-14.63s7.13-9.85,10.6-14.84,6.92-10,10.27-15.06c6.76-10.15,13.22-20.26,19.45-31A20.86,20.86,0,0,0,4811.56,415Z"/><path class="cls-14" d="M4835.38,392.52c-21.77,4.1-33.31,22.56-54.76,61.15,5,14.4,38.79,28.16,38.79,28.16S4871.28,420.63,4835.38,392.52Z"/><path class="cls-14" d="M4800.87,433.71a531.13,531.13,0,0,0,.78,54c.91,23.43,2.52,46.49,5.9,84.91h118c-2.37-33.23,1.5-71.1,22.69-145.87,4.91-17.33-6-34-23.53-35.76-4.68-.47-9.63-.87-14.72-1.11-19.78-1-36-1.59-53.56,0-5.83.53-11.86,1.26-17.63,2.06C4817.94,394.79,4801.51,412.92,4800.87,433.71Z"/><path d="M4971.93,831.48c-22-.82-43.86-2.4-64.29-4.31-4.46-18.44-10.1-40.44-16.29-63.69l81.48-6.08C4973.51,779.52,4973.32,804.15,4971.93,831.48Z"/><path d="M4878.88,764.38q-8.16,27.09-19.41,57.45c-29.7-3.79-51.75-7.47-59.37-8.78-.41-13.56-.6-28-.56-42.73Z"/><path class="cls-10" d="M4800.52,575.13c-1.42-31.29,0-89.18,0-89.18s3.22-73.84,27-91.92a2.27,2.27,0,0,1,.71-.36c3.92-1.2,7.18-2.43,8.47-1.43s-19.63,17.29-21.5,61.95c38.48,3.45,90.88-1.4,90.88-1.4s-.36-42.36,8.43-62.64a1.87,1.87,0,0,1,2-1.07l5.06.76a1.87,1.87,0,0,1,1.26,2.85c-9.5,16.21-3.64,76.56,11.43,101.09-1.25,14.39-3.44,74.78-3.44,74.78s54.76,64.15,50.38,223.11c-67.59,35.67-187.13,9.39-187.13,9.39S4801.94,606.43,4800.52,575.13Z"/><path class="cls-13" d="M4906.19,329.53c-4.66,17.23-10.39,48.81.81,60.31,0,0-16.32-2.45-51,19-10-14.39-2.58-19-2.58-19,19.56-4.59,20.13-18.85,17.78-32.24Z"/><path class="cls-3" d="M4863.31,404.51c11.41,1.62,15,18.86,15,18.86s27.42-19.39,36.11-33.07a113.33,113.33,0,0,1-10-6.35S4870,397.92,4863.31,404.51Z"/><path class="cls-3" d="M4852.46,402.67s-9.86,2.66-13.43,16.53c-2.62-25.14,9.12-29.41,9.12-29.41s3.58-2.56,10.32-1.5C4849.42,393.07,4852.46,402.67,4852.46,402.67Z"/><path class="cls-15" d="M4891.93,341l-20.7,16.61a53.12,53.12,0,0,1,1,9.5c7.42-1.06,18.1-9.12,19.46-16.8C4892.31,346.45,4892.43,342.77,4891.93,341Z"/><path class="cls-13" d="M4920.91,294.93c-5.23,27.83-6.85,39.69-22.73,53-23.89,20.08-56.71,9.45-59.84-18.92-2.83-25.53,6.2-66.75,34.87-75.94C4901.47,244.06,4926.14,267.11,4920.91,294.93Z"/><path class="cls-10" d="M4861.43,254.56c30.48-14.87,90.57,3.68,78.48,37l-24.41,17C4900.28,307.91,4859.14,290,4861.43,254.56Z"/><path class="cls-10" d="M4876.83,299.57c-.34,2.36-1.84,4.17-3.35,4.06s-2.45-2.11-2.11-4.46,1.83-4.17,3.34-4.06S4877.16,297.22,4876.83,299.57Z"/><path class="cls-10" d="M4848.4,297.9c-.34,2.35-1.83,4.17-3.34,4.06s-2.46-2.11-2.12-4.47,1.84-4.17,3.34-4.06S4848.74,295.54,4848.4,297.9Z"/><path class="cls-10" d="M4846.93,293.61l-5.3-2S4843.83,296.2,4846.93,293.61Z"/><path class="cls-16" d="M4855.76,302.34s-5.37,9.85-10.38,14.42c2.63,3.13,8,2.18,8,2.18Z"/><path class="cls-10" d="M4865.39,328.62a22.07,22.07,0,0,1-3.92.06.65.65,0,0,1-.58-.75.76.76,0,0,1,.78-.64,19.72,19.72,0,0,0,15.94-6.19.67.67,0,1,1,1,.84A20.73,20.73,0,0,1,4865.39,328.62Z"/><path class="cls-13" d="M4925,312.62c-1.67,6.16-5.55,10.53-9.55,12.5-6,3-10.23-3.75-9.58-11.44.58-6.93,4.4-16.82,10.92-16.49S4926.91,305.58,4925,312.62Z"/><path class="cls-10" d="M4885,281.4a1.27,1.27,0,0,1-1-.41,10.15,10.15,0,0,0-9-3.46,1.27,1.27,0,0,1-1.53-1.09,1.49,1.49,0,0,1,1.19-1.63,12.67,12.67,0,0,1,11.43,4.23,1.41,1.41,0,0,1-.16,2A1.47,1.47,0,0,1,4885,281.4Z"/><path class="cls-10" d="M4840.41,284a1.31,1.31,0,0,1-1-.24,1.38,1.38,0,0,1-.18-1.94,14.56,14.56,0,0,1,11.39-6,1.26,1.26,0,0,1,1.2,1.44,1.5,1.5,0,0,1-1.51,1.33,11.6,11.6,0,0,0-9,4.88A1.49,1.49,0,0,1,4840.41,284Z"/><path class="cls-10" d="M4875.36,295.29l-5.31-2S4872.26,297.87,4875.36,295.29Z"/><path class="cls-17" d="M4843.34,511.92a1.85,1.85,0,0,0,1.28-.5l49.52-46.37a1.88,1.88,0,0,0-2.57-2.74l-49.52,46.37a1.87,1.87,0,0,0,1.29,3.24Z"/><path class="cls-13" d="M4871.67,480.33l8.76-.84a10.24,10.24,0,0,1,8.72,3.47l10.15,11.67a19.06,19.06,0,0,1,4.15,17l-.9,3.72c-14.43,2.4-31.8-5.64-31.8-5.64l-5.2-1.74a8.53,8.53,0,0,1-5.66-10.72l3.32-10.36A9.84,9.84,0,0,1,4871.67,480.33Z"/><path class="cls-13" d="M4921.54,438.56l1.57,4.13,1.69,4.57c1.09,3.09,2.2,6.2,3.22,9.34,2.1,6.28,3.9,12.65,5.59,19s3,12.76,4.18,19.13,1.83,12.73,2.36,19.06l.42-4a10.67,10.67,0,0,1,1.68-2.94,8.3,8.3,0,0,1,3.41-2.53c2-.62,1.57.13.29.27a26.63,26.63,0,0,1-5.47.06,71.29,71.29,0,0,1-7.08-1c-5-.89-10.21-2.23-15.51-3.69s-10.78-3.15-16-4.63l-.59-.17a10.5,10.5,0,0,0-9.65,18.12,141.19,141.19,0,0,0,15.11,11.05,133.42,133.42,0,0,0,16.83,9.16,89.73,89.73,0,0,0,9.69,3.65,52.4,52.4,0,0,0,11.75,2.39,33.61,33.61,0,0,0,17.24-2.8,27.1,27.1,0,0,0,10-8.11,29.81,29.81,0,0,0,5.11-10.88,14.17,14.17,0,0,0,.38-2.79l0-1.18a177.61,177.61,0,0,0-.52-24c-.3-4-.84-7.87-1.33-11.79s-1.26-7.76-2.07-11.59a217.86,217.86,0,0,0-5.8-22.65c-1.2-3.71-2.4-7.42-3.81-11.08-.71-1.83-1.4-3.67-2.18-5.51s-1.51-3.55-2.57-5.84a20.85,20.85,0,0,0-38.44,16.09Z"/><path class="cls-14" d="M4925.76,391.1c19.21,3,26.91,8.8,42.6,47.4-7.12,14.39-40.47,28.16-40.47,28.16S4909.87,416.8,4925.76,391.1Z"/><path class="cls-3" d="M4893.89,576.8a508.1,508.1,0,0,1-23.08-45.68c-10.54-24.1-19.3-52.78-19.3-52.78s-73.32-.21-86.67,8.55c9.07,30.77,46.31,104.52,46.31,104.52S4866.48,588.49,4893.89,576.8Z"/><path class="cls-14" d="M4819.18,596l66.52-4.33c6.69-.44,9.94-5.45,7.23-11.14l-45.38-95.32c-2.71-5.7-10.4-10-17.09-9.56L4763.94,480c-6.69.44-9.94,5.45-7.24,11.14l45.39,95.32C4804.8,592.14,4812.49,596.44,4819.18,596Z"/><path class="cls-13" d="M4789.44,528.11l3.28,11c1.42,4.78-.84,9.7-5.2,11.29l-4.89,1.79-14.52-32.73,13.25,1.59A9.86,9.86,0,0,1,4789.44,528.11Z"/><path class="cls-10" d="M405,833.91c-20.37-120.17-28.84-265.06-28.84-265.06l112.12-1.8s-12.9,195.27-17.38,277.07c-4.65,85-9.51,278.92-9.51,278.92H409.84S393.66,939.05,405,833.91Z"/><path class="cls-11" d="M417.9,1162.51l-1.5,24a4.67,4.67,0,0,0,4.62,4.72c7.61,0,11.05-1.21,24.33-1.42,15.53-.24,28.76,1.7,47,1.42,11-.17,9.53-13.59.92-15.86-18.35-4.85-27.18-13.94-36.06-19.26-2.79-8.65-2.1-38-2.1-38l-42.18,2.82S417.75,1150,417.9,1162.51Z"/><path class="cls-11" d="M268,1182.93l5.36-20.42c1.89-12.56,2.05-41.57,2.05-41.57l39.53,1s-4.08,26.48-4.19,35.82c7.4,5.32,14.73,12.76,31,17.61,7.63,2.27,6.41,15.69-3.85,15.86-17,.28-29-1.66-43.43-1.42-12.38.21-13.86,1.42-20.93,1.42C269.32,1191.21,266.57,1187.38,268,1182.93Z"/><path class="cls-10" d="M459.2,1129.84l-47.38.74a3.84,3.84,0,0,1-3.86-3.33l-2-15.65a3.84,3.84,0,0,1,3.68-4.33l51.59-1.6a3.82,3.82,0,0,1,3.92,4.32l-2.16,16.51A3.82,3.82,0,0,1,459.2,1129.84Z"/><path class="cls-12" d="M459.2,1129.84l-47.38.74a3.84,3.84,0,0,1-3.86-3.33l-2-15.65a3.84,3.84,0,0,1,3.68-4.33l51.59-1.6a3.82,3.82,0,0,1,3.92,4.32l-2.16,16.51A3.82,3.82,0,0,1,459.2,1129.84Z"/><path class="cls-10" d="M311.24,830.52c15.26-120.84,16.35-201.59,33.27-261.16l102-1.53s-46.07,191.72-67.3,271.55c-21.31,80.14-59.86,281.47-59.86,281.47l-50.06.62S282.78,924,311.24,830.52Z"/><path class="cls-10" d="M319.24,1129.84l-47.35.74A3.83,3.83,0,0,1,268,1127l-1-15.64a3.83,3.83,0,0,1,3.71-4.08l51.56-1.61a3.84,3.84,0,0,1,3.88,4.56l-3.17,16.5A3.85,3.85,0,0,1,319.24,1129.84Z"/><path class="cls-12" d="M319.24,1129.84l-47.35.74A3.83,3.83,0,0,1,268,1127l-1-15.64a3.83,3.83,0,0,1,3.71-4.08l51.56-1.61a3.84,3.84,0,0,1,3.88,4.56l-3.17,16.5A3.85,3.85,0,0,1,319.24,1129.84Z"/><path class="cls-18" d="M459.4,383.16c6.92,13.35,14.1,26.63,21.38,39.82s14.62,26.35,22.05,39.44L514,482.05l2.78,4.89,1.39,2.45.73,1.27,1,1.64a50.3,50.3,0,0,0,11.28,12.89c5,4.05,12.09,7.49,19.46,7.84a34.12,34.12,0,0,0,18.61-4.21,47,47,0,0,0,11.92-9.29,55.57,55.57,0,0,0,4.41-5.28,63.85,63.85,0,0,0,3.86-5.91,10,10,0,0,0-13.11-14.11l-2.45,1.25c-1,.53-2.63,1.54-4,2.27s-2.78,1.51-4.15,2.12a25.52,25.52,0,0,1-7.44,2.31c-2.09.28-3.36-.28-3.51-.78a2,2,0,0,1-.12-.76,3.92,3.92,0,0,0-.49-1.08,43.61,43.61,0,0,1-2.38-5l-.35-.82-.58-1.25-1.22-2.57-2.44-5.16c-3.23-6.88-6.57-13.69-9.92-20.49q-10-20.43-20.51-40.54c-7-13.44-14.12-26.75-21.58-40a20.38,20.38,0,0,0-35.85,19.37Z"/><path class="cls-19" d="M461.61,326.19c25.05,6.91,51,49.6,51,49.6L476.65,433.6s-17.13-22.5-35.35-50.76C421.46,352.06,431.27,317.83,461.61,326.19Z"/><path class="cls-19" d="M356.77,327.85c27.11-5.2,58.15-7.65,85-6.17,30.64,1.7,55.59,29.22,57.72,64.5,3.21,53-2.66,128.62-11.12,218.47,0,0-143.81,2.69-143.81,2.69-3.78-45,2-132.21-14.86-234.6C326.2,351.66,338.42,331.37,356.77,327.85Z"/><path class="cls-20" d="M385.3,257.2c4.1,19.44,8.38,55.21-5.24,69,10.83,10.07,25,21.63,48.38,21.29s19.12-16.17,12.84-24.33c-22-4.13-21.66-20.4-18-35.84Z"/><path class="cls-3" d="M426.22,347.47s-9.87,3.19-15.56,17.66c-18.19-4.9-37.08-23.72-38.2-42A30.78,30.78,0,0,1,383.87,321S393.91,339.15,426.22,347.47Z"/><path class="cls-3" d="M438.83,345.81s8.48-.47,16.57,17.43c18.41-4-3.58-37-11.53-41.63a28.54,28.54,0,0,0-11.81-1.47S448.49,326.13,438.83,345.81Z"/><path class="cls-15" d="M400.78,269.49l22.47,17.81a63.94,63.94,0,0,0-1.76,10.92c-8.4-.8-20-9.4-21-18.11C400,275.76,400.09,271.56,400.78,269.49Z"/><path class="cls-10" d="M431.71,189.59c8.48.21,23.63,12,23.51,38.11C428.16,210.7,431.71,189.59,431.71,189.59Z"/><path class="cls-20" d="M379.51,227.71c2.72,26.51,3,42.18,17,55.16,21.06,19.53,53.42,5.71,58.69-21.15,4.74-24.18-.5-63.47-27-72.76C402.08,179.81,376.79,201.2,379.51,227.71Z"/><path class="cls-10" d="M435.77,254.52c-5.86-1.2-16.24,2.44-19.42,8.48,0,0,13.15-5.13,21-3.13C440.34,258.27,437.63,254.9,435.77,254.52Z"/><path class="cls-10" d="M446.07,255.21c4.55-.84,10.53,2.8,10.61,8.27,0,0-7.4-5.07-13.61-3.61C441.53,258.33,444.64,255.47,446.07,255.21Z"/><path class="cls-10" d="M378.69,248.56c12.39,8.64,19.54,3.74,19.73-9.6.18-12.13-13.45-34.56-4.91-41.33s42.78,14.92,47.53-.43c2.35-7.61-21.24-17.68-41.67-16.4-19.88,1.24-27.57,13-27.09,21.72C362.69,202.46,356,234.74,378.69,248.56Z"/><path class="cls-20" d="M370.61,252.51a25,25,0,0,0,12.89,13.11c7.4,3,11.31-4.23,9.43-12.42-1.69-7.36-7.58-17.81-15.09-17.32S367.37,245.05,370.61,252.51Z"/><path class="cls-10" d="M422.38,232.24c.09,2.17,1.31,3.87,2.72,3.79s2.5-1.88,2.41-4-1.31-3.87-2.73-3.8S422.29,230.08,422.38,232.24Z"/><path class="cls-10" d="M447.49,230.35c.09,2.16,1.31,3.86,2.73,3.79s2.49-1.88,2.4-4-1.31-3.86-2.72-3.79S447.4,228.18,447.49,230.35Z"/><path class="cls-21" d="M437.84,232.65s5.43,12.24,11.1,18c-3.68,3.77-10.27,2.46-10.27,2.46Z"/><path class="cls-10" d="M443.93,264.4a17.74,17.74,0,0,1-14-2.09.65.65,0,0,1-.15-.89.64.64,0,0,1,.89-.16,17,17,0,0,0,15.45,1.08.63.63,0,0,1,.82.36.65.65,0,0,1-.36.83A22.62,22.62,0,0,1,443.93,264.4Z"/><path class="cls-10" d="M409.89,225.65a1.31,1.31,0,0,1-.6-.21,1.26,1.26,0,0,1-.32-1.77,12.77,12.77,0,0,1,10.14-5.77,1.27,1.27,0,0,1,1.24,1.3,1.29,1.29,0,0,1-1.3,1.25h0a10.19,10.19,0,0,0-8,4.65A1.29,1.29,0,0,1,409.89,225.65Z"/><path class="cls-10" d="M455.49,220.62a1.26,1.26,0,0,1-1.16-.31,10,10,0,0,0-8.73-2.83,1.26,1.26,0,0,1-1.52-.94A1.3,1.3,0,0,1,445,215a12.57,12.57,0,0,1,11.06,3.45,1.29,1.29,0,0,1,0,1.8A1.27,1.27,0,0,1,455.49,220.62Z"/><path d="M410.63,715.36c-4.93,20-9.92,40-14.66,58.89,2.29,17,4.77,34.09,7.5,50.76a447.53,447.53,0,0,0,68.18,5.12c1.73-30.14,4.21-70.44,6.75-110.43Z"/><path d="M314.51,803.41c18.65,6.82,42.88,13.41,69.38,18.34,3.64-14.1,7.78-30.3,12.08-47.5-2.73-20.43-5.18-40.77-7.31-60.3l-64.57-4.11C321.42,737.87,318.5,768.89,314.51,803.41Z"/><path class="cls-18" d="M575.89,474.57l15.58-18,17.35,25.2s-9.9,16.14-25.91,6.93Z"/><path class="cls-18" d="M613.91,454.75l4.53,13.31a5.33,5.33,0,0,1-.94,5.66l-8.68,8.09-17.35-25.2,14.83-6.53C609,448.88,612.67,451.13,613.91,454.75Z"/><path class="cls-10" d="M459.42,419.25s-4.18-3.3-2.32-10.79c-1.28-.48-3,1.46-3,1.46S454.63,418.66,459.42,419.25Z"/><path class="cls-22" d="M442.91,429.7A19.43,19.43,0,0,1,457.71,418a19.41,19.41,0,0,1,15.76-10.31c11.46-.92,24.79,35.94,7.3,42.38C469.1,464.64,438.39,440.27,442.91,429.7Z"/><path class="cls-23" d="M442.91,429.7A19.43,19.43,0,0,1,457.71,418a19.41,19.41,0,0,1,15.76-10.31c11.46-.92,24.79,35.94,7.3,42.38C469.1,464.64,438.39,440.27,442.91,429.7Z"/><path class="cls-10" d="M481.59,449.34l1.32.08-1,.4.2.51-.79.1-.08.63-.58-.11-.21.68-.45-.42-.5.83v-1.22A4.76,4.76,0,0,1,481.59,449.34Z"/><path class="cls-10" d="M503,404.85s1.2-5.19,8.76-6.72c-.11-1.37-2.62-2.12-2.62-2.12S501.52,400.26,503,404.85Z"/><path class="cls-22" d="M486.52,394.41a19.45,19.45,0,0,1,16.88,8.37,19.41,19.41,0,0,1,16.07,9.82c5.74,10-21.85,37.8-35.16,24.76C466.18,433.05,475,394.86,486.52,394.41Z"/><path class="cls-24" d="M486.52,394.41a19.45,19.45,0,0,1,16.88,8.37,19.41,19.41,0,0,1,16.07,9.82c5.74,10-21.85,37.8-35.16,24.76C466.18,433.05,475,394.86,486.52,394.41Z"/><path class="cls-10" d="M485.36,437.78l.49,1.22-.78-.7-.37.39-.43-.67-.61.2-.15-.57-.7.1.19-.59-1-.08,1.11-.53A4.76,4.76,0,0,1,485.36,437.78Z"/><path class="cls-10" d="M437,407.32s3.09-4.33-.77-11c1.1-.82,3.32.56,3.32.56S441.4,405.42,437,407.32Z"/><path class="cls-22" d="M455.72,412.78a19.42,19.42,0,0,0-17.44-7.1,19.42,19.42,0,0,0-18-5.53c-11.26,2.29-13.84,41.41,4.74,42.74C440.25,453.61,463,421.69,455.72,412.78Z"/><path class="cls-25" d="M455.72,412.78a19.42,19.42,0,0,0-17.44-7.1,19.42,19.42,0,0,0-18-5.53c-11.26,2.29-13.84,41.41,4.74,42.74C440.25,453.61,463,421.69,455.72,412.78Z"/><path class="cls-10" d="M424,442.38l-1.24.44,1,.12-.05.54.8-.12.25.58.52-.27.4.6.31-.53.71.67-.35-1.18A4.79,4.79,0,0,0,424,442.38Z"/><path class="cls-10" d="M391.07,405.57s-2.59-4.65-10.28-4c-.27-1.34,1.93-2.76,1.93-2.76S391.25,400.75,391.07,405.57Z"/><path class="cls-22" d="M404,391a19.42,19.42,0,0,0-13.89,12.72,19.41,19.41,0,0,0-12.72,13.9c-2.76,11.16,31.48,30.25,40.65,14C434.3,422.45,415.2,388.22,404,391Z"/><path class="cls-24" d="M404,391a19.42,19.42,0,0,0-13.89,12.72,19.41,19.41,0,0,0-12.72,13.9c-2.76,11.16,31.48,30.25,40.65,14C434.3,422.45,415.2,388.22,404,391Z"/><path class="cls-10" d="M417.18,432.31l-.13,1.31.55-.88.47.27.23-.77.64,0,0-.59.71-.1-.35-.51.91-.35-1.22-.2A4.89,4.89,0,0,0,417.18,432.31Z"/><path class="cls-10" d="M528.49,402s-2.59-4.65-10.28-4c-.27-1.35,1.93-2.77,1.93-2.77S528.67,397.19,528.49,402Z"/><path class="cls-22" d="M541.46,387.41a19.41,19.41,0,0,0-13.89,12.72A19.42,19.42,0,0,0,514.85,414c-2.76,11.16,31.48,30.26,40.65,14C571.72,418.89,552.62,384.65,541.46,387.41Z"/><path class="cls-24" d="M541.46,387.41a19.41,19.41,0,0,0-13.89,12.72A19.42,19.42,0,0,0,514.85,414c-2.76,11.16,31.48,30.26,40.65,14C571.72,418.89,552.62,384.65,541.46,387.41Z"/><path class="cls-10" d="M554.61,428.75l-.14,1.31.56-.89.46.28.23-.77.64,0,0-.6.71-.09-.35-.51.91-.36L556.4,427A4.73,4.73,0,0,0,554.61,428.75Z"/><path class="cls-10" d="M493.65,441s5.69-4.51,3.15-14.72c1.75-.66,4.15,2,4.15,2S500.18,440.2,493.65,441Z"/><path class="cls-22" d="M516.16,455.27A26.47,26.47,0,0,0,496,439.36a26.49,26.49,0,0,0-21.51-14.07c-15.63-1.25-33.81,49-10,57.82C480.44,502.93,522.33,469.69,516.16,455.27Z"/><path class="cls-23" d="M516.16,455.27A26.47,26.47,0,0,0,496,439.36a26.49,26.49,0,0,0-21.51-14.07c-15.63-1.25-33.81,49-10,57.82C480.44,502.93,522.33,469.69,516.16,455.27Z"/><path class="cls-10" d="M463.39,482.06l-1.79.1,1.32.56-.27.68,1.08.14.11.87.79-.16.29.94.61-.58.67,1.14v-1.68A6.56,6.56,0,0,0,463.39,482.06Z"/><path class="cls-10" d="M434.14,421.36s-1.63-7.08-11.95-9.17c.16-1.86,3.58-2.89,3.58-2.89S436.2,415.11,434.14,421.36Z"/><path class="cls-22" d="M456.67,407.13a26.47,26.47,0,0,0-23,11.41,26.49,26.49,0,0,0-21.93,13.4c-7.83,13.59,29.81,51.57,48,33.78C484.42,459.83,472.34,407.74,456.67,407.13Z"/><path class="cls-24" d="M456.67,407.13a26.47,26.47,0,0,0-23,11.41,26.49,26.49,0,0,0-21.93,13.4c-7.83,13.59,29.81,51.57,48,33.78C484.42,459.83,472.34,407.74,456.67,407.13Z"/><path class="cls-10" d="M458.26,466.29l-.68,1.66,1.07-.95.5.53.6-.91.82.27.2-.78,1,.14-.26-.8,1.32-.12-1.52-.71A6.4,6.4,0,0,0,458.26,466.29Z"/><path class="cls-10" d="M524.27,424.74s-4.22-5.91,1.05-15c-1.5-1.13-4.54.76-4.54.76S518.22,422.14,524.27,424.74Z"/><path class="cls-22" d="M498.68,432.19a26.51,26.51,0,0,1,23.81-9.69A26.49,26.49,0,0,1,547.05,415c15.37,3.13,18.89,56.49-6.47,58.31C519.79,487.89,488.76,444.33,498.68,432.19Z"/><path class="cls-25" d="M498.68,432.19a26.51,26.51,0,0,1,23.81-9.69A26.49,26.49,0,0,1,547.05,415c15.37,3.13,18.89,56.49-6.47,58.31C519.79,487.89,488.76,444.33,498.68,432.19Z"/><path class="cls-10" d="M542,472.56l1.69.6-1.42.17.07.73-1.08-.16-.34.8-.72-.37-.54.81-.42-.72-1,.91.47-1.61A6.47,6.47,0,0,1,542,472.56Z"/><path class="cls-10" d="M586.89,422.35s3.53-6.34,14-5.49c.37-1.83-2.63-3.77-2.63-3.77S586.64,415.78,586.89,422.35Z"/><path class="cls-22" d="M569.19,402.43a26.5,26.5,0,0,1,19,17.35,26.5,26.5,0,0,1,17.35,19c3.76,15.22-43,41.28-55.46,19.15C527.91,445.37,554,398.67,569.19,402.43Z"/><path class="cls-24" d="M569.19,402.43a26.5,26.5,0,0,1,19,17.35,26.5,26.5,0,0,1,17.35,19c3.76,15.22-43,41.28-55.46,19.15C527.91,445.37,554,398.67,569.19,402.43Z"/><path class="cls-10" d="M551.26,458.83l.19,1.79-.76-1.21-.64.37-.31-1-.87,0,0-.81-1-.13.47-.7-1.23-.48,1.65-.26A6.48,6.48,0,0,1,551.26,458.83Z"/><path class="cls-26" d="M372.26,429.06V567.18H610V429.06ZM475,451c0-6.56,5-11.87,11.21-11.87h50.05a10.71,10.71,0,0,1,7.91,3.49,12,12,0,0,1,3.29,8.38c0,6.56-5,11.87-11.2,11.87H486.18a10.83,10.83,0,0,1-7.92-3.49A12,12,0,0,1,475,451Z"/><rect class="cls-27" x="372.25" y="429.05" width="40.17" height="138.12" transform="translate(784.67 996.23) rotate(-180)"/><path class="cls-20" d="M322.48,362.63c-1.64,2.5-2.83,4.43-4.17,6.63s-2.5,4.29-3.72,6.45q-3.6,6.48-6.92,13.07A280,280,0,0,0,295.83,416q-2.59,7-4.85,14.22T287.06,445a163.41,163.41,0,0,0-4.26,31l-.05,1.08v1.68c0,1.13.07,2.25.16,3.36a39.33,39.33,0,0,0,1.18,6.49,40.47,40.47,0,0,0,4.85,11A58.58,58.58,0,0,0,302.14,514a91.26,91.26,0,0,0,13.9,9.15,149,149,0,0,0,14,6.68,219.52,219.52,0,0,0,28.09,9.33,238.77,238.77,0,0,0,28.6,5.7,10.16,10.16,0,0,0,5.21-19.45l-.36-.14c-16.41-6.79-33.26-14.25-47.9-23-7.3-4.28-14.14-9.17-19-14a22.74,22.74,0,0,1-4.9-6.61,4.65,4.65,0,0,1-.46-1.83,1.1,1.1,0,0,1,.08-.39s0-.08.07-.12a.09.09,0,0,0,0-.05l.09-.66c1.94-15.67,7.25-31.93,13.85-47.79,3.37-7.93,7-15.82,11-23.6,1.95-3.89,4-7.76,6.09-11.56l3.19-5.65c1-1.8,2.21-3.86,3.06-5.28l.25-.41a20.37,20.37,0,0,0-34.49-21.68Z"/><path class="cls-19" d="M353.33,327.74c-44.55,9-59.43,64.78-59.43,64.78l52.85,41.81s14.22-13.55,19.87-46.69C369.32,371.81,362.27,327.74,353.33,327.74Z"/><path class="cls-20" d="M383.86,523.91l26.71-5.14-3.06,32.49S382.75,553,379.72,540Z"/><path class="cls-20" d="M434.09,534.44l-3,11.21a9.42,9.42,0,0,1-10,6.94l-13.55-1.33,3.06-32.49,16.65,4.08A9.43,9.43,0,0,1,434.09,534.44Z"/></g></svg>