<svg xmlns="http://www.w3.org/2000/svg" viewBox="0 0 2819.19 2402.04"><defs><style>.cls-1{fill:#699ff0;opacity:0.23;}.cls-2{fill:#e1e1e1;}.cls-3{fill:#00dfbf;}.cls-4{fill:#95c38b;}.cls-5{fill:#fff;}.cls-6{fill:#a8d29f;}.cls-7{fill:#2b454e;}.cls-8{fill:#1a2e35;}.cls-9{fill:#375a64;}.cls-10{fill:#edf4ff;}.cls-11{opacity:0.1;}.cls-12{fill:#fafafa;}.cls-13{fill:#f0f0f0;}.cls-14{fill:#60aaaf;}.cls-15{fill:#86d1cd;}.cls-16,.cls-19{opacity:0.15;}.cls-17,.cls-24{opacity:0.3;}.cls-18,.cls-20{fill:#76c0bf;}.cls-20,.cls-34,.cls-37{opacity:0.2;}.cls-21{fill:#fcecdb;}.cls-22,.cls-23,.cls-24,.cls-26{fill:#f9ddbf;}.cls-23,.cls-40,.cls-42{opacity:0.4;}.cls-25{fill:#af9b89;}.cls-26{opacity:0.25;}.cls-27{opacity:0.05;}.cls-28{fill:#ececec;}.cls-29{fill:#f5f5f5;}.cls-30{fill:#f7b284;}.cls-31{fill:#e8a070;}.cls-32{opacity:0.18;}.cls-33{fill:#ff9090;}.cls-35{fill:#c76668;}.cls-36{opacity:0.6;}.cls-38{fill:#2a4e96;}.cls-39{fill:#ffb27d;}.cls-41{fill:#2b478b;}.cls-43{fill:#233862;}</style></defs><title>signin</title><g id="Слой_1" data-name="Слой 1"><ellipse id="Floor" class="cls-1" cx="1428.99" cy="1657.76" rx="1301.76" ry="726.52"/><path id="Shadow" class="cls-2" d="M468.14,2002.28,328.8,1923.93c-12.21-7.06-12.21-18.5,0-25.55L1028.57,1493c12.22-7,32-7,44.25,0l139.33,78.36c12.22,7,12.22,18.49,0,25.55L512.39,2002.28C500.17,2009.33,480.36,2009.33,468.14,2002.28Z"/><g id="Plants"><path class="cls-3" d="M433.76,1585.25c-33.28-138.06-136.47-292.29-239-238S269,1522.68,320.21,1636.7c44.86,99.92,95.07,235.48,106.8,267.49l38.43-18.11C465.18,1852.21,462.37,1704,433.76,1585.25Z"/><path class="cls-4" d="M433.76,1585.25c-33.28-138.06-136.47-292.29-239-238S269,1522.68,320.21,1636.7c44.86,99.92,95.07,235.48,106.8,267.49l38.43-18.11C465.18,1852.21,462.37,1704,433.76,1585.25Z"/><path class="cls-5" d="M435.25,1870.2h.1a3.58,3.58,0,0,0,3.57-3.59C438,1598,324.74,1431.17,228,1369.93a3.58,3.58,0,0,0-3.83,6c95.19,60.27,206.66,224.94,207.56,490.66A3.58,3.58,0,0,0,435.25,1870.2Z"/><path class="cls-6" d="M412.36,1750.33c-79.21-160.07-189.83-177.23-230.74-140.85-32.65,29-8.12,73.18,22.32,92,39.67,24.57,174.36,88.7,219.76,204.21l29.91-14.09C452.52,1871,446.23,1818.8,412.36,1750.33Z"/><path class="cls-5" d="M437,1886a3.83,3.83,0,0,0,3.73-4.55c-26.17-130-150-220.18-212-234.17a3.79,3.79,0,0,0-1.67,7.4c60.25,13.6,180.7,101.52,206.22,228.27A3.79,3.79,0,0,0,437,1886Z"/></g><g id="Device"><g id="Mobile"><path class="cls-7" d="M1062.67,38.05,438.25,398.58c-20.52,11.84-32.81,32.65-34,56.49l0,1426.8c0,23.14,14.29,50.16,31.92,60.34s48.16,9,68.21-2.52l622.14-359.15c20-11.52,36.3-39.81,36.3-62.86V95.86c0-23.14-14.29-50.16-31.92-60.33S1082.72,26.48,1062.67,38.05Z"/><path class="cls-8" d="M495.66,1943.84c-19.39,7.54-44.27,7.17-59.52-1.63-17.6-10.16-31.9-37.19-31.9-60.35l0-1426.79c.19-8.88,2.29-18.75,9.16-31.11L472,457.19c-10.82,13.7-16.55,27.79-16.9,42.3V1911.3C455.06,1939.17,472.66,1952.37,495.66,1943.84Z"/><path class="cls-9" d="M487.06,444.06c-17.6,10.16-32,35.11-32,55.43V1911.33c0,31.26,22.15,44.05,49.23,28.42l622.24-359.21c20-11.52,36.3-39.81,36.3-62.86V95.86c0-23-16.33-32.48-36.3-21Z"/><path class="cls-7" d="M519.88,533.63c-19.05,11-34.49,20-34.49,20v1288.5s15.44-8.88,34.49-19.88l584.88-337.67,34.49-19.91V176.08S1123.73,185,1104.76,196Z"/><path class="cls-3" d="M1095.6,1435.74V201.25L519.88,533.63c-19.05,11-34.49,20-34.49,20V1788.18l575.72-332.38C1080.08,1444.84,1095.6,1435.74,1095.6,1435.74Z"/><path class="cls-10" d="M1095.6,1435.74V201.25L519.88,533.63c-19.05,11-34.49,20-34.49,20V1788.18l575.72-332.38C1080.08,1444.84,1095.6,1435.74,1095.6,1435.74Z"/><path d="M766.71,322.48l105-60.62c6.26-3.62,11.34-1.05,11.34,5.74s-5.08,15.21-11.34,18.83l-105,60.62c-6.26,3.62-11.34,1.05-11.34-5.74S760.45,326.09,766.71,322.48Z"/><path d="M946.87,218.31c5.88-3.4,10.64-.64,10.64,6.14s-4.76,15-10.64,18.43-10.64.64-10.64-6.14S941,221.7,946.87,218.31Z"/><path d="M989.46,193.75c5.88-3.39,10.64-.64,10.64,6.15s-4.76,15-10.64,18.42-10.64.65-10.64-6.14S983.58,197.14,989.46,193.75Z"/><path d="M649,390.33c5.87-3.39,10.64-.64,10.64,6.15s-4.77,15-10.64,18.43-10.64.64-10.64-6.15S643.08,393.73,649,390.33Z"/><path d="M691.54,365.78c5.88-3.39,10.64-.64,10.64,6.14s-4.76,15-10.63,18.43-10.65.64-10.65-6.14S685.67,369.17,691.54,365.78Z"/></g><g id="Milk"><path id="Shadow-2" data-name="Shadow" class="cls-11" d="M521.86,1109.34c-11.53,0-20.23-9.39-20.23-21.83V800.45a35.11,35.11,0,0,1,5-17.35A34.56,34.56,0,0,1,519,770.27L727,650.36A23.73,23.73,0,0,1,738.88,647a19.61,19.61,0,0,1,18.47,12.55l.24-.07a31.54,31.54,0,0,1,1.49,9.39V956c0,11.56-7.28,24.23-17.31,30.12L533.72,1106a33.45,33.45,0,0,1-3.74,1.78A22.57,22.57,0,0,1,521.86,1109.34Z"/><g id="Box"><path class="cls-12" d="M771.52,684.62c0-6.44-4.53-14.28-10.11-17.51l-8.23-4.75c-5.58-3.22-14.63-3.22-20.22,0L525,782.24c-5.59,3.22-10.11,11.06-10.11,17.51v287c0,6.45,4.53,14.29,10.11,17.51l8.23,4.75c5.58,3.22,14.63,3.22,20.22,0L761.41,989.17c5.59-3.22,10.11-11.06,10.11-17.51Z"/><path class="cls-2" d="M514.91,1086.79c0,6.45,4.53,14.29,10.11,17.51l8.23,4.75c5,2.92,12.9,3.17,18.49.82-4.76,1.79-8.38-.89-8.38-6.65V816.17a20.66,20.66,0,0,1,3-10l-28.45-16.42a20.66,20.66,0,0,0-3,10Z"/><path class="cls-13" d="M771.19,681.75c-1.18-4.29-5.09-5.66-9.76-3l-208,119.89a20.06,20.06,0,0,0-7.12,7.55L517.9,789.81a20.46,20.46,0,0,1,7.12-7.55L732.94,662.37c5.62-3.21,14.67-3.21,20.23,0l8.26,4.76C766.19,669.87,770.2,676,771.19,681.75Z"/></g><g id="Milk-2" data-name="Milk"><path class="cls-14" d="M598.71,1042.27a2.42,2.42,0,0,1-1.22-.32,2.45,2.45,0,0,1-1.22-2.11v-150a2.45,2.45,0,0,1,1.22-2.11l118.67-68.52a2.44,2.44,0,0,1,3.66,2.12v150a2.44,2.44,0,0,1-1.22,2.11L599.93,1042A2.42,2.42,0,0,1,598.71,1042.27Zm2.44-151v144.38l113.79-65.7V825.53Z"/><path class="cls-14" d="M647.67,1014a2.44,2.44,0,0,1-2.44-2.44V862.32l-21.34-30.79L601,890.7a2.43,2.43,0,1,1-4.54-1.76L621,825.49a2.46,2.46,0,0,1,2-1.55,2.49,2.49,0,0,1,2.29,1l24.39,35.19a2.39,2.39,0,0,1,.44,1.39v150A2.44,2.44,0,0,1,647.67,1014Z"/><path class="cls-14" d="M647.67,864a2.45,2.45,0,0,1-2-1l-24.4-35.19a2.44,2.44,0,0,1,.79-3.5l69.84-40.33a2.44,2.44,0,0,1,3.22.72l24.39,35.19a2.44,2.44,0,0,1,.38,1.93,2.48,2.48,0,0,1-1.16,1.58l-69.84,40.32A2.45,2.45,0,0,1,647.67,864Zm-20.88-36.83,21.6,31.16L714,820.44l-21.6-31.16Z"/><path class="cls-14" d="M623.28,828.81a2.44,2.44,0,0,1-2.44-2.44V809.94a2.44,2.44,0,0,1,1.22-2.11l69.84-40.32a2.44,2.44,0,0,1,3.66,2.11V786a2.44,2.44,0,1,1-4.88,0v-12.2l-65,37.51v15A2.45,2.45,0,0,1,623.28,828.81Z"/><path class="cls-14" d="M663.7,976.86l4.72-13.66c.06-.15.18-.39.34-.72a1.69,1.69,0,0,1,.73-.79l1.69-1a.4.4,0,0,1,.47,0,.61.61,0,0,1,.2.51v21.41a1.61,1.61,0,0,1-.2.74,1.21,1.21,0,0,1-.47.54l-2,1.16a.39.39,0,0,1-.47,0,.61.61,0,0,1-.2-.51v-13l-3.23,9.32a6.63,6.63,0,0,1-.34.75,1.55,1.55,0,0,1-.58.61l-1.29.75a.53.53,0,0,1-.57.05,1.29,1.29,0,0,1-.35-.35l-3.23-5.59v13a1.62,1.62,0,0,1-.2.75,1.33,1.33,0,0,1-.47.54l-2,1.16a.4.4,0,0,1-.48,0,.63.63,0,0,1-.2-.52v-21.4a1.62,1.62,0,0,1,.2-.75,1.35,1.35,0,0,1,.48-.54l1.69-1c.33-.2.57-.22.73-.06a3.14,3.14,0,0,1,.33.34Z"/><path class="cls-14" d="M676.4,980.9a.39.39,0,0,1-.47,0,.58.58,0,0,1-.2-.51V959a1.5,1.5,0,0,1,.2-.74,1.21,1.21,0,0,1,.47-.54l2-1.16a.39.39,0,0,1,.47,0,.62.62,0,0,1,.2.52v21.4a1.69,1.69,0,0,1-.2.75,1.33,1.33,0,0,1-.47.54Z"/><path class="cls-14" d="M694.52,966.29a.4.4,0,0,1,.47,0,.61.61,0,0,1,.2.51v2.35a1.65,1.65,0,0,1-.2.75,1.33,1.33,0,0,1-.47.54l-10.89,6.28a.39.39,0,0,1-.47,0,.62.62,0,0,1-.2-.52v-21.4a1.65,1.65,0,0,1,.2-.75,1.33,1.33,0,0,1,.47-.54l2-1.16a.42.42,0,0,1,.48,0,.63.63,0,0,1,.2.52V971Z"/><path class="cls-14" d="M710.77,959.66a.34.34,0,0,1,.15.21.81.81,0,0,1,0,.19,1.61,1.61,0,0,1-.2.74,1.35,1.35,0,0,1-.48.54l-2.36,1.36c-.33.19-.59.23-.79.11s-.32-.18-.35-.21l-5.84-5.41v8.65a1.61,1.61,0,0,1-.2.74,1.21,1.21,0,0,1-.47.54l-2,1.16a.39.39,0,0,1-.47,0,.61.61,0,0,1-.2-.51V946.37a1.65,1.65,0,0,1,.2-.75,1.24,1.24,0,0,1,.47-.53l2-1.17a.4.4,0,0,1,.47,0,.61.61,0,0,1,.2.51v7.79l5.42-11.09a5.45,5.45,0,0,1,.47-.8,2.22,2.22,0,0,1,.64-.57l2.29-1.32a.42.42,0,0,1,.48,0,.63.63,0,0,1,.2.52,1.41,1.41,0,0,1-.16.58l-6.68,13.57Z"/></g></g><g id="Apple"><path id="Shadow-3" data-name="Shadow" class="cls-11" d="M809.91,943c-11.54,0-20.23-9.38-20.23-21.82V634.09a35.11,35.11,0,0,1,5-17.34,34.49,34.49,0,0,1,12.42-12.83l208-119.91a23.59,23.59,0,0,1,11.83-3.33,19.62,19.62,0,0,1,18.48,12.54l.23-.07a31.34,31.34,0,0,1,1.5,9.39V789.6c0,11.56-7.28,24.23-17.32,30.13l-208,119.91a32.45,32.45,0,0,1-3.73,1.78A22.65,22.65,0,0,1,809.91,943Z"/><g id="Box-2" data-name="Box"><path class="cls-12" d="M1060.21,518.07c0-6.44-4.53-14.28-10.11-17.5l-8.23-4.76c-5.58-3.22-14.63-3.22-20.22,0L813.71,615.69c-5.59,3.23-10.11,11.06-10.11,17.51v287c0,6.45,4.52,14.29,10.11,17.51l8.23,4.75c5.58,3.23,14.63,3.23,20.21,0L1050.1,822.62c5.58-3.22,10.11-11.06,10.11-17.5Z"/><path class="cls-2" d="M803.6,920.24c0,6.45,4.52,14.29,10.11,17.51l8.23,4.75c5,2.92,12.89,3.17,18.49.82-4.76,1.8-8.38-.89-8.38-6.65v-287a20.66,20.66,0,0,1,3-10l-28.45-16.42a20.66,20.66,0,0,0-3,10Z"/><path class="cls-13" d="M1059.88,515.2c-1.18-4.29-5.1-5.66-9.76-3l-208,119.9a20,20,0,0,0-7.12,7.54l-28.44-16.41a20.35,20.35,0,0,1,7.12-7.54l207.92-119.9c5.61-3.21,14.67-3.21,20.23,0l8.26,4.76C1054.88,503.32,1058.89,509.45,1059.88,515.2Z"/></g><g id="Apple-2" data-name="Apple"><path class="cls-14" d="M912.47,858.09c-11.69,0-22.6-6.4-32.46-19-28.22-36.2-13-115,18.65-141.08,21.2-17.48,32.5-15,40.29-9.89,6.51-2.77,11.46-8.78,17.15-15.68,8.31-10.08,18.66-22.64,38.21-29.64,8.69-3.12,16.61-1.28,22.92,5.32,15.62,16.35,19.31,63.64-1.55,114.48-29.59,72.1-59.65,75.38-66.91,75.1-3.57,4.41-17.61,20.18-35.89,20.42Zm14.45-168.85c-5.92,0-13.77,3.12-25.15,12.5-29.47,24.32-44.21,100.59-17.91,134.32,9,11.51,18.92,17.19,29,17.15,18.41-.23,32.75-19.35,32.89-19.55a2.48,2.48,0,0,1,2.44-.94c.27,0,31.55,4.65,63-72,20.11-49,17.08-94,2.54-109.26-4.94-5.17-10.91-6.55-17.74-4.1-18.3,6.55-27.75,18-36.09,28.15-5.43,6.59-10.23,12.42-16.57,15.89l.91.76c3.87,3.24,6.41,5.21,9.55,4.72,4.37-.67,11.56-6.15,17-16.6a2.44,2.44,0,1,1,4.32,2.26c-5.53,10.57-13.62,18.1-20.61,19.16-5.52.83-9.52-2.54-13.42-5.8S933.14,689.24,926.92,689.24Z"/><path class="cls-14" d="M955.1,701.17a2.44,2.44,0,0,1-2.44-2.34c-1.32-32.7,18.5-82.83,37.89-95.79a2.44,2.44,0,1,1,2.71,4.06c-17.94,12-37,60.75-35.73,91.53a2.44,2.44,0,0,1-2.33,2.54Z"/><path class="cls-14" d="M947.51,669.13h-.35c-4-.13-7.41-2.44-9.6-6.5-6.1-11.33-3-30-2.83-30.74a2.87,2.87,0,0,1,1.42-2c.59-.33,14.44-8,24.38-1,8.91,6.26,6.88,22.08,1.51,30.67C958.37,665.41,952.71,669.13,947.51,669.13Zm-7.34-34.85c-.56,4.33-1.85,17.65,2.44,25.64,1.21,2.24,2.81,3.41,4.74,3.48,3.33,0,7.18-2.67,9.82-6.89h0c4.53-7.23,5.56-19.07.06-22.93S943.28,632.84,940.17,634.28Z"/></g></g><g id="Fish"><path id="Shadow-4" data-name="Shadow" class="cls-11" d="M521.86,1501.66c-11.53,0-20.23-9.38-20.23-21.82V1192.77a35.11,35.11,0,0,1,5-17.34A34.49,34.49,0,0,1,519,1162.6l208-119.91a23.63,23.63,0,0,1,11.84-3.33,19.6,19.6,0,0,1,18.47,12.54l.24-.07a31.59,31.59,0,0,1,1.49,9.39v287.06c0,11.56-7.28,24.23-17.31,30.13l-208,119.91a31.77,31.77,0,0,1-3.74,1.78A22.57,22.57,0,0,1,521.86,1501.66Z"/><g id="Box-3" data-name="Box"><path class="cls-12" d="M771.52,1076.83c0-6.45-4.53-14.28-10.11-17.51l-8.23-4.75c-5.58-3.22-14.63-3.22-20.22,0L525,1174.45c-5.59,3.22-10.11,11.06-10.11,17.51v287c0,6.45,4.53,14.28,10.11,17.51l8.23,4.75c5.58,3.22,14.63,3.22,20.22,0l207.94-119.88c5.59-3.22,10.11-11.06,10.11-17.51Z"/><path class="cls-2" d="M514.91,1479c0,6.45,4.53,14.29,10.11,17.51l8.23,4.75c5,2.91,12.9,3.17,18.49.82-4.76,1.79-8.38-.89-8.38-6.66v-287a20.66,20.66,0,0,1,3-10L517.87,1182a20.6,20.6,0,0,0-3,10Z"/><path class="cls-13" d="M771.19,1074c-1.18-4.29-5.09-5.66-9.76-3l-208,119.89a20.06,20.06,0,0,0-7.12,7.55L517.9,1182a20.46,20.46,0,0,1,7.12-7.55l207.92-119.89c5.62-3.21,14.67-3.21,20.23,0l8.26,4.76C766.19,1062.07,770.2,1068.21,771.19,1074Z"/></g><g id="Fish-2" data-name="Fish"><path class="cls-14" d="M617.91,1357.11a2.39,2.39,0,0,1-1.29-.37,2.44,2.44,0,0,1-1.16-2.11c1.84-106.52,75.78-204.91,135.78-215.36a2.49,2.49,0,0,1,1.91.48,2.45,2.45,0,0,1,.94,1.73c.19,2.34,4,58.27-54.84,138-42.35,57.37-78.69,76.59-80.22,77.38A2.5,2.5,0,0,1,617.91,1357.11Zm131.37-212.48c-56.85,12.47-125.2,104.78-128.82,205.72,10.3-6.41,40.91-27.79,74.87-73.79C745.73,1208.26,749.23,1156.82,749.28,1144.63Z"/><path class="cls-14" d="M723.5,1239.48h-.15c-25-1.51-38.18-23.17-36.24-59.42a2.4,2.4,0,0,1,2.57-2.31,2.44,2.44,0,0,1,2.31,2.57c-1.79,33.18,9.75,53,31.66,54.29a2.44,2.44,0,0,1-.15,4.87Z"/><path class="cls-14" d="M572.46,1389.06a19.88,19.88,0,0,1-13.83-5.13,2.45,2.45,0,0,1-.5-2.94c18-34,44.94-47.76,61.12-43.35a2.44,2.44,0,1,1-1.28,4.7c-14.24-3.88-38.35,9.73-54.58,39.18,3.24,2.29,7.32,3.1,12.21,2.44,13.43-1.88,30.73-15,40.22-30.56a2.44,2.44,0,0,1,4.17,2.54c-10.19,16.67-29,30.79-43.71,32.85A28,28,0,0,1,572.46,1389.06Z"/><path class="cls-14" d="M627.22,1429a2.44,2.44,0,0,1-1.33-.4c-19-12.35-19.49-47.72-10.25-74.72a2.44,2.44,0,1,1,4.61,1.57c-8.35,24.42-8.1,55.39,6.09,67.42,13.68-28.25,10.43-64.05.64-73.24a2.44,2.44,0,1,1,3.34-3.55c12.71,11.93,14.77,51.94-1,81.62a2.45,2.45,0,0,1-1.54,1.22A2.55,2.55,0,0,1,627.22,1429Z"/><path class="cls-14" d="M696.81,1260.06h-.09c-15.18-.6-26-20.83-26.62-39.35a2.44,2.44,0,0,1,2.36-2.52,2.4,2.4,0,0,1,2.52,2.36c.51,16,10,34.16,21.92,34.63a2.44,2.44,0,0,1-.09,4.88Z"/><path class="cls-14" d="M678,1281.8l-.4,0c-9.68-1.58-20.4-19.17-22-31.93a2.44,2.44,0,0,1,2.1-2.74,2.5,2.5,0,0,1,2.74,2.11c1.49,11.61,11.25,26.65,18,27.74a2.44,2.44,0,0,1-.39,4.85Z"/><path class="cls-14" d="M660.9,1303.09a3.28,3.28,0,0,1-.43,0c-8.05-1.43-17.51-17.25-19-26a2.44,2.44,0,0,1,4.81-.79c1.38,8.39,10.07,21.16,15,22a2.44,2.44,0,0,1-.42,4.84Z"/><path class="cls-14" d="M642.24,1323a2.81,2.81,0,0,1-.49,0c-5.52-1.14-11-7.08-12.56-13.52a2.44,2.44,0,0,1,1.81-2.93,2.4,2.4,0,0,1,2.94,1.81c1.18,5,5.58,9.2,8.79,9.86a2.44,2.44,0,0,1-.49,4.83Z"/><path class="cls-14" d="M713.66,1195.37a6,6,0,0,1-3-.81c-2.32-1.34-3.65-4.18-3.65-7.8,0-6,3.63-12.88,8.25-15.55,2.49-1.43,5-1.57,7-.37,2.32,1.34,3.65,4.18,3.65,7.8,0,6-3.63,12.88-8.26,15.55A8.12,8.12,0,0,1,713.66,1195.37Zm5.59-20.45a3.52,3.52,0,0,0-1.57.52c-3.15,1.81-5.81,7-5.81,11.32,0,2.13.66,3.26,1.21,3.58s1.64-.07,2.16-.37c3.16-1.82,5.82-7,5.82-11.33,0-2.12-.65-3.25-1.21-3.58A1.23,1.23,0,0,0,719.25,1174.92Z"/><path class="cls-14" d="M639.28,1259.39a2.45,2.45,0,0,1-2.23-1.45c-3.25-7.28-18.36-3.45-18.51-3.41a2.49,2.49,0,0,1-2.41-.69,2.45,2.45,0,0,1-.54-2.45c4.39-13,29.79-41.66,50.13-45.51a2.44,2.44,0,0,1,.9,4.79c-16.57,3.14-37.6,25.25-44.59,38.25,6-.79,16-.75,19.48,7a2.45,2.45,0,0,1-2.23,3.44Z"/></g></g><g id="Watermelon"><path id="Shadow-5" data-name="Shadow" class="cls-11" d="M809.91,1334.68c-11.54,0-20.23-9.39-20.23-21.83V1025.79a35.11,35.11,0,0,1,5-17.35,34.56,34.56,0,0,1,12.42-12.83l208-119.91a23.59,23.59,0,0,1,11.83-3.33,19.62,19.62,0,0,1,18.48,12.54l.23-.06a31.22,31.22,0,0,1,1.5,9.38V1181.3c0,11.56-7.28,24.22-17.32,30.12l-208,119.92a32.27,32.27,0,0,1-3.73,1.77A22.45,22.45,0,0,1,809.91,1334.68Z"/><g id="Box-4" data-name="Box"><path class="cls-12" d="M1060.21,910.28c0-6.44-4.53-14.28-10.11-17.51l-8.23-4.75c-5.58-3.22-14.63-3.22-20.22,0L813.71,1007.9c-5.59,3.23-10.11,11.06-10.11,17.51v287c0,6.45,4.52,14.29,10.11,17.51l8.23,4.75c5.58,3.23,14.63,3.23,20.21,0l207.95-119.88c5.58-3.22,10.11-11.06,10.11-17.5Z"/><path class="cls-2" d="M803.6,1312.45c0,6.45,4.52,14.29,10.11,17.51l8.23,4.75c5,2.92,12.89,3.17,18.49.82-4.76,1.8-8.38-.89-8.38-6.65V1041.83a20.66,20.66,0,0,1,3-10l-28.45-16.42a20.66,20.66,0,0,0-3,10Z"/><path class="cls-13" d="M1059.88,907.41c-1.18-4.29-5.1-5.66-9.76-3l-208,119.9a20,20,0,0,0-7.12,7.54l-28.44-16.41a20.46,20.46,0,0,1,7.12-7.55L1021.63,888c5.61-3.21,14.67-3.21,20.23,0l8.26,4.76C1054.88,895.53,1058.89,901.66,1059.88,907.41Z"/></g><g id="Watermelon-2" data-name="Watermelon"><path class="cls-14" d="M893.82,1210.39a66.75,66.75,0,0,1-31.73-7.7,2.44,2.44,0,0,1-1.06-3.17l80.81-176.26a2.43,2.43,0,0,1,1.8-1.38,2.39,2.39,0,0,1,2.17.7l80.85,82.95a2.45,2.45,0,0,1,.35,3c-22.86,38.54-51.89,69.25-81.73,86.48C927.52,1205.21,910,1210.39,893.82,1210.39Zm-27.39-11c21.55,10.42,48.57,7.39,76.41-8.69,28.71-16.58,56.73-46.07,79-83.15l-77.05-79.06Z"/><path class="cls-14" d="M887.28,1234a75,75,0,0,1-35.6-8.63,2.45,2.45,0,0,1-1.07-3.18l91.23-199a2.43,2.43,0,0,1,1.8-1.38,2.39,2.39,0,0,1,2.17.7l91.23,93.61a2.43,2.43,0,0,1,.35,3c-25.73,43.42-58.44,78-92.11,97.48C925.25,1228.19,905.49,1234,887.28,1234ZM856,1222.13c24.42,12,55.15,8.55,86.82-9.73,32.54-18.79,64.24-52.19,89.4-94.14l-87.44-89.73Z"/><path class="cls-14" d="M852.82,1225.68a2.44,2.44,0,0,1-2.21-3.46l91.23-199a2.43,2.43,0,0,1,1.8-1.38,2.39,2.39,0,0,1,2.17.7l91.23,93.61a2.44,2.44,0,0,1-3.49,3.41l-88.75-91.07L855,1224.26A2.44,2.44,0,0,1,852.82,1225.68Z"/><path class="cls-14" d="M942.33,1079.16a3.68,3.68,0,0,1-2.37-.84c-2.62-2.19-2-8.68,1.81-19.28a2.44,2.44,0,0,1,4.37-.46c.5.82,4.85,8.13,3.32,14.17a8.65,8.65,0,0,1-4.18,5.5A5.92,5.92,0,0,1,942.33,1079.16Zm1-4.3h0Zm1.11-8a31.73,31.73,0,0,0-1.25,7,3.7,3.7,0,0,0,1.54-2.25A9.56,9.56,0,0,0,944.44,1066.86Z"/><path class="cls-14" d="M942.33,1168.06a3.62,3.62,0,0,1-2.37-.84c-2.62-2.19-2-8.67,1.81-19.28a2.44,2.44,0,0,1,2-1.6,2.4,2.4,0,0,1,2.33,1.15c.5.81,4.85,8.12,3.32,14.17a8.68,8.68,0,0,1-4.18,5.5A5.89,5.89,0,0,1,942.33,1168.06Zm1-4.3h0Zm1.11-8a31.83,31.83,0,0,0-1.25,7,3.71,3.71,0,0,0,1.54-2.24A9.6,9.6,0,0,0,944.44,1155.76Z"/><path class="cls-14" d="M989.09,1129.64a3.7,3.7,0,0,1-1.34-.25c-3.81-1.46-4.19-9.35-3.83-15.71a2.44,2.44,0,0,1,3-2.23c.75.19,7.32,2,9,6.88.61,1.82.74,4.75-2.14,8.35C992.2,1128.65,990.63,1129.64,989.09,1129.64Zm.73-4.6h0Zm-1.1-7.64a28.58,28.58,0,0,0,.73,6.83c.14-.16.31-.35.51-.6,1.21-1.51,1.66-2.77,1.33-3.74A5.32,5.32,0,0,0,988.72,1117.4Z"/><path class="cls-14" d="M896.59,1182.82l-.57,0a4.33,4.33,0,0,1-3.72-2.52c-2.13-4.67,4.52-14.86,7.48-19a2.44,2.44,0,0,1,4.42,1.27c.14,2.39.63,14.5-3.73,18.7A5.49,5.49,0,0,1,896.59,1182.82Zm2.43-11c-1.61,3.08-2.54,5.6-2.27,6.5,0-.33.1-.36.33-.58C898,1176.78,898.66,1174.47,899,1171.78Z"/><path class="cls-14" d="M921,1134.34a4,4,0,0,1-3.39-1.67c-2.6-3.67,1.52-12.71,5.43-19.64a2.39,2.39,0,0,1,2.49-1.22,2.45,2.45,0,0,1,2,1.9c.27,1.24,2.52,12.28-1.07,17.6a6.66,6.66,0,0,1-4.43,2.94A6.77,6.77,0,0,1,921,1134.34Zm.66-4.35h0Zm1.95-7.11a24.5,24.5,0,0,0-2,6.42,1.78,1.78,0,0,0,.83-.71C923.31,1127.36,923.63,1125.22,923.65,1122.88Z"/><path class="cls-14" d="M964,1109.87a3.52,3.52,0,0,1-1.67-.42c-2.92-1.54-3.53-7.4-1.79-17.42a2.45,2.45,0,0,1,1.41-1.81,2.4,2.4,0,0,1,2.28.16c.66.4,6.46,4.16,7.07,9.65.21,1.91-.16,4.8-3.12,7.7C966.51,1109.35,965.1,1109.87,964,1109.87Zm.94-4.46h0Zm-.19-8.19a33.12,33.12,0,0,0-.12,7.16l.14-.14a4.5,4.5,0,0,0,1.68-3.67A6.55,6.55,0,0,0,964.73,1097.22Z"/></g></g><g id="Button"><path id="Shadow-6" data-name="Shadow" class="cls-11" d="M636.59,1651.6c-11.54,0-20.24-9.39-20.24-21.83v-111a35.11,35.11,0,0,1,5-17.35,34.56,34.56,0,0,1,12.42-12.83l323.29-186a23.59,23.59,0,0,1,11.83-3.33,19.59,19.59,0,0,1,18.47,12.54l.24-.07a31.61,31.61,0,0,1,1.5,9.39v111c0,11.56-7.29,24.23-17.32,30.13l-323.32,186a31.6,31.6,0,0,1-3.74,1.77A22.36,22.36,0,0,1,636.59,1651.6Z"/><g id="Button-2" data-name="Button"><path class="cls-15" d="M1001.51,1336.82c0-6.45-4.52-14.28-10.11-17.51l-8.23-4.75c-5.58-3.22-14.63-3.22-20.21,0L639.74,1500.5c-5.58,3.22-10.11,11.06-10.11,17.5v110.93c0,6.45,4.53,14.29,10.11,17.51l8.23,4.75c5.58,3.23,14.63,3.23,20.22,0l323.22-185.93c5.58-3.22,10.1-11.06,10.1-17.51Z"/><path class="cls-16" d="M1001.51,1336.82c0-6.45-4.52-14.28-10.11-17.51l-8.23-4.75c-5.58-3.22-14.63-3.22-20.21,0L639.74,1500.5c-5.58,3.22-10.11,11.06-10.11,17.5v110.93c0,6.45,4.53,14.29,10.11,17.51l8.23,4.75c5.58,3.23,14.63,3.23,20.22,0l323.22-185.93c5.58-3.22,10.1-11.06,10.1-17.51Z"/><path class="cls-17" d="M629.63,1628.93c0,6.45,4.53,14.29,10.11,17.51l8.23,4.75c5,2.92,12.9,3.17,18.49.82-4.76,1.8-8.38-.89-8.38-6.65V1534.43a20.6,20.6,0,0,1,3-10L632.59,1508a20.66,20.66,0,0,0-3,10Z"/><path class="cls-16" d="M1001.18,1334c-1.18-4.29-5.09-5.66-9.76-3l-323.24,186a20,20,0,0,0-7.12,7.54l-28.44-16.41a20.42,20.42,0,0,1,7.12-7.54l323.2-186c5.61-3.21,14.66-3.21,20.23,0l8.25,4.76C996.18,1322.06,1000.19,1328.2,1001.18,1334Z"/></g><path class="cls-12" d="M689.67,1605.24a.92.92,0,0,1-1.21-.09,2.06,2.06,0,0,1-.51-1.57v-63.4a4.84,4.84,0,0,1,.51-2.15,3.23,3.23,0,0,1,1.21-1.49l20.52-11.85q4.27-2.46,7.2-2.33a6.42,6.42,0,0,1,4.69,2,11.06,11.06,0,0,1,2.52,5.12,29.82,29.82,0,0,1,.76,6.87,30.61,30.61,0,0,1-.41,5.19,36,36,0,0,1-1,4.21,26.53,26.53,0,0,1-1.18,3.13c-.41.85-.73,1.52-1,2a6.74,6.74,0,0,1,3.47,4.13,24.68,24.68,0,0,1,1,7.82,48.11,48.11,0,0,1-.77,8.3,36.48,36.48,0,0,1-2.52,8.26,32.12,32.12,0,0,1-4.56,7.45,25,25,0,0,1-6.89,5.79Zm23.84-61.65c0-1.71-.33-2.87-1-3.5s-1.63-.59-2.9.15l-9.88,5.7v11.19l9.88-5.71a7,7,0,0,0,2.9-3.19A10.69,10.69,0,0,0,713.51,1543.59Zm-13.77,40.62,10.51-6.07a7.74,7.74,0,0,0,3.06-3.48,11.18,11.18,0,0,0,1.15-4.94,4.7,4.7,0,0,0-1.15-3.6c-.76-.7-1.79-.69-3.06.05l-10.51,6.07Z"/><path class="cls-12" d="M769.91,1490.21a.92.92,0,0,1,1.21.09,2.1,2.1,0,0,1,.52,1.57V1531a55.74,55.74,0,0,1-1.41,12.78,48.09,48.09,0,0,1-4,11,40.18,40.18,0,0,1-6.15,8.9,33.65,33.65,0,0,1-7.84,6.34,18.72,18.72,0,0,1-7.9,2.75,8.47,8.47,0,0,1-6.13-1.82,13.32,13.32,0,0,1-4-6.45,37.2,37.2,0,0,1-1.4-11.16v-39.16a5,5,0,0,1,.51-2.15,3.18,3.18,0,0,1,1.21-1.49l8.35-4.82a.92.92,0,0,1,1.21.09,2.1,2.1,0,0,1,.51,1.57v38.76q0,5.9,1.88,8.14t5.71,0a13.42,13.42,0,0,0,5.7-6.63,26.2,26.2,0,0,0,1.88-10.31v-38.76a5,5,0,0,1,.51-2.15,3.21,3.21,0,0,1,1.21-1.5Z"/><path class="cls-12" d="M803.44,1536.9a5,5,0,0,1-.51,2.16,3.21,3.21,0,0,1-1.21,1.48l-8.36,4.83a.93.93,0,0,1-1.21-.09,2.1,2.1,0,0,1-.51-1.57V1522.8l-14.72-33.2a2.59,2.59,0,0,1-.25-1.13,4.07,4.07,0,0,1,.41-1.76,2.66,2.66,0,0,1,1-1.2l8.73-5c.85-.49,1.49-.52,1.91-.12a2.86,2.86,0,0,1,.77,1l8,19.51,8.09-28.82a11.48,11.48,0,0,1,.77-1.91,4.59,4.59,0,0,1,1.91-2.08l8.73-5a.75.75,0,0,1,1,.07,1.7,1.7,0,0,1,.41,1.28,4.94,4.94,0,0,1-.25,1.42L803.44,1516Z"/><path class="cls-12" d="M864.62,1504.22c-.72.42-1.31.47-1.75.13a2.67,2.67,0,0,1-.86-.88l-14.59-25.13v33.17a5,5,0,0,1-.52,2.16,3.17,3.17,0,0,1-1.21,1.49l-8.35,4.82a.91.91,0,0,1-1.21-.1,2.06,2.06,0,0,1-.51-1.56v-63.39a5,5,0,0,1,.51-2.16,3.23,3.23,0,0,1,1.21-1.49l6.63-3.82a1.52,1.52,0,0,1,1.76-.13,3,3,0,0,1,.86.87l14.59,25.14v-33.17a5,5,0,0,1,.51-2.16,3.2,3.2,0,0,1,1.21-1.48l8.35-4.82a.92.92,0,0,1,1.21.08,2.1,2.1,0,0,1,.52,1.57v63.39a5,5,0,0,1-.52,2.16,3.23,3.23,0,0,1-1.21,1.49Z"/><path class="cls-12" d="M880.43,1452a56.29,56.29,0,0,1,1.56-11.26,50.24,50.24,0,0,1,3.9-10.68,44.67,44.67,0,0,1,6.11-9.23,32,32,0,0,1,8.32-6.91,16.88,16.88,0,0,1,8.29-2.67,9.24,9.24,0,0,1,6.14,2.14,13.55,13.55,0,0,1,3.89,6.19,33.31,33.31,0,0,1,1.57,9.45q.12,4.15.12,8.76t-.12,8.71a55.5,55.5,0,0,1-1.57,11.26,51,51,0,0,1-3.89,10.73,42.94,42.94,0,0,1-6.14,9.24,32.83,32.83,0,0,1-8.29,6.85,17.42,17.42,0,0,1-8.32,2.74,8.85,8.85,0,0,1-6.11-2.16,13.85,13.85,0,0,1-3.9-6.24,33.63,33.63,0,0,1-1.56-9.46c-.08-2.62-.13-5.48-.13-8.56S880.35,1454.88,880.43,1452Zm28,.83c0-1.22.09-2.55.13-4s.07-2.95.07-4.45,0-3-.07-4.33-.09-2.61-.13-3.71a16.88,16.88,0,0,0-.67-4.12,6.3,6.3,0,0,0-1.52-2.7,3.5,3.5,0,0,0-2.46-1,6.83,6.83,0,0,0-3.44,1.1,13.22,13.22,0,0,0-3.44,2.87,17.39,17.39,0,0,0-2.46,3.83,20.93,20.93,0,0,0-1.52,4.46,28.08,28.08,0,0,0-.68,4.9c-.09,1.17-.13,2.45-.16,3.87s0,2.88,0,4.39,0,3,0,4.39.07,2.71.16,3.84q.25,4.75,2.2,6.87c1.3,1.42,3.26,1.36,5.9-.16a13.88,13.88,0,0,0,5.86-6.62A27.33,27.33,0,0,0,908.41,1452.85Z"/><path class="cls-12" d="M958,1417.44l4.08-35.52a6.26,6.26,0,0,1,.76-2.51,3.76,3.76,0,0,1,1.21-1.28l8.36-4.83a.76.76,0,0,1,1,.07,1.73,1.73,0,0,1,.42,1.29,7.66,7.66,0,0,1-.06.81l-8.23,66.77a8.21,8.21,0,0,1-1,3.14,5.79,5.79,0,0,1-2.17,2.43l-5.29,3c-.85.49-1.54.5-2.06,0a3.74,3.74,0,0,1-1.12-1.91l-4.78-19.42-4.78,24.94a12.89,12.89,0,0,1-1.12,3.2,5.29,5.29,0,0,1-2.07,2.37l-5.29,3.06a1.86,1.86,0,0,1-2.17.07,2.63,2.63,0,0,1-1-2L924.41,1404a5.86,5.86,0,0,1-.06-.75,3.92,3.92,0,0,1,.42-1.76,2.54,2.54,0,0,1,1-1.2l8.35-4.83a1.29,1.29,0,0,1,1.21-.11c.38.17.64.71.76,1.62l4.08,30.82,3.77-19.94a14,14,0,0,1,.57-2.1,3.58,3.58,0,0,1,1.59-2l6-3.45q1.14-.67,1.59.15a5.32,5.32,0,0,1,.57,1.44Z"/></g><g id="Awning"><polygon class="cls-15" points="485.39 553.59 624.09 748.07 1278.05 370.56 1139.25 176.08 485.39 553.59"/><polygon class="cls-12" points="544.75 519.27 604.19 484.95 742.97 679.45 683.52 713.76 544.75 519.27"/><polygon class="cls-12" points="663.71 450.63 723.15 416.31 861.93 610.8 802.49 645.12 663.71 450.63"/><polygon class="cls-12" points="782.67 381.99 842.12 347.68 980.89 542.16 921.45 576.48 782.67 381.99"/><polygon class="cls-12" points="901.64 313.35 961.08 279.04 1099.85 473.52 1040.41 507.84 901.64 313.35"/><polygon class="cls-12" points="1020.6 244.71 1080.04 210.4 1218.82 404.88 1159.37 439.2 1020.6 244.71"/><path class="cls-2" d="M683.52,713.75c0,19,13.31,26.64,29.72,17.16S743,698.39,743,679.44Z"/><path class="cls-2" d="M802.39,645.12c0,19,13.3,26.64,29.72,17.16s29.72-32.52,29.71-51.47Z"/><path class="cls-2" d="M921.25,576.49c0,19,13.31,26.64,29.72,17.16s29.72-32.52,29.72-51.47Z"/><path class="cls-2" d="M1040.12,507.87c0,19,13.3,26.63,29.72,17.16s29.72-32.53,29.72-51.48Z"/><path class="cls-2" d="M1159,439.24c0,18.95,13.31,26.64,29.72,17.16s29.72-32.52,29.72-51.48Z"/><path class="cls-18" d="M624.09,748.06c0,19,13.3,26.64,29.72,17.16s29.72-32.52,29.71-51.47Z"/><path class="cls-18" d="M743,679.44c0,18.95,13.31,26.63,29.72,17.16s29.72-32.53,29.72-51.48Z"/><path class="cls-18" d="M861.82,610.81c0,19,13.31,26.64,29.72,17.16s29.72-32.52,29.72-51.48Z"/><path class="cls-18" d="M980.69,542.18c0,19,13.3,26.64,29.72,17.16s29.71-32.52,29.71-51.47Z"/><path class="cls-18" d="M1099.55,473.55c0,19,13.31,26.64,29.72,17.16S1159,458.19,1159,439.24Z"/><path class="cls-18" d="M1218.42,404.92c0,19,13.3,26.64,29.72,17.16s29.72-32.52,29.72-51.47Z"/><g class="cls-19"><path class="cls-18" d="M624.09,748.06c0,19,13.3,26.64,29.72,17.16s29.72-32.52,29.71-51.47Z"/><path class="cls-18" d="M743,679.44c0,18.95,13.31,26.63,29.72,17.16s29.72-32.53,29.72-51.48Z"/><path class="cls-18" d="M861.82,610.81c0,19,13.31,26.64,29.72,17.16s29.72-32.52,29.72-51.48Z"/><path class="cls-18" d="M980.69,542.18c0,19,13.3,26.64,29.72,17.16s29.71-32.52,29.71-51.47Z"/><path class="cls-18" d="M1099.55,473.55c0,19,13.31,26.64,29.72,17.16S1159,458.19,1159,439.24Z"/><path class="cls-18" d="M1218.42,404.92c0,19,13.3,26.64,29.72,17.16s29.72-32.52,29.72-51.47Z"/></g><polygon class="cls-18" points="624.09 748.07 485.38 645.11 485.39 553.59 624.09 748.07"/><polygon class="cls-20" points="624.09 748.07 485.38 645.11 485.39 553.59 624.09 748.07"/></g></g><g id="Groceries"><polygon class="cls-21" points="1751.74 1441.46 2250.3 1729.3 2564.21 1548.07 2065.62 1260.19 1751.74 1441.46"/><path class="cls-16" d="M2516.24,1515.14l-421.35-243.45c-10.61-6.12-27.8-6.12-38.41,0l-148.09,85.5c-37.37-3.67-79.1,3.11-111.18,20.27-51.81,27.69-59,71.86-16.18,98.65,41.24,25.77,114,26,165.81,1.33l317.23,183.29c10.61,6.13,27.8,6.13,38.41,0l213.76-123.42C2526.84,1531.19,2526.84,1521.26,2516.24,1515.14Z"/><polygon class="cls-22" points="2065.62 812.48 2065.62 1260.19 1751.74 1441.46 1677.87 1036.36 2065.62 812.48"/><polyline class="cls-23" points="1677.87 1036.36 2065.62 812.48 2065.62 1260.19 1751.74 1441.46 1677.87 1036.36"/><polygon class="cls-22" points="2638.07 1142.96 2564.21 1548.07 2065.62 1260.19 2065.62 812.48 2638.07 1142.96"/><polygon class="cls-24" points="2638.07 1142.96 2564.21 1548.07 2065.62 1260.19 2065.62 812.48 2638.07 1142.96"/><path class="cls-25" d="M2663.44,1143h-25.37L2065.62,812.48l-387.75,223.88,5.68,3.27-31.09-3.27c0-5.59,4.54-9.27,8.18-11.37l385.3-222.47c10.91-6.27,28.5-6.27,39.37,0l570,329.07C2657.35,1132.77,2663.44,1137.59,2663.44,1143Z"/><path class="cls-22" d="M2350.09,645.81l-13.56-24.59c8.4-4.86,21.95-4.74,30.26.27l-.31,0c8.31,5,13.21,16.71,10.94,26.15-14.89,61.71-66.88,282.15-68.14,284.33l-22.66-13.23Z"/><path class="cls-26" d="M2350.09,645.81l-13.56-24.59c8.4-4.86,21.95-4.74,30.26.27l-.31,0c8.31,5,13.21,16.71,10.94,26.15-14.89,61.71-66.88,282.15-68.14,284.33l-22.66-13.23Z"/><path class="cls-21" d="M2386.57,633.28c8,4.61,15.59,16.15,16.95,25.75l50.24,356.19-25.23-14.56-52.9-350.37-18.8-16.65C2365.25,628.82,2378.57,628.66,2386.57,633.28Z"/><polygon class="cls-22" points="1938.35 851.42 1946.44 880.13 2350.09 645.81 2336.53 621.22 1938.35 851.42"/><polygon class="cls-26" points="1938.35 851.42 1946.44 880.13 2350.09 645.81 2336.53 621.22 1938.35 851.42"/><polygon class="cls-21" points="2356.83 633.64 2375.63 650.29 1961.35 891.72 1946.44 868.58 2356.83 633.64"/><path class="cls-27" d="M1955.7,1237.52c55.33,31.94,145,31.94,200.35,0s55.33-83.73,0-115.68-145-31.94-200.35,0S1900.37,1205.58,1955.7,1237.52Z"/><path class="cls-28" d="M2189.55,1178.87h.19V940H1950.5v238.85h.18c-1,18.4,10.53,37,34.86,51,46.71,27,122.45,27,169.16,0C2179,1215.85,2190.56,1197.27,2189.55,1178.87Z"/><path class="cls-12" d="M1985.54,988.85c46.71,27,122.45,27,169.16,0s46.71-70.7,0-97.67-122.45-27-169.16,0S1938.82,961.88,1985.54,988.85Z"/><path class="cls-28" d="M1990.7,984.86c43.86,24.77,115,24.77,158.84,0s43.86-64.92,0-89.69-115-24.77-158.84,0S1946.84,960.1,1990.7,984.86Z"/><path class="cls-29" d="M2149.54,906.78c-43.86-24.77-115-24.77-158.84,0-19.31,10.9-30.1,24.79-32.4,39,2.3,14.25,13.09,28.14,32.4,39,43.86,24.77,115,24.77,158.84,0,19.31-10.9,30.1-24.79,32.4-39C2179.64,931.57,2168.85,917.68,2149.54,906.78Z"/><path class="cls-3" d="M1950.5,1138.49c-.16,17.8,11.52,35.62,35,49.2,46.71,27,122.45,27,169.16,0,23.36-13.49,35-31.16,35-48.83V979c0,17.67-11.68,35.34-35,48.83-46.71,27-122.45,27-169.16,0-23.52-13.58-35.2-31.4-35-49.2Z"/><path class="cls-15" d="M1950.5,1138.49c-.16,17.8,11.52,35.62,35,49.2,46.71,27,122.45,27,169.16,0,23.36-13.49,35-31.16,35-48.83V979c0,17.67-11.68,35.34-35,48.83-46.71,27-122.45,27-169.16,0-23.52-13.58-35.2-31.4-35-49.2Z"/><path class="cls-27" d="M2119.11,1244c-44,11.34-97.47,6.74-133.54-14.18-24.34-14-35.87-32.55-34.9-51h-.19V940c0,17.69,11.73,35.39,35.09,48.88a97.74,97.74,0,0,0,11.54,5.76V1208C1997.11,1227.9,2063.78,1251.65,2119.11,1244Z"/><path class="cls-2" d="M2097.42,982.61l-12.69-7.32c-10.3-5.95-13.05-14-6.15-18s20.85-2.4,31.15,3.55l12.69,7.32c10.3,6,13,14,6.15,18S2107.72,988.56,2097.42,982.61Z"/><ellipse class="cls-29" cx="2090.96" cy="964.46" rx="9.64" ry="5.56"/><path class="cls-29" d="M2109.3,982a15.08,15.08,0,0,0,13.63,0c3.76-2.18,3.76-5.7,0-7.87a15,15,0,0,0-13.63,0C2105.53,976.29,2105.53,979.81,2109.3,982Z"/><g id="Bread"><path class="cls-30" d="M2356.55,1322.23c21.23-131.65,61.72-298.54,142.62-423s156.91-140,177.38-44.71-53.5,363.15-103.88,474.25C2440,1621.41,2332.91,1468.83,2356.55,1322.23Z"/><path class="cls-31" d="M2650.47,866.5s-2.49,1.21-6.9,3-10.54,4.25-17.93,6.87c-3.67,1.41-7.64,2.85-11.82,4.31s-8.5,3.26-13.06,4.69l-28,10.44-14.07,5.5c-4.62,1.88-9.28,3.51-13.67,5.4l-12.83,5.21c-4,1.77-7.94,3.36-11.61,4.74-7.15,3.11-13.46,5.35-17.82,7.11s-7.1,2.45-7.1,2.45,1.59-2.24,4.64-5.92a124.51,124.51,0,0,1,13.79-14.07c3.1-2.61,6.45-5.52,10.24-8.21s7.74-5.71,12.21-8.12a155.22,155.22,0,0,1,13.75-7.57c4.74-2.48,9.84-4.4,14.85-6.5,5.12-1.8,10.22-3.68,15.4-5,5.1-1.6,10.32-2.44,15.26-3.56a164.38,164.38,0,0,1,27.56-2.88C2639.68,863.93,2650.47,866.5,2650.47,866.5Z"/><path class="cls-31" d="M2534.22,1345s-2.49,1.21-6.9,3-10.54,4.25-17.94,6.87c-3.67,1.42-7.63,2.86-11.81,4.32s-8.5,3.26-13.06,4.68l-28,10.45-14.07,5.49c-4.62,1.89-9.28,3.52-13.67,5.41l-12.83,5.21c-4,1.77-7.94,3.36-11.62,4.74-7.14,3.11-13.45,5.35-17.81,7.1s-7.1,2.46-7.1,2.46,1.58-2.24,4.64-5.93a124.33,124.33,0,0,1,13.78-14.06c3.1-2.62,6.46-5.52,10.25-8.21s7.74-5.71,12.2-8.13a156.79,156.79,0,0,1,13.76-7.56c4.74-2.49,9.83-4.4,14.85-6.5,5.12-1.8,10.22-3.69,15.39-5,5.1-1.6,10.33-2.44,15.27-3.56a164.26,164.26,0,0,1,27.56-2.89C2523.43,1342.43,2534.22,1345,2534.22,1345Z"/><path class="cls-31" d="M2646.2,948s-3.1,1.57-8.58,3.85-12.9,5.7-22,9.43c-18.1,7.73-42.18,16.84-66.2,25.81l-66.49,24.05-22.49,8.08c-5.5,2-8.91,3-8.91,3s2-2.81,5.9-7.37a75,75,0,0,1,7.44-7.82,107.63,107.63,0,0,1,10.47-9.23c15.76-13.07,39.55-26.61,64.81-35.78,25.24-9.32,51.75-14.69,72.08-15.63a155.42,155.42,0,0,1,24.68.23C2642.8,947.23,2646.2,948,2646.2,948Z"/><path class="cls-31" d="M2616.94,1045.23s-3.07,1.81-8.51,4.38c-5.3,2.74-12.75,6.29-21.72,10.48-17.92,8.24-41.73,17.84-65.64,26.74l-17.92,6.43c-5.81,2.3-11.78,4.06-17.38,6.13l-31.32,10.4-23,7.11c-5.66,1.77-9.21,2.54-9.21,2.54s1.84-3,5.59-7.81a72.55,72.55,0,0,1,7.21-8.24,117.24,117.24,0,0,1,10.21-9.77c15.57-13.59,39.29-27.7,64.69-36.88,25.34-9.4,52.12-14.27,72.64-14.7a155.48,155.48,0,0,1,25,1.28C2613.51,1044.28,2616.94,1045.23,2616.94,1045.23Z"/><path class="cls-31" d="M2558.09,1247.33s-2.76,1.62-7.65,3.93c-4.76,2.46-11.45,5.66-19.52,9.42-16.1,7.41-37.49,16-59,24l-16.1,5.78c-5.22,2.07-10.59,3.65-15.62,5.51l-28.14,9.34-20.66,6.39c-5.08,1.59-8.27,2.29-8.27,2.29a85.25,85.25,0,0,1,5-7,64.28,64.28,0,0,1,6.47-7.41,104.88,104.88,0,0,1,9.18-8.78c14-12.21,35.3-24.89,58.13-33.14,22.77-8.44,46.84-12.82,65.27-13.21a140.6,140.6,0,0,1,22.44,1.15C2555,1246.48,2558.09,1247.33,2558.09,1247.33Z"/><path class="cls-31" d="M2591.54,1144.57s-3.08,1.81-8.51,4.38c-5.3,2.74-12.75,6.29-21.73,10.48-17.91,8.24-41.72,17.84-65.63,26.74l-17.92,6.43c-5.81,2.3-11.79,4.06-17.39,6.13l-31.31,10.4-23,7.11c-5.65,1.77-9.2,2.54-9.2,2.54a94.28,94.28,0,0,1,5.59-7.81,72.55,72.55,0,0,1,7.21-8.24,114.39,114.39,0,0,1,10.21-9.77c15.57-13.6,39.28-27.71,64.69-36.88,25.34-9.4,52.12-14.27,72.64-14.7a155.48,155.48,0,0,1,25,1.28C2588.11,1143.62,2591.54,1144.57,2591.54,1144.57Z"/></g><g id="Wine_Bottle" data-name="Wine Bottle"><ellipse id="Shadow-7" data-name="Shadow" class="cls-11" cx="2290.59" cy="1400.84" rx="131.81" ry="76.1"/><g id="Wine_Bottle-2" data-name="Wine Bottle"><path class="cls-6" d="M2333.34,782.05V672.66l-35.4,1.45-35.4-1.45V782.05c0,43.61-15.46,86.05-44.64,118.46-17.84,19.82-34.43,51.87-35.24,102.78V1372h0c.24,24.82,24.38,50.08,72.42,61.82a180.88,180.88,0,0,0,85.76,0c48-11.75,72.14-37,72.37-61.81h0V1003.29c-.81-50.91-17.39-83-35.24-102.78C2348.79,868.1,2333.34,825.66,2333.34,782.05Z"/><path class="cls-32" d="M2333.34,782.05V672.66l-35.4,1.45-35.4-1.45V782.05c0,43.61-15.46,86.05-44.64,118.46-17.84,19.82-34.43,51.87-35.24,102.78V1372h0c.24,24.82,24.38,50.08,72.42,61.82a180.88,180.88,0,0,0,85.76,0c48-11.75,72.14-37,72.37-61.81h0V1003.29c-.81-50.91-17.39-83-35.24-102.78C2348.79,868.1,2333.34,825.66,2333.34,782.05Z"/><path class="cls-7" d="M2333.41,660.56c0-.33-.15-.6-.17-.92.36-5.5-3-11.06-10.26-15.25-13.84-8-36.29-8-50.13,0-4.66,2.69-7.61,6-9.13,9.39a7.45,7.45,0,0,0-.54,1.05c-.08.23-.09.47-.16.7a7.87,7.87,0,0,0-.53,2.35v.87a.88.88,0,0,0,0,.23v52.46c-.06,5.27,3.39,10.56,10.36,14.59,13.84,8,36.29,8,50.13,0,6-3.44,9.19-7.8,10-12.29a3.73,3.73,0,0,0,.4-1.13Z"/><path class="cls-9" d="M2323,673.33c-13.84,8-36.29,8-50.13,0s-13.85-21,0-28.94,36.29-8,50.13,0S2336.83,665.34,2323,673.33Z"/><path class="cls-5" d="M2413.21,1014.58v200.59c0,17.1-11.23,34.11-33.77,47-35.39,20.42-88.3,24.75-131.08,12.93V1074.55c42.78,11.91,95.69,7.58,131.08-12.92C2402,1048.7,2413.21,1031.6,2413.21,1014.58Z"/></g></g><g id="Apple-3" data-name="Apple"><path class="cls-33" d="M1805.94,1209.32c-22.45,3.58-61.45,10.57-80.84,63.4-22.09,60.18,13,128.75,58.83,154.54,57.58,32.4,142.1,26.16,187.17-24.07,49.84-55.54,44.3-150.74,2.66-188.41s-98.1-20.09-112.48-12.21C1839.68,1214.41,1823.43,1206.54,1805.94,1209.32Z"/><path class="cls-11" d="M1938.81,1394.69c-55.28,37.9-136.19,36-188.32,3.8,9.8,12,21.24,21.9,33.44,28.77,57.58,32.4,142.1,26.16,187.17-24.07,37.79-42.11,43.69-107,26.21-152.32C2000.86,1263.71,1999.65,1353,1938.81,1394.69Z"/><g class="cls-34"><path class="cls-5" d="M1784.53,1231.78c-14.7.22-34.55,15.28-43.62,36.24-11.27,26-9.49,61-2.65,85.89,13.78,50.17,65.85,72,70.18,67.15s-34.88-34.56-20.27-87.35C1803,1280.14,1808.61,1231.41,1784.53,1231.78Z"/></g><g class="cls-34"><path class="cls-5" d="M1774.1,1241.15c-14.34,6.52-29.13,32-31.91,49.23s.56,28.45,3,30.18c4.46,3.13,31.63-29.37,40.09-43.59C1797.32,1256.83,1797.21,1230.65,1774.1,1241.15Z"/></g><path class="cls-35" d="M1833.84,1250.63c-8.55-5.52-16.33-8-19.33,1.95s19.62,22.72,42.31,13.51,29.23-25.24,28-32.89c0,0-8.86,17.77-24.34,21.28C1849.73,1256.9,1838.28,1253.49,1833.84,1250.63Z"/><path class="cls-7" d="M1856.21,1260.12s-3.36-34-17-62.83-34.42-48-39.72-49.76-14-2.63-26-1.26-25.45,10.88-21.07,15.1,22,5.92,45,23.4,46.84,53.55,49.16,76.32A9.32,9.32,0,0,0,1856.21,1260.12Z"/><path class="cls-9" d="M1798.58,1147.27c-.39-.12-.77-.25-1.21-.35l-.13,0c-5.38-1.32-13.31-1.8-23.72-.61-8.84,1-18.48,6.46-21.17,10.94-.64,1.81,2.23,3.87,13.1,4.3a66.8,66.8,0,0,0,31.24-6.13C1801.18,1153.2,1802.56,1148.89,1798.58,1147.27Z"/><path class="cls-11" d="M1836.8,1223.93c-12.18-26.06-43.08-45.68-63.7-53.65h0a121.56,121.56,0,0,1,24.33,14.49c23,17.48,46.84,53.55,49.16,76.32a9.32,9.32,0,0,0,9.62-1s-.82-8.18-3.24-19.9C1853.48,1251.28,1848,1248,1836.8,1223.93Z"/><path class="cls-3" d="M1845.79,1213.63c14.78,1.42,38.29-6.27,50.2-25.75,14.31-23.4.7-50.56.7-50.56s-26.49-3.26-44.59,19.07C1838.9,1172.68,1839.79,1201.52,1845.79,1213.63Z"/><path class="cls-17" d="M1845.79,1213.63c14.78,1.42,38.29-6.27,50.2-25.75,14.31-23.4.7-50.56.7-50.56s-26.49-3.26-44.59,19.07C1838.9,1172.68,1839.79,1201.52,1845.79,1213.63Z"/><path class="cls-3" d="M1896.69,1137.32s-26.49-3.26-44.59,19.07c-13.2,16.29-12.31,45.13-6.31,57.24C1855,1170.45,1896.69,1137.32,1896.69,1137.32Z"/></g><g id="Apple-4" data-name="Apple"><path class="cls-16" d="M1756.83,1269.51c42.86,26.79,119.83,26.06,171.9-1.63s59.32-71.85,16.18-98.65-120.1-26.07-171.9,1.63S1714,1242.72,1756.83,1269.51Z"/><path class="cls-33" d="M1785,1013.55c-22.45,3.57-61.45,10.57-80.84,63.4-22.09,60.17,13,128.75,58.83,154.54,57.58,32.4,142.1,26.16,187.17-24.07,49.84-55.54,44.3-150.74,2.66-188.41s-98.1-20.09-112.48-12.21C1818.78,1018.64,1802.53,1010.76,1785,1013.55Z"/><path class="cls-11" d="M1917.91,1198.92c-55.28,37.89-136.19,36-188.32,3.8,9.8,12,21.23,21.9,33.44,28.77,57.58,32.4,142.1,26.16,187.17-24.07,37.79-42.12,43.69-107,26.21-152.33C1980,1067.94,1978.75,1157.21,1917.91,1198.92Z"/><g class="cls-34"><path class="cls-5" d="M1763.63,1036c-14.7.22-34.55,15.28-43.62,36.24-11.27,26-9.49,61-2.65,85.9,13.78,50.17,65.84,72,70.18,67.15s-34.88-34.56-20.27-87.35C1782.1,1084.37,1787.71,1035.64,1763.63,1036Z"/></g><g class="cls-34"><path class="cls-5" d="M1753.2,1045.38c-14.34,6.52-29.13,32-31.91,49.23s.56,28.44,3,30.18c4.46,3.12,31.62-29.38,40.09-43.59C1776.42,1061.05,1776.31,1034.88,1753.2,1045.38Z"/></g><path class="cls-35" d="M1812.94,1054.85c-8.55-5.52-16.33-7.95-19.33,2s19.62,22.71,42.31,13.51,29.23-25.25,27.95-32.9c0,0-8.86,17.78-24.34,21.28C1828.83,1061.13,1817.38,1057.72,1812.94,1054.85Z"/><path class="cls-7" d="M1835.31,1064.35s-3.36-34-17-62.84-34.42-48-39.72-49.75-14-2.64-26-1.26-25.45,10.88-21.07,15.09,22,5.93,45,23.41,46.84,53.55,49.16,76.32A9.34,9.34,0,0,0,1835.31,1064.35Z"/><path class="cls-9" d="M1777.68,951.49c-.39-.11-.77-.24-1.21-.35l-.13,0c-5.38-1.32-13.31-1.81-23.72-.61-8.84,1-18.48,6.46-21.17,10.93-.64,1.81,2.23,3.88,13.1,4.31a66.81,66.81,0,0,0,31.24-6.14C1780.28,957.43,1781.66,953.12,1777.68,951.49Z"/><path class="cls-11" d="M1815.9,1028.16c-12.18-26.06-43.08-45.68-63.7-53.66h0a122.15,122.15,0,0,1,24.33,14.5c23,17.48,46.84,53.55,49.16,76.32a9.33,9.33,0,0,0,9.62-1s-.82-8.18-3.24-19.9C1832.58,1055.51,1827.13,1052.17,1815.9,1028.16Z"/><path class="cls-4" d="M1824.89,1017.85c14.78,1.43,38.29-6.26,50.2-25.74,14.31-23.4.7-50.57.7-50.57s-26.49-3.26-44.59,19.07C1818,976.91,1818.89,1005.75,1824.89,1017.85Z"/><path class="cls-17" d="M1824.89,1017.85c14.78,1.43,38.29-6.26,50.2-25.74,14.31-23.4.7-50.57.7-50.57s-26.49-3.26-44.59,19.07C1818,976.91,1818.89,1005.75,1824.89,1017.85Z"/><path class="cls-6" d="M1875.79,941.54s-26.49-3.26-44.59,19.07c-13.2,16.3-12.31,45.14-6.31,57.24C1834.1,974.68,1875.79,941.54,1875.79,941.54Z"/></g><g id="Eggs"><path class="cls-3" d="M1995.47,1360.07c0,34.07-27.62,72.52-61.7,72.52s-61.7-38.45-61.7-72.52a61.7,61.7,0,1,1,123.4,0Z"/><path class="cls-36" d="M1995.47,1360.07c0,34.07-27.62,72.52-61.7,72.52s-61.7-38.45-61.7-72.52a61.7,61.7,0,1,1,123.4,0Z"/><path class="cls-3" d="M2106.11,1424c0,34.08-27.62,72.53-61.7,72.53s-61.7-38.45-61.7-72.53a61.7,61.7,0,0,1,123.4,0Z"/><path class="cls-36" d="M2106.11,1424c0,34.08-27.62,72.53-61.7,72.53s-61.7-38.45-61.7-72.53a61.7,61.7,0,0,1,123.4,0Z"/><path class="cls-3" d="M2216.75,1488c0,34.07-27.62,72.52-61.7,72.52s-61.7-38.45-61.7-72.52a61.7,61.7,0,1,1,123.4,0Z"/><path class="cls-36" d="M2216.75,1488c0,34.07-27.62,72.52-61.7,72.52s-61.7-38.45-61.7-72.52a61.7,61.7,0,1,1,123.4,0Z"/><path class="cls-3" d="M2327.39,1552c0,34.08-27.62,72.52-61.7,72.52S2204,1586.06,2204,1552a61.7,61.7,0,1,1,123.4,0Z"/><path class="cls-36" d="M2327.39,1552c0,34.08-27.62,72.52-61.7,72.52S2204,1586.06,2204,1552a61.7,61.7,0,1,1,123.4,0Z"/><path class="cls-3" d="M2449.5,1480.3c0,34.08-27.63,72.52-61.7,72.52s-61.7-38.44-61.7-72.52a61.7,61.7,0,1,1,123.4,0Z"/><path class="cls-36" d="M2449.5,1480.3c0,34.08-27.63,72.52-61.7,72.52s-61.7-38.44-61.7-72.52a61.7,61.7,0,1,1,123.4,0Z"/><path class="cls-3" d="M2518.9,1443c0-4.12-2.66-8.23-8.11-11.38l-432.32-249.79c-10.89-6.28-28.53-6.28-39.41,0l-219.33,126.63c-5.46,3.15-8.15,7.27-8.11,11.38,0,3.82,0,17.53,0,21.35,0,4.11,2.66,8.22,8.11,11.37l432.33,249.79c10.88,6.28,28.52,6.28,39.4,0l219.33-126.64c5.45-3.14,8.14-7.26,8.11-11.37C2518.87,1460.55,2518.87,1446.84,2518.9,1443Z"/><path class="cls-37" d="M2518.9,1443c0-4.12-2.66-8.23-8.11-11.38l-432.32-249.79c-10.89-6.28-28.53-6.28-39.41,0l-219.33,126.63c-5.46,3.15-8.15,7.27-8.11,11.38,0,3.82,0,17.53,0,21.35,0,4.11,2.66,8.22,8.11,11.37l432.33,249.79c10.88,6.28,28.52,6.28,39.4,0l219.33-126.64c5.45-3.14,8.14-7.26,8.11-11.37C2518.87,1460.55,2518.87,1446.84,2518.9,1443Z"/><path class="cls-11" d="M2272.11,1585.8v21.29c-7.19,0-14.47-1.54-20-4.73l-432.33-249.8c-5.46-3.1-8.19-7.19-8.19-11.38.1-3.82.1-17.47,0-21.29,0,4.09,2.73,8.19,8.19,11.37l432.33,249.81C2257.64,1584.25,2264.83,1585.8,2272.11,1585.8Z"/><path class="cls-15" d="M1819.73,1308.49l219.33-126.63c10.88-6.28,28.52-6.28,39.41,0l432.32,249.79c10.88,6.28,10.88,16.47,0,22.75L2291.46,1581c-10.88,6.28-28.52,6.28-39.4,0l-432.33-249.8C1808.84,1325,1808.84,1314.77,1819.73,1308.49Z"/><path class="cls-11" d="M2308.37,1534.62c23.56-13.6,23.65-35.61.19-49.15s-61.69-13.52-85.42,0-23.81,35.58-.2,49.15S2284.81,1548.22,2308.37,1534.62Z"/><path class="cls-11" d="M2430.47,1464.09c23.56-13.61,23.65-35.61.2-49.15s-61.7-13.52-85.43,0-23.81,35.58-.19,49.15S2406.91,1477.69,2430.47,1464.09Z"/><path class="cls-11" d="M2197.73,1470.67c23.56-13.6,23.65-35.6.19-49.15s-61.69-13.51-85.42.06-23.81,35.58-.2,49.15S2174.17,1484.28,2197.73,1470.67Z"/><path class="cls-11" d="M2319.83,1400.14c23.56-13.6,23.65-35.61.2-49.15s-61.7-13.51-85.42.06-23.82,35.57-.2,49.15S2296.27,1413.74,2319.83,1400.14Z"/><path class="cls-11" d="M2087.09,1406.73c23.56-13.6,23.65-35.61.19-49.15s-61.69-13.52-85.42.06-23.82,35.57-.2,49.14S2063.53,1420.33,2087.09,1406.73Z"/><path class="cls-11" d="M2209.19,1336.2c23.56-13.6,23.65-35.61.2-49.15s-61.7-13.52-85.42,0-23.82,35.58-.2,49.15S2185.63,1349.8,2209.19,1336.2Z"/><path class="cls-11" d="M1976.45,1342.79c23.56-13.61,23.65-35.61.19-49.15s-61.69-13.52-85.42,0-23.81,35.58-.2,49.15S1952.89,1356.39,1976.45,1342.79Z"/><path class="cls-11" d="M2098.55,1272.25c23.56-13.6,23.65-35.6.2-49.14s-61.7-13.52-85.42.05-23.82,35.58-.2,49.15S2075,1285.86,2098.55,1272.25Z"/><path class="cls-12" d="M2445.09,1438.48c0,1,0,2-.09,2.91a51.7,51.7,0,0,1-1.91,11.92,40.87,40.87,0,0,1-12.65,10.74c-23.57,13.65-61.79,13.65-85.36.09a40.85,40.85,0,0,1-12.55-10.56,54.67,54.67,0,0,1-2-12.19c0-.91-.09-1.91-.09-2.91s.09-2,.09-2.91c.09-2.55.19-5.1.46-7.55a115,115,0,0,1,33-70.62,33.61,33.61,0,0,1,47.5,0,113.9,113.9,0,0,1,32.94,70c.27,2.73.46,5.46.55,8.19C2445.09,1436.48,2445.09,1437.48,2445.09,1438.48Z"/><path class="cls-12" d="M2334.45,1374.47c0,1,0,2-.09,2.91a51.7,51.7,0,0,1-1.91,11.92A41,41,0,0,1,2319.8,1400c-23.57,13.65-61.79,13.65-85.36.09a40.85,40.85,0,0,1-12.55-10.56,54.67,54.67,0,0,1-2-12.19c0-.91-.09-1.91-.09-2.91s.09-2,.09-2.91c.1-2.55.19-5.1.46-7.56a115,115,0,0,1,33-70.61,33.61,33.61,0,0,1,47.5,0,113.85,113.85,0,0,1,32.94,70c.27,2.73.46,5.46.55,8.19C2334.45,1372.47,2334.45,1373.47,2334.45,1374.47Z"/><path class="cls-12" d="M2323,1509c0,1,0,2-.09,2.91a51.7,51.7,0,0,1-1.91,11.92,40.62,40.62,0,0,1-12.65,10.74c-23.56,13.65-61.78,13.65-85.35.09a41,41,0,0,1-12.56-10.55,54.27,54.27,0,0,1-2-12.2c0-.91-.09-1.91-.09-2.91s.09-2,.09-2.91c.09-2.55.18-5.1.45-7.55a115,115,0,0,1,33-70.62,33.63,33.63,0,0,1,47.5,0,113.9,113.9,0,0,1,32.94,70q.41,4.1.54,8.19C2323,1507,2323,1508,2323,1509Z"/><path class="cls-12" d="M2212.34,1445c0,1,0,2-.09,2.91a51.7,51.7,0,0,1-1.91,11.92,40.64,40.64,0,0,1-12.65,10.74c-23.56,13.65-61.78,13.65-85.35.09a41,41,0,0,1-12.56-10.55,54.27,54.27,0,0,1-2-12.2c0-.91-.09-1.91-.09-2.91s.09-2,.09-2.91c.09-2.55.18-5.1.46-7.55a114.94,114.94,0,0,1,33-70.62,33.61,33.61,0,0,1,47.5,0,113.9,113.9,0,0,1,32.94,70q.4,4.1.54,8.19C2212.34,1443,2212.34,1444,2212.34,1445Z"/><path class="cls-12" d="M2223.81,1310.46c0,1,0,2-.09,2.91a51.78,51.78,0,0,1-1.91,11.92,40.89,40.89,0,0,1-12.65,10.74c-23.57,13.65-61.79,13.65-85.36.09a41.12,41.12,0,0,1-12.55-10.56,54.67,54.67,0,0,1-2-12.19c0-.91-.09-1.91-.09-2.91s.09-2,.09-2.91c.1-2.55.19-5.1.46-7.56a115,115,0,0,1,33-70.61,33.61,33.61,0,0,1,47.5,0,113.85,113.85,0,0,1,32.94,70q.42,4.1.55,8.19C2223.81,1308.46,2223.81,1309.46,2223.81,1310.46Z"/><path class="cls-12" d="M2113.17,1246.45c0,1,0,2-.09,2.91a51.78,51.78,0,0,1-1.91,11.92,40.89,40.89,0,0,1-12.65,10.74c-23.57,13.65-61.79,13.65-85.35.09a41.05,41.05,0,0,1-12.56-10.56,54.19,54.19,0,0,1-2-12.19c0-.91-.1-1.91-.1-2.91s.1-2,.1-2.91c.09-2.55.18-5.1.45-7.56a115,115,0,0,1,33-70.61,33.61,33.61,0,0,1,47.5,0,113.85,113.85,0,0,1,32.94,70c.28,2.72.46,5.46.55,8.19C2113.17,1244.44,2113.17,1245.45,2113.17,1246.45Z"/><path class="cls-12" d="M2101.74,1381.13c0,1,0,2-.09,2.91a51.7,51.7,0,0,1-1.91,11.92,40.89,40.89,0,0,1-12.65,10.74c-23.57,13.65-61.79,13.65-85.36.09a41,41,0,0,1-12.55-10.55,54.28,54.28,0,0,1-2-12.2c0-.91-.09-1.91-.09-2.91s.09-2,.09-2.91c.1-2.55.19-5.1.46-7.55a115,115,0,0,1,33-70.62,33.63,33.63,0,0,1,47.5,0,113.9,113.9,0,0,1,32.94,70q.42,4.1.55,8.19C2101.74,1379.13,2101.74,1380.13,2101.74,1381.13Z"/><path class="cls-12" d="M1991.1,1317.19c0,1,0,2-.09,2.91a51.78,51.78,0,0,1-1.91,11.92,40.85,40.85,0,0,1-12.65,10.73c-23.57,13.65-61.79,13.65-85.36.1a41.12,41.12,0,0,1-12.55-10.56,54.2,54.2,0,0,1-2-12.19c0-.91-.09-1.91-.09-2.91s.09-2,.09-2.92c.1-2.54.19-5.09.46-7.55a115,115,0,0,1,33-70.61,33.61,33.61,0,0,1,47.5,0,113.9,113.9,0,0,1,32.94,70c.27,2.73.46,5.46.55,8.19C1991.1,1315.18,1991.1,1316.18,1991.1,1317.19Z"/></g><path class="cls-3" d="M2250.32,1366.84l-572.45-330.48,33.18,359.8c2.1,24.91,21.46,55.5,43.14,68L2211,1727.91c19.55,11.32,50.32,12.41,72.1,3.18l1.68-.68a9.21,9.21,0,0,0,.95-.46,37,37,0,0,0,4-2l272.06-157.1c21.68-12.51,41.05-43.14,43.14-68l33.18-359.8Zm-395.21,63.82a28.05,28.05,0,0,1-2.64,12.64,27.68,27.68,0,0,1-12.27-4l-14.82-8.55c-16.32-9.41-29.55-32.32-29.55-51.14v-130a28.05,28.05,0,0,1,2.64-12.64,27.2,27.2,0,0,1,12.32,4l14.82,8.6c16.32,9.41,29.5,32.27,29.5,51.14Zm147.69,85.28a28.62,28.62,0,0,1-2.59,12.64,27.93,27.93,0,0,1-12.27-4l-14.82-8.55c-16.32-9.41-29.55-32.32-29.55-51.14v-130a28.73,28.73,0,0,1,2.59-12.64,26.87,26.87,0,0,1,12.32,4l14.86,8.59c16.32,9.41,29.46,32.28,29.46,51.14Zm147.74,85.28a28,28,0,0,1-2.64,12.63,28.2,28.2,0,0,1-12.27-3.95l-14.82-8.55c-16.32-9.45-29.55-32.36-29.55-51.14v-130a28,28,0,0,1,2.64-12.64,27.21,27.21,0,0,1,12.32,4l14.82,8.54c16.32,9.41,29.5,32.28,29.5,51.14Zm251.38-46.73c0,18.82-13.23,41.73-29.55,51.14l-14.82,8.54a27.68,27.68,0,0,1-12.27,4,28,28,0,0,1-2.64-12.63v-130c0-18.86,13.19-41.73,29.51-51.14l14.82-8.59a27,27,0,0,1,12.31-4,27.89,27.89,0,0,1,2.64,12.64Zm129.24-74.65c0,18.82-13.23,41.73-29.55,51.14l-14.77,8.55a27.12,27.12,0,0,1-12.32,4,27.89,27.89,0,0,1-2.64-12.64v-130c0-18.82,13.23-41.73,29.55-51.14l14.77-8.55a27.2,27.2,0,0,1,12.32-4,27.84,27.84,0,0,1,2.64,12.6Z"/><path class="cls-21" d="M2250.32,1366.84l-572.45-330.48,33.18,359.8c2.1,24.91,21.46,55.5,43.14,68L2211,1727.91c19.55,11.32,50.32,12.41,72.1,3.18l1.68-.68a9.21,9.21,0,0,0,.95-.46,37,37,0,0,0,4-2l272.06-157.1c21.68-12.51,41.05-43.14,43.14-68l33.18-359.8Zm-395.21,63.82a28.05,28.05,0,0,1-2.64,12.64,27.68,27.68,0,0,1-12.27-4l-14.82-8.55c-16.32-9.41-29.55-32.32-29.55-51.14v-130a28.05,28.05,0,0,1,2.64-12.64,27.2,27.2,0,0,1,12.32,4l14.82,8.6c16.32,9.41,29.5,32.27,29.5,51.14Zm147.69,85.28a28.62,28.62,0,0,1-2.59,12.64,27.93,27.93,0,0,1-12.27-4l-14.82-8.55c-16.32-9.41-29.55-32.32-29.55-51.14v-130a28.73,28.73,0,0,1,2.59-12.64,26.87,26.87,0,0,1,12.32,4l14.86,8.59c16.32,9.41,29.46,32.28,29.46,51.14Zm147.74,85.28a28,28,0,0,1-2.64,12.63,28.2,28.2,0,0,1-12.27-3.95l-14.82-8.55c-16.32-9.45-29.55-32.36-29.55-51.14v-130a28,28,0,0,1,2.64-12.64,27.21,27.21,0,0,1,12.32,4l14.82,8.54c16.32,9.41,29.5,32.28,29.5,51.14Zm251.38-46.73c0,18.82-13.23,41.73-29.55,51.14l-14.82,8.54a27.68,27.68,0,0,1-12.27,4,28,28,0,0,1-2.64-12.63v-130c0-18.86,13.19-41.73,29.51-51.14l14.82-8.59a27,27,0,0,1,12.31-4,27.89,27.89,0,0,1,2.64,12.64Zm129.24-74.65c0,18.82-13.23,41.73-29.55,51.14l-14.77,8.55a27.12,27.12,0,0,1-12.32,4,27.89,27.89,0,0,1-2.64-12.64v-130c0-18.82,13.23-41.73,29.55-51.14l14.77-8.55a27.2,27.2,0,0,1,12.32-4,27.84,27.84,0,0,1,2.64,12.6Z"/><path class="cls-22" d="M2250.32,1366.84v338.34c0,22.36,14.18,33,32.73,25.91l1.68-.68a9.21,9.21,0,0,0,.95-.46,37,37,0,0,0,4-2l272.06-157.1c21.68-12.51,41.05-43.14,43.14-68l33.18-359.8Zm151.6,187.65c0,18.82-13.23,41.73-29.55,51.14l-14.82,8.54a27.68,27.68,0,0,1-12.27,4,28,28,0,0,1-2.64-12.63v-130c0-18.86,13.19-41.73,29.51-51.14l14.82-8.59a27,27,0,0,1,12.31-4,27.89,27.89,0,0,1,2.64,12.64Zm129.24-74.65c0,18.82-13.23,41.73-29.55,51.14l-14.77,8.55a27.12,27.12,0,0,1-12.32,4,27.89,27.89,0,0,1-2.64-12.64v-130c0-18.82,13.23-41.73,29.55-51.14l14.77-8.55a27.2,27.2,0,0,1,12.32-4,27.84,27.84,0,0,1,2.64,12.6Z"/><path class="cls-9" d="M2416.47,1432.89v130c0,18.82-13.19,41.73-29.5,51.14l-14.82,8.54c-12,6.87-22.19,4.64-26.87-4.41a27.68,27.68,0,0,0,12.27-4l14.82-8.54c16.32-9.41,29.55-32.32,29.55-51.14v-130a27.89,27.89,0,0,0-2.64-12.64C2409.42,1411.34,2416.47,1419.16,2416.47,1432.89Z"/><path class="cls-9" d="M2545.75,1358.29v130c0,18.87-13.23,41.73-29.55,51.14l-14.77,8.55c-12,6.91-22.23,4.68-26.91-4.41a27.12,27.12,0,0,0,12.32-4l14.77-8.55c16.32-9.41,29.55-32.32,29.55-51.14v-130a27.84,27.84,0,0,0-2.64-12.6C2538.7,1336.74,2545.75,1344.56,2545.75,1358.29Z"/><path class="cls-25" d="M2663.48,1143v42.64c0,4.13-2.72,8.22-8.18,11.36L2270,1419.43c-5.45,3.14-12.59,4.73-19.68,4.73v-42.69c7.09,0,14.23-1.54,19.68-4.68l385.3-222.47c5.77-3.32,8.5-7.77,8.09-12.14A2.17,2.17,0,0,1,2663.48,1143Z"/><path class="cls-25" d="M2250.32,1381.47v42.69c-7.14,0-14.27-1.59-19.68-4.73l-570-329.07c-5.45-3.13-8.18-7.27-8.18-11.36s0-38.55,0-42.64a5.24,5.24,0,0,1,.09-.87c-.41,4.41,2.27,8.87,8.09,12.23l570,329.07C2236.05,1379.93,2243.18,1381.47,2250.32,1381.47Z"/><path class="cls-25" d="M2663.44,1143c0,4.09-2.73,8.22-8.14,11.36L2270,1376.79c-10.91,6.28-28.5,6.28-39.36,0l-570-329.07c-5.45-3.13-8.18-7.22-8.18-11.36h25.41l387.75,223.83,184.7,106.65L2638.07,1143Z"/><path class="cls-7" d="M2076.72,1428.59v130c0,18.82,13.19,41.73,29.5,51.14l14.83,8.55c11.95,6.86,22.18,4.63,26.86-4.41a27.8,27.8,0,0,1-12.27-4l-14.82-8.55c-16.32-9.41-29.55-32.32-29.55-51.14v-130a27.92,27.92,0,0,1,2.64-12.64C2083.77,1407,2076.72,1414.86,2076.72,1428.59Z"/><path class="cls-7" d="M1929,1343.3v130c0,18.82,13.18,41.73,29.5,51.14l14.82,8.55c12,6.86,22.19,4.64,26.87-4.41a27.68,27.68,0,0,1-12.27-4L1973.1,1516c-16.32-9.41-29.55-32.32-29.55-51.14v-130a28,28,0,0,1,2.63-12.63C1936.05,1321.76,1929,1329.58,1929,1343.3Z"/><path class="cls-7" d="M1781.28,1258v130c0,18.82,13.18,41.73,29.5,51.14l14.82,8.54c12,6.87,22.18,4.64,26.87-4.41a27.71,27.71,0,0,1-12.28-4l-14.82-8.54c-16.32-9.41-29.54-32.32-29.54-51.14v-130a28,28,0,0,1,2.63-12.64C1788.33,1236.47,1781.28,1244.29,1781.28,1258Z"/><path class="cls-22" d="M1842.2,1152.52v3.72c0,14.29,3,21.39,15.36,28.51h0c6.56,3.76,10.06-1,10.06-8.55l0-9Z"/><path class="cls-26" d="M1842.2,1152.52v3.72c0,14.29,3,21.39,15.36,28.51h0c6.56,3.76,10.06-1,10.06-8.55l0-9Z"/><path class="cls-22" d="M1919.09,877.32c2.24-9.45,10.86-21,19.26-25.9l8.09,28.71L1867.6,1167.2l-25.4-14.68Z"/><path class="cls-26" d="M1919.09,877.32c2.24-9.45,10.86-21,19.26-25.9l8.09,28.71L1867.6,1167.2l-25.4-14.68Z"/><path class="cls-21" d="M1947.17,868.16l14.18,23.56,53.57,360.54-29.33-17L1933.9,894.67C1932.4,885.08,1938.75,873,1947.17,868.16Z"/><path class="cls-21" d="M1985.59,1235.31V1239c0,14.29,2.18,24.32,14.58,31.43h0a9.85,9.85,0,0,0,14.75-8.54v-9.66Z"/></g><g id="Dog"><path class="cls-8" d="M1623.19,1546.41s-20.74-7.59-26.11-7.22-13.71,3.33-15.56,10.59c0,0,13.15,12.56,28.85,11.38S1623.19,1546.41,1623.19,1546.41Z"/><path class="cls-8" d="M1777.18,1519.71c12.28-39.08,12-65.17,3.47-80.16-5.7-10.06-23.46-14-31-14.7s-10.12,5.17-3.23,11.94,4.34,13.15.62,21.48c-5.43,12.18-16.24,26.85-16.24,26.85Z"/><path class="cls-9" d="M1619.74,1546.19a59.09,59.09,0,0,1-11.88,1.18c-6.79-.67-13.64-2.32-19.33-6.08a24.24,24.24,0,0,1-9.26-11.17c-1.43-3.7-.87-7.43-.8-11.32a31.59,31.59,0,0,1,1.24-9.08c2.52-8,9.63-13.3,16.48-17.46,15.51-9.4,32-1.24,55,2.75,17.38,3,50.84-24.56,91.71-9.81,39.89,14.4,40.35,57.23,48.37,91.57,13.09,56,23.14,42,56.25,98.25,26.64,45.25,36,37.25,65.84,81.55,14.78,21.91,44,60.61,58.93,108.67,18.46,59.34-3.85,103-42.18,125.34-34,19.8-52.32,26.56-99.5,23.21-26.32-1.87-42-13.08-52.49-19.12-21.13,12.2-66.65-20.73-82.67-33-30-23-13.2-43.55,13.19-37.57a146.61,146.61,0,0,1,30.71,10.68s-16.26-31.91-22.62-59c-5.82-24.83-2.39-45.79,7-51.14a180.2,180.2,0,0,1-12.23-13.9c-2,22.2-9.64,87.88-11.19,93-2.07,6.85-16,20-28.75,16.6s-39.35-15.38-43.24-26.81c-5.2-15.29,10-17.65,36.26-10.85,0-.2,0-.39,0-.59-.73-27.84-3.51-68.34-3.82-96.19-.19-16.66-.41-36.9-1.41-50.33,0,0,0-.09,0-.14h0c-.67-8.92-1.15-17.84-1-26.79.49-22.48,3.23-47,3-57.57-.36-16.4-2.63-33.52-14.62-45.16-11.83-11.47-27.56-17.52-41.45-26a94.17,94.17,0,0,1-14.36-10.38c-4.19-3.76-12.48-13.53-9.49-19.8,7.5,4.31,15.68,7.1,24.47,5.57,3.19-.56,10-2.19,14.51-6.73.38-.38.78-.84.69-1.36A1.34,1.34,0,0,0,1619.74,1546.19Z"/><path class="cls-7" d="M1928.85,1959.63c-10.26,9.79-6.1,20.43-6.1,20.43s11.24,18.16,64,24c50.35,5.59,99.44-16.13,142.79,0s25.39,49,29.89,57.71,16.93,2.69,16.94-23.2-17.38-49.42-48.78-56.88-75.66-1.5-117.61-.83c-42.93.68-53-16.7-59.78-23.71C1942.33,1949,1934.49,1954.26,1928.85,1959.63Z"/><path class="cls-8" d="M1599.6,1499.36a4.87,4.87,0,0,0,.55-.64,32.23,32.23,0,0,1,1.75-2.81c1.12-1.25,2.87-1.64,4.47-2.1,2.43-.69,4.71-1.94,3.79-4.76a2.59,2.59,0,0,0-1.72-1.48c-2.64-1.12-5.1-2.5-8.06-2.47a20.5,20.5,0,0,0-9.59,3c-8.3,4.66-12.6,10.11-14.16,13.22s2.36,12.74,2.37,12.75c-.42-1,.49-3.41.8-4.36,1.85-5.48,10.88-6.51,15.56-8.08A10.8,10.8,0,0,0,1599.6,1499.36Z"/><path class="cls-7" d="M1800.64,1607.1l-11.41,7.52s-22.43,26.25-72.63,28.47c-26,1.15-43.27.41-53.9-.57a7.84,7.84,0,0,1,2.17-3.94c10.23-11.35,13.25-40.42,0-49.84s-40.94,1.37-64.92-12.27c1.78,1.21,3.58,2.38,5.42,3.49,13.88,8.43,29.62,14.48,41.45,26,9.87,9.59,13.11,22.89,14.17,36.45l-1.17-.11a10.81,10.81,0,0,0,1.43,4.07c.08,1.59.15,3.17.19,4.75.06,2.77-.22,6.27-.34,10.67l11.2,1.71c19.87,2.52,81.89,9.59,139.39-37.92A79.36,79.36,0,0,1,1800.64,1607.1Z"/><path class="cls-8" d="M1714.7,1522.56c-8.06,7.86-19.23,18-27.64,27.68-7.14,8.18-12.61,2.14-18.63-35.54-5.17-32.35-8-37.46-13.64-39.33-4.22-1.41-11.63-.47-13-3.5-2.57-5.79,6.35-16.66,27.2-20.1C1700.76,1446.55,1727.35,1510.2,1714.7,1522.56Z"/><path class="cls-38" d="M1794.93,1590.81c1.07,3.3,1.53,5,1.53,5s-15.22,21.69-66.73,32.23-70.29,2.63-70.29,2.63a58.21,58.21,0,0,0-2-7.46s-2.6,2-1.61,14c.71,8.64,1.89,12.33,6.53,13.39,14.52,3.3,43.57,3,72-3.36,43.77-9.81,65.38-26.62,69.59-30.77s2.58-7.49-1.14-16.26C1798.74,1590.65,1797,1590.15,1794.93,1590.81Z"/><path class="cls-7" d="M1723.81,1824.62c15.1-8.74,50.34-1.34,82.1,37.81,0,0-1.3-24.8-31.32-42.2s-51.84-11.56-59.88-5.8Z"/><path class="cls-7" d="M1729.4,1930.46c6.19,2.39,10,4.31,10,4.31,7.94,16.18,18.5,34,18.5,34S1736.52,1949.24,1729.4,1930.46Z"/><path class="cls-7" d="M1688.07,1925.44a23.92,23.92,0,0,1,6.13-1.91,23.32,23.32,0,0,1,5.49,2.19,27.06,27.06,0,0,1,4.67,3.28c.54.49,3.65,3.49,2.63,4.23-.28.21-.67,0-1-.19-3.91-2.64-8.33-5.28-12.9-6.54A45.92,45.92,0,0,0,1688.07,1925.44Z"/><path class="cls-7" d="M1680.44,1933.12a12.61,12.61,0,0,1,1.82-3.13c7.63,1.32,16,3.78,17.76,10.52,0,.21-.06,1.1-.48.82a57.49,57.49,0,0,0-9.84-5.72A41.24,41.24,0,0,0,1680.44,1933.12Z"/><path class="cls-7" d="M1630.17,1882a12.94,12.94,0,0,1,5.87-2.45l1.16.23a16.2,16.2,0,0,1,8.31,4.41c.13.14.15.77-.16.65a38.78,38.78,0,0,0-12.06-2.81C1632.25,1882,1631.21,1882,1630.17,1882Z"/><path class="cls-7" d="M1627.5,1887.05a7.7,7.7,0,0,1,1-3.15,23,23,0,0,1,2.72.43c2.75.66,6.33,2,7,5.09,0,.16,0,.59-.26.51-2.82-.83-5-2.31-8.08-2.73A23.36,23.36,0,0,0,1627.5,1887.05Z"/></g><g id="Character"><path class="cls-39" d="M1463.35,865.82c39.43-2.69,64.64,2.57,84.18,47.87,24.81,57.55,56.66,165.33,65.15,201.2,4,16.73,3.92,30.79-12.6,49.66-35.31,40.34-81.8,87.39-81.8,87.39l-25.15-87.79,30.71-45.18-37-100.21Z"/><path class="cls-33" d="M1523.84,1119c7.46,14.13,21.22,29.8,21.22,29.8a49.42,49.42,0,0,1-26.16-22.53Z"/><path class="cls-7" d="M1115.3,2076.64c-2,5.54-2.28,16.93-.5,20.67,2,4.16,14.39,17.84,39.68,22.81s60.08-.14,75-.91,62,4.83,76.92,6.85c23.47,3.17,41.54-2,50.29-10.48,3.43-3.33,3.7-8.19,3.53-12.37a61.5,61.5,0,0,0-2.49-16.71Z"/><path class="cls-38" d="M1353.85,2061.91q.7,2.93,1.27,5.89c1.85,9.75,3.47,20.56,2.17,30.47-3,7.42-11.35,11.51-18,13.63-17.65,5.61-31.14,4.71-50.71,1-11.74-2.22-45.5-4.6-59.53-3.65-15.42,1-36.64,4-52.06,2.58-13.17-1.21-26.11-2.59-38.3-7.81-10.3-4.41-20.8-10.05-23.31-20.64-3-22.29,6.33-32.15,16.92-38.35,11.19-6.55,25.57-5.75,41.62-6.83,14.55-1,25.14-1,38.07-2a182.42,182.42,0,0,0,32.74-6.27c9.73-3.07,20.24-13.85,24.38-14.29,0,0,64.69-.51,70.87,0,7.14.6,9.32,22.72,10.2,27.53.69,3.76.82,7.8,1.83,11.44C1352.64,2057.05,1353.28,2059.47,1353.85,2061.91Z"/><g class="cls-40"><path d="M1353.85,2061.91q.7,2.93,1.27,5.89c1.85,9.75,3.47,20.56,2.17,30.47-3,7.42-11.35,11.51-18,13.63-17.65,5.61-31.14,4.71-50.71,1-11.74-2.22-45.5-4.6-59.53-3.65-15.42,1-36.64,4-52.06,2.58-13.17-1.21-26.11-2.59-38.3-7.81-10.3-4.41-20.8-10.05-23.31-20.64-3-22.29,6.33-32.15,16.92-38.35,11.19-6.55,25.57-5.75,41.62-6.83,14.55-1,25.14-1,38.07-2a182.42,182.42,0,0,0,32.74-6.27c9.73-3.07,20.24-13.85,24.38-14.29,0,0,64.69-.51,70.87,0,7.14.6,9.32,22.72,10.2,27.53.69,3.76.82,7.8,1.83,11.44C1352.64,2057.05,1353.28,2059.47,1353.85,2061.91Z"/></g><path class="cls-12" d="M1154.48,2108.86c-2-16.07-4.69-50.88,24.89-71l3.76-.2s-17.22-6.3-40.91,0-34.17,25.44-28.27,45.63C1114,2083.3,1119.22,2102.9,1154.48,2108.86Z"/><path class="cls-39" d="M1377.41,1721c-2.1,36.92-36.5,289.1-39.5,302.63-1.78,8.06-12,16.67-38.55,15.77-18.65-.63-33.31.92-32.58-13.68L1248,1705.54Z"/><path class="cls-7" d="M1383.53,1870.35c-.94,11.36-2.47,21.59,2.17,34.1,6.66,17.94,20.74,26.16,29,33.24s16.34,18.37,24.09,27.77c8.09,9.81,9.87,16.22,22.45,26.59,7.85,6.47,29.79,11.81,43.3,6.08,10.57-4.48,14.23-8.08,13.57-24.27-.64-15.82-52.26-21.71-52.26-21.71Z"/><path class="cls-41" d="M1511.45,1925.58c4.4,1.58,5.51,9.56,6.18,25.42.51,12,5.81,29.57-11.57,37.13-14,6.1-36.43,2-45.9-9.27-11.82-14.11-19.82-26.54-36.69-43.77-14.63-14.94-29.87-20-36.37-49.85-4.18-19.2-.89-27.15,12.69-32.66,18.68-7.57,48,17.17,62.67,21.07C1475.06,1877,1507.05,1924,1511.45,1925.58Z"/><path class="cls-42" d="M1511.45,1925.58c4.4,1.58,5.51,9.56,6.18,25.42.51,12,5.81,29.57-11.57,37.13-14,6.1-36.43,2-45.9-9.27-11.82-14.11-19.82-26.54-36.69-43.77-14.63-14.94-29.87-20-36.37-49.85-4.18-19.2-.89-27.15,12.69-32.66,18.68-7.57,48,17.17,62.67,21.07C1475.06,1877,1507.05,1924,1511.45,1925.58Z"/><path class="cls-39" d="M1534.09,1641.56c2.5,101.17-13.43,202.74-20.83,290.25-1.27,8.55-44.38,26.2-58.71,1.09-.9-1.88-40.26-286.68-40.26-286.68Z"/><path class="cls-12" d="M1395.67,1907.35s1.42-34.47,49.71-40.24l-.82-6.08a41.76,41.76,0,0,0-18.85-10.86c-16.81-4.31-30.07-.18-38.88,10.62S1387,1900.42,1395.67,1907.35Z"/><path class="cls-41" d="M1531.88,1576.7s-2.77-70.83-1.06-147c1.07-47.81,2-75.22.12-108.62-3.14-54.91-9-89.73-13.37-111.3,0,0-265-50.51-268.23,44.61-3.89,114-7.58,340-7.81,369.85-.23,30,1.57,49.75,4.61,113.11,42.22,10.3,101.87,3.88,135.14-8.58,1.17-31.94,1.92-50.17,1.92-50.17l13.07-204.11s3.33,39.92,5.64,81.74,1.6,51.94,8.09,129.07c26.48,12.31,105.4,11.55,126.59-11.72C1536.59,1613.8,1531.88,1576.7,1531.88,1576.7Z"/><path class="cls-43" d="M1242.52,1466.57c37.49,8.85,99.45,6.56,99.45,6.56s-.85,134-7.74,151.61-86.49,14.68-96.1,0C1238.2,1553.1,1242.52,1466.57,1242.52,1466.57Z"/><path class="cls-8" d="M1493.13,1341.3s-34.52,47.48-76.23,65.27l-15.6,139.09-5-69.39,9.6-84S1458.6,1369.17,1493.13,1341.3Z"/><polygon class="cls-39" points="1355.72 827.81 1356.3 914.65 1444.08 913.74 1445.52 812.9 1355.72 827.81"/><path class="cls-3" d="M1533.89,910c-7.2-23.66-32.21-43.13-63.78-44.08-7-.21-25.34,0-25.34,0-3.59,14.62-50.53,21.47-88.81,12.46-11.54,3-56.57,11.43-66.18,14.62-27.51,9.13-33.07,37.05-37.35,126.79,0,0-7.29,148.93-4.48,260.73,48.39,25.51,127.37,25.13,180.57,19.75,83.56-8.44,99.71-39,99.71-39-3.5-49.23-5.06-67.53-3.68-116.15,1-36.51,11.55-75.16,14.79-116.53C1544.18,966.8,1538.83,926.2,1533.89,910Z"/><path class="cls-38" d="M1533.89,910c-7.2-23.66-32.21-43.13-63.78-44.08-7-.21-25.34,0-25.34,0-3.59,14.62-50.53,21.47-88.81,12.46-11.54,3-56.57,11.43-66.18,14.62-27.51,9.13-33.07,37.05-37.35,126.79,0,0-7.29,148.93-4.48,260.73,48.39,25.51,127.37,25.13,180.57,19.75,83.56-8.44,99.71-39,99.71-39-3.5-49.23-5.06-67.53-3.68-116.15,1-36.51,11.55-75.16,14.79-116.53C1544.18,966.8,1538.83,926.2,1533.89,910Z"/><path class="cls-33" d="M1290.11,716.3s-23.3,35.16-21.09,38.31,20.42,5.42,20.42,5.42Z"/><path class="cls-39" d="M1353.17,604.19c-41.81,7-57.21,32-63.4,104.72-1.59,18.76-1.24,58.75-.28,70.24,2.63,31.68,8.6,39.63,14.94,46.71,5.85,6.5,44.73,9.25,62,5.24,21.65-5,70.73-20.14,94.82-53.8,28.33-39.6,31.84-89.09,10-118.3C1420.35,590.69,1370.18,601.33,1353.17,604.19Z"/><path class="cls-33" d="M1304.45,825.85c4.79,5.33,33.43,8.2,51.31,6.78l.2-10.26S1329.81,830,1304.45,825.85Z"/><path class="cls-8" d="M1323.68,668.61c-3.12,15.17,7,34,23.64,40.29-2,6.33-3.2,8.45-3.62,18.48-.16,3.12,0,6.43,1.58,9.1,2.86,4.71,8,4.42,10.54.22,3-5,5.23-10.32,9.37-14.65,4.79-5,11.21-8.71,18.12-9.17,26.16-1.75,28,32.42,17,46.11-18,22.39-31.82,6.16-31.82,6.16s-4.49,28.17,25.21,56.19c5.72,5.4,16,7.42,23.37,8.38,7.56,1,21.09,2,28.25-2,14.58-23.66,45.52-63.24,56.58-84.14,10.61-20,23.15-43.41,17.74-66.78-2.34-10.14-8.41-19.67-17.47-24.78,2.81-6.72,5.5-13.74,5.26-21-.42-12.87-13.45-23.81-26.2-18.11a22.91,22.91,0,0,0-36.56-24.43c1.76-11-6.07-22.6-16.89-25.1s-23,4.51-26.2,15.12a30.4,30.4,0,0,0-53.36,4.54c-8.87-5.42-19.59-8.26-29.84-6.48s-19.81,8.59-23.62,18.27-1,21.94,7.51,28c-9.6.52-17,13.21-17,22.83C1285.22,652.83,1290.11,677.48,1323.68,668.61Z"/><path class="cls-39" d="M990.23,964.53c6.73,12.66,81.15,148.93,102.79,169.53,15.42,14.67,39.29,24.66,64,3.47,46.06-39.53,117.46-101.83,117.46-101.83,54.9-43.51,62.48-122.6,37.22-148-12.92.7-52.41,3.66-78,33.55-52.45,61.23-108.35,124.08-108.35,124.08-13.77-18.14-26-32.48-40.78-53.11-11.83-16.46-30.21-33.75-31-55.23-.39-11.19,3.71-22.37,5.41-33.35,2.21-14.3,4.18-28.49,6.57-42.8.48-2.85.88-6.05-.78-8.42-2.49-3.55-8.17-3-11.63-.37-3.92,3-6.11,7.6-8.15,12.06q-3.33,7.32-6.67,14.63c-1,2.29-2.59,4.92-5.1,5-7.88.2-9.21-16.72-11.21-21.85-2.6-6.68-3-13.93-3.93-21.07q-1.69-12.8-3.4-25.6c-.33-2.46-.91-5.31-3.14-6.42-2.78-1.39-6,.93-7.91,3.35a33.35,33.35,0,0,0-6.43,13.27c-2.62,11.35.67,24.16-5.13,34.27-2.25,3.91-5.66,7-8.65,10.35A121.47,121.47,0,0,0,973.2,884c-5.44,8.23-8.76,14.94-6.21,24.73C972.14,928.41,980.69,946.6,990.23,964.53Z"/><path class="cls-33" d="M1125.31,1045.34c-14.08,15.39-22.33,45.9-22.33,45.9s-1.53-32.33,14.9-55.54Z"/></g></g></svg>